<svg xmlns="http://www.w3.org/2000/svg" viewBox="0 0 173 24.77"><title>eterna logo</title><path d="M173,24.57c-1.48,0-2.79,0-4.09,0a1.05,1.05,0,0,1-.74-.48,29.2,29.2,0,0,1-3.32-6.92c-.52-1.89-1.11-3.77-1.63-5.66a38.78,38.78,0,0,0-2.76-8c-.49-.91-1-1.81-1.5-2.72a3.62,3.62,0,0,1-.17-.56C160.4.1,162,0,163.49,0c.66,0,.85.72,1.08,1.21a45.54,45.54,0,0,1,1.8,4.19,41.42,41.42,0,0,1,1.21,4.22c.57,2.31,1,4.66,1.62,7a26.16,26.16,0,0,0,3.36,7.18c.14.22.25.45.43.8" transform="translate(0 0)" style="fill:#757575"/><path d="M139.76,17.71,127.06,1h-4.34V24.77h4.47V8.25l12.57,16.5v0h4.46V1h-4.46Z" transform="translate(0 0)" style="fill:#757575"/><path d="M61.93,24.77H77.87V20.2h-11V15.1h8.48V10.52H66.83V5.42h11V.83H61.93Z" transform="translate(0 0)" style="fill:#757575"/><path d="M0,24.77H15.82V20.24h-11V15.17h8.43V10.63H4.85V5.55h11V1H0Z" transform="translate(0 0)" style="fill:#757575"/><path d="M49.27.78,27.81.94l0,4.56L36,5.44l.25,19.32,5.41,0L41.2,5.4l8.11-.06Z" transform="translate(0 0)" style="fill:#757575"/><path d="M107.13,13.9a7.76,7.76,0,0,0,1.51-4.55V8.73a6.71,6.71,0,0,0-2.32-5.42A8.73,8.73,0,0,0,100.07.87H92.28V24.76h4.8V14.2L104,24.76h5.87l-5.56-8.65a5.43,5.43,0,0,0,2.86-2.21m-6.59-1.65h-1.6v0H97.08V5.63h2.7a4.5,4.5,0,0,1,3,1,3.2,3.2,0,0,1,.94,2.3,3.28,3.28,0,0,1-3.16,3.37" transform="translate(0 0)" style="fill:#757575"/></svg>