<svg xmlns="http://www.w3.org/2000/svg" viewBox="0 0 19.24 18.4"><title>linkedin</title><path d="M2.67,0H2.33A2.15,2.15,0,0,0,2,4.28h.36A2.15,2.15,0,0,0,2.67,0Z" transform="translate(0.01 0.01)" style="fill:#fff"/><rect x="0.25" y="5.99" width="4.12" height="12.41" style="fill:#fff"/><path d="M14.49,5.69a5.18,5.18,0,0,0-3.72,2.09V6H6.65V18.39h4.12V11.46a2.9,2.9,0,0,1,.14-1A2.27,2.27,0,0,1,13,8.94c1.49,0,2.08,1.14,2.08,2.81v6.64h4.12V11.27C19.23,7.46,17.2,5.69,14.49,5.69Z" transform="translate(0.01 0.01)" style="fill:#fff"/><polygon points="14.5 5.7 14.5 5.7 14.5 5.7 14.5 5.7" style="fill:#fff"/></svg>