<svg xmlns="http://www.w3.org/2000/svg" viewBox="0 0 26.25 26.25"><title>blink</title><path d="M17,7.48a.82.82,0,0,0-1.14.06h0a.77.77,0,0,0-.21.58.85.85,0,0,0,.27.56,6,6,0,0,1,.43,8.44,6.08,6.08,0,0,1-.44.44.8.8,0,0,0-.24.56.82.82,0,0,0,.23.58.83.83,0,0,0,.58.25.81.81,0,0,0,.52-.2A7.59,7.59,0,0,0,17.58,8,7.4,7.4,0,0,0,17,7.48Z" transform="translate(0 0)" style="fill:#fff"/><path d="M13.12,0A13.17,13.17,0,0,0,0,13.12H0A13.13,13.13,0,1,0,13.12,0Zm0,24.63A11.51,11.51,0,1,1,24.63,13.12,11.52,11.52,0,0,1,13.12,24.63Z" transform="translate(0 0)" style="fill:#fff"/><path d="M10.89,5.6a3,3,0,1,0,3,3.05A3,3,0,0,0,10.89,5.6Zm1.42,3.05a1.43,1.43,0,1,1-1.43-1.43A1.44,1.44,0,0,1,12.31,8.65Z" transform="translate(0 0)" style="fill:#fff"/><path d="M11.61,15a.81.81,0,0,0-.73-.45h-.6l.14.15a.76.76,0,0,0-.26.3L7.93,19.46a.81.81,0,0,0,.3,1.11.8.8,0,0,0,.4.11.76.76,0,0,0,.21,0,.78.78,0,0,0,.49-.38.25.25,0,0,0,0-.07l1.51-3,1.53,3a.75.75,0,0,0,.49.38.76.76,0,0,0,.61-.08.81.81,0,0,0,.34-1Z" transform="translate(0 0)" style="fill:#fff"/></svg>