<svg xmlns="http://www.w3.org/2000/svg" viewBox="0 0 26.25 26.25"><title>blush</title><path d="M10.87,7.21A.81.81,0,0,0,11.46,7a.8.8,0,0,0,0-1.14.81.81,0,0,0-.62-.26,3.05,3.05,0,0,0,0,6.1.81.81,0,0,0,.81-.81h0a.82.82,0,0,0-.81-.81,1.43,1.43,0,0,1,0-2.86Z" transform="translate(0 0)" style="fill:#fff"/><path d="M10.88,19h0a1.46,1.46,0,0,1-1-.41,1.43,1.43,0,0,1,1-2.45.81.81,0,0,0,0-1.62,3.05,3.05,0,0,0,0,6.1.81.81,0,0,0,.81-.81h0A.81.81,0,0,0,10.88,19Z" transform="translate(0 0)" style="fill:#fff"/><path d="M13.12,0A13.17,13.17,0,0,0,0,13.12H0A13.13,13.13,0,1,0,13.12,0ZM24.63,13.12A11.51,11.51,0,1,1,13.12,1.62,11.52,11.52,0,0,1,24.63,13.12Z" transform="translate(0 0)" style="fill:#fff"/><path d="M19.23,8.81a3,3,0,0,0,.11-2.33,3.08,3.08,0,0,0-1.57-1.72,3,3,0,1,0-1.72,5.77,4.91,4.91,0,0,1,0,5.19,3,3,0,0,0,.44,6l.31,0a3,3,0,0,0,2.71-3.34A3,3,0,0,0,17.77,16a6.67,6.67,0,0,0,0-5.69A3.11,3.11,0,0,0,19.23,8.81Zm-1.32,9.91a1.43,1.43,0,1,1-1.43-1.43A1.44,1.44,0,0,1,17.91,18.72Zm0-11.2a1.43,1.43,0,1,1-1.43-1.43A1.43,1.43,0,0,1,17.91,7.52Z" transform="translate(0 0)" style="fill:#fff"/></svg>