<svg xmlns="http://www.w3.org/2000/svg" viewBox="0 0 26.25 26.25"><title>cool</title><path d="M17,7.48a.81.81,0,0,0-1.14.07.77.77,0,0,0-.21.58.85.85,0,0,0,.27.56,6,6,0,0,1,.43,8.44q-.21.23-.42.42a.81.81,0,0,0-.11,1.14.77.77,0,0,0,.54.29h.08a.83.83,0,0,0,.51-.18l.05,0A7.6,7.6,0,0,0,17.58,8,7.4,7.4,0,0,0,17,7.48Z" transform="translate(0 0)" style="fill:#fff"/><path d="M13.12,0A13.17,13.17,0,0,0,0,13.12H0A13.13,13.13,0,1,0,13.12,0ZM24.63,13.12A11.51,11.51,0,1,1,13.12,1.62,11.52,11.52,0,0,1,24.63,13.12Z" transform="translate(0 0)" style="fill:#fff"/><path d="M11.61,15a.81.81,0,0,0-.73-.45h-.6l.15.14a.81.81,0,0,0-.27.31L7.92,19.49a.8.8,0,0,0,.42,1.06.71.71,0,0,0,.32.07.82.82,0,0,0,.71-.42l1.51-3,1.53,3a.79.79,0,0,0,.49.38.76.76,0,0,0,.61-.08.81.81,0,0,0,.34-1Z" transform="translate(0 0)" style="fill:#fff"/><path d="M13.43,5.69a.81.81,0,0,0-.87.15l-.05,0L10.88,9.07l-1.5-3a.83.83,0,0,0-1.07-.43A.81.81,0,0,0,7.89,6.7l0,.07,2.24,4.48a.82.82,0,0,0,.73.44.94.94,0,0,0,.36-.08.83.83,0,0,0,.36-.36l2.24-4.5A.8.8,0,0,0,13.43,5.69Z" transform="translate(0 0)" style="fill:#fff"/></svg>