<svg xmlns="http://www.w3.org/2000/svg" viewBox="0 0 26.5 26.5"><title>cute</title><path d="M16.64,7.91a.82.82,0,1,0,0,1.63h0a1.45,1.45,0,0,1,1.55,1.34,1.43,1.43,0,0,1-.35,1.06,1.44,1.44,0,0,1-1,.5h-.23a.82.82,0,0,0,0,1.63h0a1.41,1.41,0,0,1,.93.42c-.31.8-.58,1.63-.81,2.46h-.1a.81.81,0,0,0-.81.81.82.82,0,0,0,.81.82h.2l.05-.2c.07-.34.16-.69.25-1a2,2,0,0,0,1-3,25.35,25.35,0,0,1,1.56-3.29l0-.06V11A3.09,3.09,0,0,0,16.64,7.91Z" style="fill:#fff"/><path d="M11,15.83a2,2,0,1,0,1.95,2A1.95,1.95,0,0,0,11,15.83Zm.31,1.94a.32.32,0,0,1-.31.32.32.32,0,1,1,0-.63A.31.31,0,0,1,11.3,17.77Z" style="fill:#fff"/><path d="M11,6.78a2,2,0,1,0,1.94,2A2,2,0,0,0,11,6.78Zm.31,2A.32.32,0,0,1,11,9a.32.32,0,0,1,0-.63A.32.32,0,0,1,11.31,8.73Z" style="fill:#fff"/><path d="M13.25,0A13.29,13.29,0,0,0,0,13.25H0A13.25,13.25,0,1,0,13.25,0Zm0,24.87A11.62,11.62,0,1,1,24.87,13.25,11.63,11.63,0,0,1,13.25,24.87Z" style="fill:#fff"/></svg>