<svg xmlns="http://www.w3.org/2000/svg" viewBox="0 0 26.5 26.5"><title>happy-1</title><path d="M9.86,6.78a2,2,0,1,0,2,2A2,2,0,0,0,9.86,6.78Zm.31,2a.32.32,0,0,1-.63,0,.32.32,0,1,1,.63,0Z" style="fill:#fff"/><path d="M9.85,15.82a1.95,1.95,0,1,0,2,1.95A2,2,0,0,0,9.85,15.82Zm0,2.26a.32.32,0,0,1-.32-.31.32.32,0,1,1,.63,0A.31.31,0,0,1,9.86,18.08Z" style="fill:#fff"/><path d="M13.25,0A13.29,13.29,0,0,0,0,13.25H0A13.25,13.25,0,1,0,13.25,0Zm0,24.87A11.62,11.62,0,1,1,24.87,13.25,11.63,11.63,0,0,1,13.25,24.87Z" style="fill:#fff"/><path d="M15.51,6.78a.81.81,0,0,0-.81.81V18.9a.81.81,0,0,0,.81.81,6.47,6.47,0,1,0,0-12.93Zm4.84,6.47a4.84,4.84,0,0,1-4,4.77V8.48A4.84,4.84,0,0,1,20.35,13.25Z" style="fill:#fff"/></svg>