<svg xmlns="http://www.w3.org/2000/svg" viewBox="0 0 26.25 26.25"><title>happy</title><path d="M17,7.48a.84.84,0,0,0-.58-.2.78.78,0,0,0-.56.26l-.06.08h0a.81.81,0,0,0,.12,1.06,6,6,0,0,1,.43,8.44,6.08,6.08,0,0,1-.44.44.8.8,0,0,0-.24.56.82.82,0,0,0,.23.58.83.83,0,0,0,.58.25.81.81,0,0,0,.52-.2A7.59,7.59,0,0,0,17.58,8,7.4,7.4,0,0,0,17,7.48Z" transform="translate(0 0)" style="fill:#fff"/><path d="M13.12,0A13.17,13.17,0,0,0,0,13.12H0A13.13,13.13,0,1,0,13.12,0Zm0,24.63A11.51,11.51,0,1,1,24.63,13.12,11.52,11.52,0,0,1,13.12,24.63Z" transform="translate(0 0)" style="fill:#fff"/><path d="M12,10.08a1.43,1.43,0,0,1,0-2.86A.81.81,0,1,0,12,5.6,3,3,0,0,0,9,8.65H9a3,3,0,0,0,3,3h0a.81.81,0,0,0,.57-.23.82.82,0,0,0,.24-.57.84.84,0,0,0-.24-.58A.8.8,0,0,0,12,10.08Z" transform="translate(0 0)" style="fill:#fff"/><path d="M12,16.17h.25v0a.8.8,0,0,0,.56-.77.81.81,0,0,0-.23-.57.83.83,0,0,0-.58-.24,3.05,3.05,0,0,0,0,6.1A.81.81,0,0,0,12,19a1.43,1.43,0,0,1,0-2.86Z" transform="translate(0 0)" style="fill:#fff"/></svg>