<svg xmlns="http://www.w3.org/2000/svg" viewBox="0 0 26.18 26.18"><title>laugh</title><path d="M13.09,0A13.13,13.13,0,0,0,0,13.09H0A13.09,13.09,0,1,0,13.09,0ZM24.57,13.09A11.48,11.48,0,1,1,13.09,1.62,11.48,11.48,0,0,1,24.57,13.09Z" transform="translate(0 0)" style="fill:#fff"/><path d="M13.27,4.47h-.18a.8.8,0,0,0-.81.8V20.91a.82.82,0,0,0,.24.57.93.93,0,0,0,.66.24,8.63,8.63,0,0,0,.09-17.25Zm.63,15.58V6.13a7,7,0,0,1,0,13.92Z" transform="translate(0 0)" style="fill:#fff"/><path d="M9.74,6.7a.81.81,0,0,0-.81.81V9.35L6.85,8a.82.82,0,0,0-1.13.17A.83.83,0,0,0,5.94,9.3l3.35,2.23a.85.85,0,0,0,.45.14.82.82,0,0,0,.81-.81V7.51A.81.81,0,0,0,9.74,6.7Z" transform="translate(0 0)" style="fill:#fff"/><path d="M9.74,14.52a.81.81,0,0,0-.45.13L5.94,16.88A.82.82,0,0,0,5.72,18a.81.81,0,0,0,1.12.22l2.09-1.4v1.84a.81.81,0,0,0,1.62,0V15.32A.8.8,0,0,0,9.74,14.52Z" transform="translate(0 0)" style="fill:#fff"/></svg>