<svg xmlns="http://www.w3.org/2000/svg" viewBox="0 0 26.25 26.25"><title>relief</title><path d="M16.37,17.13a4.49,4.49,0,0,1-.44.43.82.82,0,0,0-.24.57.83.83,0,0,0,.23.58.82.82,0,0,0,.58.24.8.8,0,0,0,.52-.19A7.59,7.59,0,0,0,17.58,8,7.4,7.4,0,0,0,17,7.48a.82.82,0,0,0-1.14.06l-.06.07v0a.81.81,0,0,0,.12,1.06A6,6,0,0,1,16.37,17.13Z" transform="translate(0 0)" style="fill:#fff"/><path d="M13.12,0A13.17,13.17,0,0,0,0,13.12H0A13.13,13.13,0,1,0,13.12,0Zm0,1.62a11.53,11.53,0,0,1,11.51,11.5v.06h0A11.51,11.51,0,0,1,13.12,24.63h0A11.52,11.52,0,0,1,1.62,13.12,11.51,11.51,0,0,1,13.12,1.62Z" transform="translate(0 0)" style="fill:#fff"/><path d="M10.89,10.08h0a.81.81,0,0,0-.81.8.84.84,0,0,0,.24.58.82.82,0,0,0,.58.23A3,3,0,0,0,13,10.8a3,3,0,0,0-2.15-5.2.81.81,0,0,0-.81.81h0a.81.81,0,0,0,.81.81,1.43,1.43,0,0,1,0,2.86Z" transform="translate(0 0)" style="fill:#fff"/><path d="M10.86,19a.81.81,0,0,0-.81.78.83.83,0,0,0,.84.84,3.05,3.05,0,0,0,0-6.1h-.26v0a.83.83,0,0,0-.32.2.81.81,0,0,0,.57,1.38,1.43,1.43,0,0,1,1.43,1.43A1.4,1.4,0,0,1,10.86,19Z" transform="translate(0 0)" style="fill:#fff"/><path d="M6,11.61a.73.73,0,0,0,.4.11.8.8,0,0,0,.7-.4l0-.08L8.24,9a.82.82,0,0,0,.09-.61A.87.87,0,0,0,8,7.91a.89.89,0,0,0-.62-.08.81.81,0,0,0-.49.38.21.21,0,0,1,0,.07L5.69,10.51a.77.77,0,0,0-.08.61A.79.79,0,0,0,6,11.61Z" transform="translate(0 0)" style="fill:#fff"/><path d="M7.12,15a.8.8,0,0,0-1.1-.3.81.81,0,0,0-.34,1L6.8,18a.82.82,0,0,0,.47.41.78.78,0,0,0,.26,0,.77.77,0,0,0,.36-.09.8.8,0,0,0,.45-.72.77.77,0,0,0-.09-.36Z" transform="translate(0 0)" style="fill:#fff"/></svg>