<svg xmlns="http://www.w3.org/2000/svg" viewBox="0 0 26.25 26.25"><title>surprise</title><path d="M13.12,0A13.17,13.17,0,0,0,0,13.12H0A13.13,13.13,0,1,0,13.12,0Zm0,24.63A11.51,11.51,0,1,1,24.63,13.12,11.52,11.52,0,0,1,13.12,24.63Z" transform="translate(0 0)" style="fill:#fff"/><path d="M10.88,15.67h0a1.93,1.93,0,1,0,1.93,1.93A1.93,1.93,0,0,0,10.88,15.67Zm.31,1.93a.31.31,0,0,1-.31.31.31.31,0,0,1-.31-.31.36.36,0,0,1,.09-.22.31.31,0,0,1,.53.22Z" transform="translate(0 0)" style="fill:#fff"/><path d="M10.88,6.72A1.92,1.92,0,0,0,9,8.64H9a1.93,1.93,0,1,0,1.92-1.93Zm.31,1.93a.31.31,0,1,1-.31-.32A.32.32,0,0,1,11.19,8.65Z" transform="translate(0 0)" style="fill:#fff"/><path d="M19.84,9H17.6a4.17,4.17,0,0,0,0,8.34h2.24a1.94,1.94,0,0,0,1.93-1.93V10.88A1.94,1.94,0,0,0,19.84,9Zm.31,1.93v4.48a.31.31,0,0,1-.31.31H17.6a2.55,2.55,0,0,1,0-5.1h2.24A.31.31,0,0,1,20.15,10.88Z" transform="translate(0 0)" style="fill:#fff"/></svg>