<svg xmlns="http://www.w3.org/2000/svg" viewBox="0 0 585.24 503.19"><title>bolitas turquesas 2</title><path d="M94.38,221.93c17-13.73,23.63-36.59,28.06-58s6.29-43.38,13.53-64c16.58-47.1,62.94-82.18,112.77-85.34S349,40.49,371.37,85.13c14.47,28.86,17.67,62.35,32.19,91.2,20.69,41.06,61.32,67.52,99.31,93.44s77.16,55.94,91.85,99.52c13.92,41.29,1.18,90.27-31.1,119.54s-82.26,37.2-122,19.34c-28.48-12.81-51.24-37.2-81.13-46.23-39.16-11.83-82.57-8.1-121.91,3.12C164.82,486.09,78.37,491,29,392-19.18,295.34,71.16,240.73,94.38,221.93Z" transform="translate(-15.06 -14.45)" style="fill:#5ed3cc;opacity:0.6499999761581421;isolation:isolate"/></svg>