<?xml version="1.0" encoding="utf-8"?>
<!-- Svg Vector Icons : http://www.onlinewebfonts.com/icon -->
<!DOCTYPE svg PUBLIC "-//W3C//DTD SVG 1.1//EN" "http://www.w3.org/Graphics/SVG/1.1/DTD/svg11.dtd">
<svg version="1.1" xmlns="http://www.w3.org/2000/svg" xmlns:xlink="http://www.w3.org/1999/xlink" x="0px" y="0px" viewBox="0 0 1000 1000" enable-background="new 0 0 1000 1000" xml:space="preserve">
<metadata> Svg Vector Icons : http://www.onlinewebfonts.com/icon </metadata>
<g><path d="M500,990c270.6,0,490-219.3,490-490c0-270.7-219.4-490-490-490C229.4,10,10,229.4,10,500C10,770.6,229.4,990,500,990z M500,71.3c236.8,0,428.8,191.9,428.8,428.8c0,236.8-191.9,428.8-428.8,428.8c-236.8,0-428.8-192-428.8-428.8C71.2,263.2,263.2,71.3,500,71.3z M361.1,761.4c11.9,12,31.3,12,43.3,0L638.8,527c7.4-7.4,9.6-17.5,8-26.9c1.7-9.5-0.7-19.6-8-27L404.4,238.5c-12-11.9-31.4-11.9-43.3,0c-12,11.9-12,31.4,0,43.3L579.2,500l-218,218C349.1,730.1,349.1,749.4,361.1,761.4z"/></g>
</svg>