<svg id="atmos_logo" data-name="atmos logo" xmlns="http://www.w3.org/2000/svg" viewBox="0 0 250.92 24.94"><defs><style>.cls-1{fill:#fff;}.cls-2{fill:#fea400;}</style></defs><path class="cls-1" d="M15.66,20.68H5.33c-.82,2.12-1.5,3.83-1.5,3.83H0L10.51,0,21.07,24.51H17.24S16.55,22.8,15.66,20.68Zm-1.2-3.11s-.62-1.33-.86-2c-.51-1.43-1-2.6-1.26-3.28-1.16-2.9-1.78-4.85-1.78-4.85s-.75,2-1.91,4.85c-.28.75-.72,1.95-1.27,3.28-.24.62-.82,2-.82,2s.48-.07,4-.07,3.9.07,3.9.07Z" transform="translate(-0.01 0)"/><path class="cls-1" d="M74.21.68V4.1H67V24.51H63V4.1H56V.68Z" transform="translate(-0.01 0)"/><path class="cls-1" d="M135.3,24.55h-3.79l0-12.28.1-2.77-1.81,2.09-6.26,6.63L116.87,12l-2-2.32L115,13V24.55h-3.9V0l12.48,12.65L135.3,0Z" transform="translate(-0.01 0)"/><path class="cls-2" d="M197.18,12.55a12.19,12.19,0,0,1-12,12.37h0a12.17,12.17,0,0,1-12-12.37,12,12,0,1,1,24,0Zm-2.46,0a9.53,9.53,0,1,0-19,0,9.53,9.53,0,1,0,19,0Z" transform="translate(-0.01 0)"/><path class="cls-1" d="M250.92,18.39c-.18,3.87-4.31,6.77-9.2,6.53-4-.24-7.25-2.53-8.21-5.4l4.17-1.13c.65,1.71,2,2.64,4.24,2.74,2.53.14,4.68-.92,4.75-3s-1.81-3.58-4.37-3.72a.42.42,0,0,1-.27-.07c-4.76-.38-8-3.8-7.8-7.52.24-3.9,4-6.87,8.82-6.57a9.44,9.44,0,0,1,7.48,3.94l-3.69,1.54a5,5,0,0,0-4-1.92C240.38,3.66,238,5,238,7s2,3.73,4.51,3.86C247.36,11.15,251.15,14.56,250.92,18.39Z" transform="translate(-0.01 0)"/></svg>