<svg id="cbmarket_logo" data-name="cbmarket logo" xmlns="http://www.w3.org/2000/svg" viewBox="0 0 270.34 84.73"><defs><style>.cls-1{fill:#edeeef;}</style></defs><path class="cls-1" d="M63.31,79a5.42,5.42,0,0,1,0,.57A4.28,4.28,0,0,1,54.77,79V70.9H53.51V79h0a2.94,2.94,0,0,0,0,.42A5.54,5.54,0,0,0,64.58,79V70.9H63.31Z" transform="translate(0 0)"/><path class="cls-1" d="M80.7,77c-2.51-.61-3.79-1.2-3.79-2.57s1.3-2.61,3.14-2.61a5.77,5.77,0,0,1,4,1.76l.79-1a6.87,6.87,0,0,0-4.74-1.93c-2.59,0-4.49,1.66-4.49,3.87s1.59,3,4.45,3.7c2.57.59,3.82,1.27,3.82,2.75s-1.25,2.57-3.41,2.57a6.39,6.39,0,0,1-4.59-2l-.79,1a7.51,7.51,0,0,0,5.35,2.15c3,0,4.72-1.68,4.72-3.86S83.49,77.63,80.7,77Z" transform="translate(0 0)"/><polygon class="cls-1" points="75.09 82.54 75.09 82.54 75.09 82.53 75.09 82.54"/><path class="cls-1" d="M100.77,70.9l-6,13.57h1.38l1.4-3.2h7.79l1.41,3.2h1.37l-6-13.57Zm-2.65,9.15,3.34-7.59,3.34,7.59Z" transform="translate(0 0)"/><polygon class="cls-1" points="131.24 82.54 131.24 82.54 131.23 82.53 131.24 82.54"/><path class="cls-1" d="M136.85,77c-2.51-.61-3.8-1.2-3.8-2.57s1.31-2.61,3.14-2.61a5.81,5.81,0,0,1,4,1.76l.79-1a6.91,6.91,0,0,0-4.75-1.93c-2.58,0-4.48,1.66-4.48,3.87s1.58,3,4.44,3.7c2.57.59,3.82,1.27,3.82,2.75s-1.25,2.57-3.4,2.57a6.4,6.4,0,0,1-4.6-2l-.79,1a7.51,7.51,0,0,0,5.35,2.15c3,0,4.72-1.68,4.72-3.86S139.63,77.63,136.85,77Z" transform="translate(0 0)"/><polygon class="cls-1" points="151.19 72.11 155.89 72.11 155.89 84.47 157.15 84.47 157.15 72.11 161.85 72.11 161.85 70.9 151.19 70.9 151.19 72.11"/><path class="cls-1" d="M177.87,70.82a7,7,0,0,0-7,6.86,7.09,7.09,0,0,0,7,7,6.95,6.95,0,0,0,.08-13.89Zm-.08,12.71a5.67,5.67,0,1,1,5.65-5.85A5.81,5.81,0,0,1,177.79,83.53Z" transform="translate(0 0)"/><path class="cls-1" d="M205.7,75.19c0-2.51-2.11-4.29-4.9-4.29h-5.57V84.48h1.27v-5h3.93l3.54,5h1.46l-3.6-5.1A4.28,4.28,0,0,0,205.7,75.19Zm-5.12,3.06h-4.09V72.1h4.09c2.27,0,3.85,1.19,3.85,3.09S202.85,78.25,200.58,78.25Z" transform="translate(0 0)"/><polygon class="cls-1" points="217.19 78.17 224.62 78.17 224.62 76.95 217.19 76.95 217.19 72.11 225.37 72.11 225.37 70.9 215.9 70.9 215.9 84.47 225.37 84.47 225.37 83.27 217.19 83.27 217.19 78.17"/><path class="cls-1" d="M27.24,34.61c-2.48,4-5.67,7.69-10.75,7.69-7.33,0-11.35-6.68-11.35-13.36C5.14,19.31,10.05,14,15.78,14c4.37,0,5.91,3.19,5.91,6.38a2,2,0,0,0,0,.42A2.14,2.14,0,0,0,24,22.74a1,1,0,0,0,.24,0,2.21,2.21,0,0,0,2.12-2.3c0-3.54-4.9-7.33-10.34-7.33-9.1,0-16,6.8-16,16.73C0,39.06,6.74,45.61,14.48,45.6c6.61,0,10.34-4.37,13.41-10.57C28,34.85,27.42,34.32,27.24,34.61Z" transform="translate(0 0)"/><path class="cls-1" d="M172.81,15.69c1.29,0,2.53,1.24,3.7,2.41a2.21,2.21,0,0,0,1.6.68c2,0,3.95-2.71,2.16-4.5a6.94,6.94,0,0,0-4.38-1.6c-3.39,0-4.19,1.67-7.77,5.24l-1.73,1.73v-6.6c0-.5-.31-.55-.93-.43-2.65.49-6.29.92-8.88,1.42-.24.06-.24.86.06.86,3.64-.18,4,2.35,4,6V46.05h5.74v-25l4.57-4.5A2.58,2.58,0,0,1,172.81,15.69Z" transform="translate(0 0)"/><path class="cls-1" d="M269.53,40c-1.91,2.83-3.45,3.89-5.3,3.89-2.34,0-4-1.73-4-6V15.33H268l.87-1.85h-8.58V2.69c0-.25-.8-.37-.92,0-1.12,5.8-4.45,11-9.63,11l-.24,1.6h5V38.16h0c0,6.17,3.51,8.57,7.71,8.57,3.21,0,5.55-2.16,8.14-6.23C270.46,40.26,269.72,39.7,269.53,40Z" transform="translate(0 0)"/><path class="cls-1" d="M138,12.74c-4.44,0-14.12,3.7-14.12,9.26a2.48,2.48,0,0,0,2.5,2.47h.21a2.46,2.46,0,0,0,2.65-2.26.71.71,0,0,1,0-.14c0-4.56,2.52-8,6.9-8,4,0,7.65,2.84,7.65,8.88v3.15c-2.71.5-5.12,1-7.21,1.54-10.43,2.72-13.39,6.42-13.39,11.23s4.32,7.84,9.5,7.84c5.92,0,9.69-5.31,11-9.63h.12v9h5.68V23.47C149.49,14.47,143.69,12.74,138,12.74Zm5.8,22c-1.6,5.18-4.5,8.64-8.76,8.64h0a6.09,6.09,0,0,1-6.34-5.84,2.44,2.44,0,0,1,0-.27c0-2.46.43-6.22,8.2-8.76A52.63,52.63,0,0,1,143.75,27Z" transform="translate(0 0)"/><path class="cls-1" d="M242.32,34.06h-.2a2.46,2.46,0,0,0-2.65,2.26c0,.05,0,.1,0,.14,0,4.57-2.53,8-6.9,8a6.59,6.59,0,0,1-1.09-.1C228,43.77,224,39.63,224,30.09q0-1.1.06-2.19c0-.62.1-1.17.16-1.7h19.82q0-6.87-3.14-10.11c-2.09-2.16-5-3.25-8.72-3.25a13.54,13.54,0,0,0-7.55,2.1,13.74,13.74,0,0,0-5,6,21.84,21.84,0,0,0-1.77,9.2,18.29,18.29,0,0,0,1.74,8.17,12.76,12.76,0,0,0,8.94,7.1l0,0,.81.14c.45.07.9.13,1.36.17s1,.1,1.3.1c4.44,0,12.83-3.7,12.83-9.25A2.49,2.49,0,0,0,242.32,34.06ZM226.78,16.79h0A6.52,6.52,0,0,1,232,14a4.5,4.5,0,0,1,3.52,1.52,9.39,9.39,0,0,1,2,4,19.2,19.2,0,0,1,.5,5.5H224.14C224.48,21.32,225.35,18.55,226.78,16.79Z" transform="translate(0 0)"/><polygon class="cls-1" points="108.34 12.74 108.34 12.74 108.34 12.74 108.34 12.74"/><path class="cls-1" d="M108.34,12.74c-2.71,0-6,1.79-9.19,5.68L97.3,20.64c-.55-5.06-3.14-7.9-6.54-7.9-2.6,0-5.7,1.66-8.77,5.21l-2.15,2.56-5.73,6.88V46.05h5.73V22l2.53-3c2-2.4,3.83-3.39,5.25-3.39,2.59,0,4.07,3.27,4.07,7.16V46.05h5.73V22L100,19c2-2.4,3.83-3.39,5.25-3.39,2.59,0,4.07,3.27,4.07,7.16V46.05H115V22.8C115,16.38,112.23,12.74,108.34,12.74Z" transform="translate(0 0)"/><path class="cls-1" d="M62,28.59C62,18,55.54,13.11,48.92,13.11h0a11.9,11.9,0,0,0-9.57,4.73v-5h0V6.45h0V.23c0-.24-.8-.37-.93,0-.69,3.6-2.24,7-4.55,9V45h1.24l2.72-1.89a13.27,13.27,0,0,0,8.27,2.54C54.77,45.67,62,39.11,62,28.59ZM45.79,44.78h0a8.12,8.12,0,0,1-6.44-3.6V19.44c1.83-2.72,3.84-3.84,7.44-3.84,5.79,0,9.69,5.2,9.69,13.88C56.48,39.58,50.57,44.78,45.79,44.78Z" transform="translate(0 0)"/><path class="cls-1" d="M201.86,23.66h0a10,10,0,0,0-3.7.68L209.7,13.48h-2L191.19,29.21V11.87h0V.23c0-.24-.8-.37-.93,0-.71,3.73-2.34,7.21-4.79,9.24V46.05h5.74V31c1.73-1.66,3.39-3.21,5.12-4.87a7.18,7.18,0,0,1,2.84-.68c3.27,0,5.67,2.84,5.67,7.65V46.25h5.74V33.72C210.56,27.3,206.67,23.66,201.86,23.66Z" transform="translate(0 0)"/></svg>