<svg id="sello_cbmarket" data-name="sello cbmarket" xmlns="http://www.w3.org/2000/svg" viewBox="0 0 194.48 195.98"><defs><style>.cls-1{fill:#edeeef;}</style></defs><path class="cls-1" d="M33.55,69.22,30,67.52l.66-1.37c.74-1.56.57-2.93-.81-3.59s-2.54,0-3.29,1.61l-1,2.17L33.18,70Zm-4.23-2-2.77-1.32.63-1.32c.57-1.18,1.32-1.68,2.28-1.22s1.08,1.31.5,2.54Z" transform="translate(0 0)"/><path class="cls-1" d="M38.4,60.26,35.11,58l.81-1.2,4.61.28.59-.88L36.38,56a2.21,2.21,0,0,0-.6-3c-1.39-.94-2.57-.26-3.51,1.14l-1.4,2.07L37.92,61ZM32,55.93l.86-1.28c.72-1.06,1.54-1.53,2.46-.92s.82,1.5,0,2.65l-.84,1.25Z" transform="translate(0 0)"/><polygon class="cls-1" points="47.76 48.59 47.19 48.07 44.11 51.42 41.7 49.21 44.48 46.17 43.93 45.66 41.14 48.7 38.99 46.72 41.97 43.47 41.4 42.95 37.84 46.83 44.09 52.58 47.76 48.59"/><polygon class="cls-1" points="51.66 34.19 53.71 41.49 53.7 41.5 47.13 37.69 46.09 38.5 51.27 45.23 51.96 44.7 47.45 38.86 47.47 38.85 54.41 42.81 54.77 42.53 52.69 34.81 52.71 34.8 57.22 40.64 57.9 40.11 52.71 33.39 51.66 34.19"/><rect class="cls-1" x="60.26" y="29.26" width="0.86" height="8.5" transform="translate(-8.63 34.31) rotate(-29.56)"/><path class="cls-1" d="M66.81,31.51A3.07,3.07,0,0,0,71,33.45c2.35-1,2.2-3,1.67-4.34l-2-4.93-.8.32,2,4.85c.51,1.27.47,2.73-1.13,3.39s-2.65-.38-3.16-1.65l-2-4.85-.8.33,2,4.94Z" transform="translate(0 0)"/><polygon class="cls-1" points="79.88 30.23 78.39 23 78.42 23 82.91 29.61 83.35 29.52 84.88 21.67 84.9 21.66 86.39 28.9 87.24 28.72 85.53 20.4 84.23 20.66 82.86 28.13 82.85 28.13 78.61 21.82 77.32 22.08 79.03 30.4 79.88 30.23"/><path class="cls-1" d="M102.58,28.55a3.71,3.71,0,0,0,3.28-1.37l-.65-.47a2.89,2.89,0,0,1-2.57,1.09l-.19,0a3.52,3.52,0,0,1-3.09-3.91c0-.08,0-.17,0-.25a3.5,3.5,0,0,1,3.76-3.22,2.78,2.78,0,0,1,2.21,1.26l.76-.48a3.74,3.74,0,0,0-2.93-1.54h-.25a4.33,4.33,0,0,0-4.47,4.18c0,.1,0,.2,0,.3A4.3,4.3,0,0,0,102.58,28.55Z" transform="translate(0 0)"/><path class="cls-1" d="M116.48,28.32a2,2,0,0,0-1.39-2.5v0A1.83,1.83,0,0,0,117,24.36c.38-1.65-.92-2.44-2.18-2.73l-2.46-.57-1.91,8.27,2.45.57C114.78,30.34,116.17,29.7,116.48,28.32ZM113,22l1.47.33c1.08.25,1.89.85,1.65,1.91l-.06.18a1.56,1.56,0,0,1-2,.87l-1.69-.39Zm-.83,3.58,1.72.4c1.35.32,2,1,1.76,2.12s-1.44,1.36-2.66,1.08l-1.56-.36Z" transform="translate(0 0)"/><path class="cls-1" d="M123.86,33.39a4.25,4.25,0,1,0,2.86-8l-2.6-1.08-3.25,7.85,2.6,1.08Zm.76-8,1.59.66a3.23,3.23,0,0,1,.58.24,3.49,3.49,0,0,1-3.24,6.19L122,31.77Z" transform="translate(0 0)"/><path class="cls-1" d="M140.42,38.1l1.21.91c1.38,1,2.76,1.14,3.68-.08s.45-2.5-.93-3.54L142.46,34l-5.11,6.78.69.52Zm2.29-3,1.17.88c1,.79,1.38,1.62.74,2.47s-1.5.8-2.59,0l-1.17-.89Z" transform="translate(0 0)"/><path class="cls-1" d="M145.86,47.8,148.69,45l1,1-1.18,4.46.74.75,1.14-4.6a2.21,2.21,0,0,0,3.08,0c1.18-1.17.75-2.46-.43-3.66l-1.75-1.78-6.05,6Zm5.52-5.44,1.07,1.09c.91.92,1.2,1.82.42,2.59s-1.63.51-2.6-.48l-1.05-1.07Z" transform="translate(0 0)"/><path class="cls-1" d="M154.4,58.19c0,.07.09.14.14.2a4.31,4.31,0,0,0,6.05.87l0,0a4.46,4.46,0,1,0-6.23-1.05ZM156,52.33a3.72,3.72,0,0,1,5.11,1.18l.12.18a3.52,3.52,0,0,1-1.14,4.83l-.16.1A3.71,3.71,0,0,1,156,52.33Z" transform="translate(0 0)"/><path class="cls-1" d="M160.65,68.63c0,.13.11.26.17.38a4.25,4.25,0,1,0,7.56-3.89l-1.16-2.56-7.74,3.5Zm6.94-3.41a5.45,5.45,0,0,1,.25.55,3.49,3.49,0,1,1-6.59,2.32l-.71-1.56,6.34-2.87Z" transform="translate(0 0)"/><path class="cls-1" d="M167.14,76.59c-1.36.35-3.12,1.46-2.48,3.92s2.71,2.59,4.07,2.24l5.15-1.33-.21-.84-5.07,1.31c-1.32.34-2.76.1-3.2-1.57s.73-2.58,2-2.92l5.07-1.3-.22-.84-5.16,1.33Z" transform="translate(0 0)"/><path class="cls-1" d="M166.69,92.86a3.7,3.7,0,0,0,1.85,3l.37-.71a2.91,2.91,0,0,1-1.46-2.38,3.71,3.71,0,0,1,7.39-.62,2.81,2.81,0,0,1-.92,2.38l.58.67a3.67,3.67,0,0,0,1.09-3.12,4.47,4.47,0,1,0-8.9.74Z" transform="translate(0 0)"/><polygon class="cls-1" points="174.66 103.13 166.94 102.57 166.88 103.44 174.59 103.99 174.39 106.82 175.15 106.88 175.62 100.34 174.85 100.29 174.66 103.13"/><path class="cls-1" d="M172.25,111.78c-1.51-.33-2.23.71-2.81,1.73s-1.06,1.89-2.22,1.63h0A1.77,1.77,0,0,1,166,113a2.25,2.25,0,0,1,1.46-1.67l-.38-.84a3.26,3.26,0,0,0-1.8,2.34,1.8,1.8,0,0,0,0,.19,2.51,2.51,0,0,0,1.85,3c1.65.37,2.34-.85,3-1.93.5-.86,1-1.68,2-1.45l.07,0a1.67,1.67,0,0,1,1.1,2.09,2,2,0,0,1-1.2,1.53l.39.79a3,3,0,0,0,1.52-2.12s0-.1,0-.14A2.47,2.47,0,0,0,172.25,111.78Z" transform="translate(0 0)"/><path class="cls-1" d="M166.6,122.71a.66.66,0,0,0,.83-.41.66.66,0,0,0-.41-.82.64.64,0,0,0-.82.4h0a.63.63,0,0,0,.4.81Z" transform="translate(0 0)"/><path class="cls-1" d="M160.72,127.22l3.56,1.72-.67,1.36c-.75,1.56-.59,2.93.79,3.6s2.54,0,3.3-1.59l1.05-2.16-7.65-3.71Zm4.21,2,2.77,1.35-.64,1.32c-.57,1.17-1.33,1.66-2.28,1.2s-1.08-1.33-.49-2.55Z" transform="translate(0 0)"/><path class="cls-1" d="M155.81,136.12l3.28,2.25-.82,1.18-4.6-.3-.6.87,4.73.23a2.21,2.21,0,0,0,.58,3c1.37,1,2.56.28,3.51-1.11l1.41-2.06-7-4.8Zm6.39,4.38-.87,1.27c-.72,1.06-1.55,1.52-2.46.9s-.81-1.5,0-2.65l.85-1.23Z" transform="translate(0 0)"/><polygon class="cls-1" points="146.37 147.73 146.93 148.25 150.03 144.93 152.43 147.16 149.62 150.16 150.18 150.68 152.98 147.67 155.12 149.67 152.12 152.89 152.68 153.41 156.27 149.56 150.06 143.77 146.37 147.73"/><polygon class="cls-1" points="142.14 151.6 146.61 157.47 146.59 157.49 139.68 153.48 139.31 153.75 141.34 161.49 141.32 161.5 136.85 155.63 136.16 156.15 141.31 162.91 142.36 162.11 140.36 154.79 140.37 154.79 146.93 158.64 147.98 157.84 142.83 151.08 142.14 151.6"/><rect class="cls-1" x="132.9" y="158.47" width="0.86" height="8.49" transform="translate(-62.33 85.45) rotate(-29.12)"/><path class="cls-1" d="M127.21,164.68c-.52-1.31-1.85-2.92-4.21-2s-2.22,3-1.71,4.33l2,4.95.8-.32-1.93-4.87c-.51-1.27-.46-2.73,1.15-3.37s2.65.39,3.15,1.66l1.94,4.87.8-.32-2-4.95Z" transform="translate(0 0)"/><polygon class="cls-1" points="114.14 165.85 115.58 173.09 115.55 173.1 111.11 166.46 110.66 166.54 109.08 174.38 109.05 174.39 107.62 167.14 106.77 167.31 108.42 175.65 109.72 175.39 111.14 167.94 111.15 167.94 115.34 174.28 116.64 174.02 114.99 165.69 114.14 165.85"/><path class="cls-1" d="M91.41,167.38a3.69,3.69,0,0,0-3.28,1.35l.63.48a2.9,2.9,0,0,1,2.58-1.07,3.71,3.71,0,0,1-.54,7.39,2.8,2.8,0,0,1-2.2-1.28l-.75.48a3.7,3.7,0,0,0,2.92,1.55,4.46,4.46,0,0,0,.64-8.9Z" transform="translate(0 0)"/><path class="cls-1" d="M77.53,167.52A2,2,0,0,0,78.9,170v0A1.84,1.84,0,0,0,77,171.49c-.39,1.64.9,2.44,2.16,2.74l2.47.59,2-8.27L81.15,166C79.25,165.52,77.85,166.15,77.53,167.52ZM81,173.9l-1.46-.35c-1.08-.26-1.89-.86-1.64-1.92l.06-.18a1.56,1.56,0,0,1,2-.85l1.7.4Zm.86-3.59-1.72-.41c-1.35-.32-2-1-1.74-2.12s1.45-1.36,2.67-1.07l1.56.37Z" transform="translate(0 0)"/><path class="cls-1" d="M70.19,162.41a4.25,4.25,0,0,0-2.94,8l2.6,1.1,3.31-7.83-2.6-1.1A2.87,2.87,0,0,0,70.19,162.41Zm-.84,8-1.58-.67a3,3,0,0,1-.56-.24,3.49,3.49,0,0,1,3.27-6.17l1.58.66Z" transform="translate(0 0)"/><path class="cls-1" d="M53.64,157.56l-1.2-.92c-1.37-1-2.75-1.16-3.68.06s-.48,2.49.9,3.54l1.9,1.46L56.72,155l-.68-.52Zm-2.31,3-1.17-.89c-1-.79-1.36-1.63-.72-2.47s1.51-.79,2.59,0l1.16.89Z" transform="translate(0 0)"/><path class="cls-1" d="M48.28,147.84l-2.85,2.76-1-1,1.21-4.45-.73-.76L43.73,149a2.19,2.19,0,0,0-3.07,0c-1.2,1.16-.78,2.47.39,3.66l1.74,1.8,6.09-5.92Zm-5.56,5.4-1.07-1.1c-.89-.92-1.19-1.82-.39-2.59s1.63-.5,2.6.5l1,1.07Z" transform="translate(0 0)"/><path class="cls-1" d="M39.8,137.38l-.14-.21a4.32,4.32,0,0,0-6-.91l0,0a4.46,4.46,0,1,0,6.21,1.1Zm-1.63,5.83a3.7,3.7,0,0,1-5.1-1.21l-.13-.2a3.51,3.51,0,0,1,1.19-4.8l.15-.1a3.71,3.71,0,0,1,3.89,6.31Z" transform="translate(0 0)"/><path class="cls-1" d="M33.62,126.88c0-.13-.11-.26-.17-.38a4.25,4.25,0,1,0-7.59,3.82L27,132.9l7.76-3.45Zm-7,3.35a3,3,0,0,1-.24-.55,3.49,3.49,0,1,1,6.6-2.27l.7,1.57-6.36,2.82Z" transform="translate(0 0)"/><path class="cls-1" d="M27.18,118.88c1.36-.34,3.13-1.44,2.51-3.91s-2.69-2.61-4.05-2.27L20.47,114l.2.84,5.08-1.27c1.33-.33,2.78-.09,3.2,1.59s-.74,2.57-2.07,2.9l-5.08,1.27.21.84,5.17-1.29Z" transform="translate(0 0)"/><path class="cls-1" d="M23.64,107.4l.29,0a4.29,4.29,0,0,0,3.82-4.74,3.7,3.7,0,0,0-1.82-3l-.38.71A2.91,2.91,0,0,1,27,102.69c0,.07,0,.13,0,.2a3.51,3.51,0,0,1-3.44,3.6l-.24,0a3.5,3.5,0,0,1-3.73-3.26,2.78,2.78,0,0,1,.94-2.37l-.58-.68a3.72,3.72,0,0,0-1.11,3.12,2.11,2.11,0,0,0,0,.25A4.32,4.32,0,0,0,23.64,107.4Z" transform="translate(0 0)"/><polygon class="cls-1" points="19.87 92.29 27.57 92.9 27.64 92.04 19.94 91.43 20.17 88.6 19.4 88.54 18.88 95.06 19.65 95.13 19.87 92.29"/><path class="cls-1" d="M22.32,83.65c1.51.35,2.24-.68,2.82-1.7s1.08-1.88,2.24-1.62h0a1.77,1.77,0,0,1,1.17,2.2,2.23,2.23,0,0,1-1.47,1.66l.38.84a3.26,3.26,0,0,0,1.81-2.33l.06-.19a2.53,2.53,0,0,0-1.84-3.05c-1.65-.37-2.34.84-3,1.91-.52.86-1,1.68-2,1.44l-.06,0a1.67,1.67,0,0,1-1.1-2.1,2,2,0,0,1,1.22-1.52l-.39-.78a2.91,2.91,0,0,0-1.53,2.11.5.5,0,0,0,0,.13A2.46,2.46,0,0,0,22.32,83.65Z" transform="translate(0 0)"/><path class="cls-1" d="M27.22,73.19a.65.65,0,0,0,.4.83.64.64,0,0,0,.82-.4h0a.65.65,0,0,0-1.23-.42Z" transform="translate(0 0)"/><path class="cls-1" d="M92.19,79.49c-.23-5.17.83-8.35,2.54-9.93,3.12-2.88,8.55-.6,12.87,4.08l25.92,28,6.91-6.4-25.91-28c-7.15-7.73-14.55-9-19.23-4.69-3.27,3-5.22,8.82-4.75,17.08l.25,4.74c-6.31-5.48-12.59-6-16.68-2.23-3.13,2.9-5,8.35-4.77,16l.28,5.47h0l.75,14.67,20.8,22.48,6.91-6.39-26.81-29L71,99.08c-.23-5.17.82-8.35,2.53-9.93,3.12-2.89,8.55-.6,12.88,4.08l25.91,28,6.91-6.4-26.8-29Z" transform="translate(0 0)"/><path class="cls-1" d="M191.8,100.39c-1.16-3-2.36-6.17-2.58-9.16s.51-6.23,1.22-9.38c1-4.27,1.95-8.68.73-12.68s-4.46-7-7.61-10c-2.38-2.25-4.84-4.57-6.36-7.21a32.49,32.49,0,0,1-2.92-8.83c-1-4.3-2-8.73-4.93-11.87s-7.26-4.52-11.46-5.84c-3.17-1-6.17-2-8.57-3.61s-4.65-4.35-6.7-6.89c-2.72-3.38-5.54-6.86-9.35-8.36s-8.37-.89-12.7-.27c-3.2.46-6.5.94-9.45.49s-6-1.89-8.93-3.28c-3.93-1.87-8-3.79-12.14-3.5s-7.86,2.8-11.47,5.21C75.87,7,73.07,8.91,70.18,9.8s-6.13.87-9.34.89c-4.39,0-8.94,0-12.6,2.14-3.5,2-5.75,5.85-7.94,9.56-1.68,2.85-3.41,5.79-5.69,7.9s-5.34,3.61-8.31,5.06c-3.87,1.89-7.87,3.84-10.15,7.17-2.39,3.49-2.76,8-3.12,12.39-.26,3.2-.53,6.51-1.61,9.24s-3.18,5.46-5.2,8c-2.68,3.42-5.46,7-6.08,11s1,8.31,2.54,12.38c1.16,3,2.36,6.17,2.58,9.16S4.74,111,4,114.12c-1,4.27-1.95,8.68-.73,12.68s4.46,7,7.61,10c2.38,2.25,4.84,4.57,6.36,7.21a32.49,32.49,0,0,1,2.92,8.83c1,4.3,2,8.73,4.93,11.88s7.26,4.51,11.46,5.84c3.17,1,6.17,1.95,8.57,3.6s4.65,4.35,6.7,6.9c2.73,3.37,5.54,6.85,9.35,8.35s8.37.89,12.7.27c3.2-.46,6.5-.94,9.44-.49s6,1.89,8.94,3.28C96,194.18,99.73,196,103.56,196h0q.44,0,.87,0c4.11-.3,7.85-2.8,11.47-5.22,2.7-1.81,5.51-3.68,8.4-4.56s6.12-.88,9.33-.89c4.4,0,8.94,0,12.6-2.14,3.5-2,5.76-5.85,7.94-9.56,1.68-2.85,3.42-5.8,5.69-7.9s5.35-3.61,8.32-5.06c3.86-1.89,7.86-3.84,10.14-7.17,2.39-3.49,2.76-8,3.12-12.4.26-3.19.53-6.5,1.61-9.24s3.19-5.46,5.2-8c2.69-3.41,5.47-7,6.09-11S193.36,104.46,191.8,100.39Zm1.56,12.23c-.58,3.82-3.27,7.24-5.88,10.56-2.06,2.62-4.19,5.32-5.35,8.27s-1.41,6.26-1.68,9.52c-.34,4.25-.7,8.65-2.94,11.91s-5.84,4.93-9.76,6.84c-3,1.49-6.17,3-8.56,5.23s-4.15,5.21-5.87,8.12c-2.22,3.76-4.31,7.31-7.58,9.2-3.43,2-7.84,2-12.1,2-3.28,0-6.67,0-9.62.93s-5.9,2.84-8.67,4.69c-3.5,2.35-7.12,4.76-11,5s-7.83-1.6-11.65-3.41c-3-1.43-6.09-2.9-9.2-3.37a17.9,17.9,0,0,0-2.73-.19h0a49.82,49.82,0,0,0-7,.68c-4.2.61-8.55,1.23-12.19-.2s-6.17-4.63-8.94-8.06c-2.1-2.6-4.27-5.29-6.91-7.1s-5.73-2.74-8.84-3.72c-4.08-1.29-8.29-2.63-11-5.57s-3.73-7.25-4.7-11.42c-.74-3.17-1.5-6.45-3-9.1S14,138.34,11.61,136c-3.19-3-6.21-5.87-7.33-9.53s-.19-8,.74-12.17c.72-3.22,1.47-6.55,1.24-9.67s-1.45-6.34-2.64-9.44c-1.51-4-3.08-8-2.49-11.88S4.4,76.11,7,72.79c2.06-2.61,4.19-5.32,5.35-8.27S13.77,58.27,14,55c.34-4.25.7-8.65,2.94-11.91s5.84-4.93,9.76-6.84c3-1.48,6.18-3,8.56-5.22s4.16-5.22,5.87-8.13c2.22-3.76,4.31-7.31,7.58-9.2,3.43-2,7.84-2,12.1-2,3.28,0,6.67,0,9.62-.93s5.9-2.84,8.66-4.69c3.51-2.34,7.14-4.76,11-5S98,2.62,101.77,4.44c3,1.43,6.1,2.9,9.21,3.37s6.47,0,9.74-.49c4.2-.61,8.54-1.23,12.18.2s6.18,4.64,8.94,8.06c2.1,2.6,4.27,5.29,6.91,7.1s5.73,2.74,8.84,3.72c4.08,1.29,8.3,2.63,11,5.57s3.72,7.25,4.69,11.42c.74,3.17,1.5,6.45,3,9.1s4.11,5.14,6.54,7.44c3.2,3,6.22,5.87,7.34,9.53s.18,8-.75,12.17c-.72,3.22-1.47,6.56-1.24,9.67s1.46,6.35,2.64,9.45C192.38,104.7,194,108.78,193.36,112.62Z" transform="translate(0 0)"/></svg>