<svg id="elementos_becloud" data-name="elementos becloud" xmlns="http://www.w3.org/2000/svg" viewBox="0 0 921 95.93"><defs><style>.cls-1{fill:#dedede;}</style></defs><path class="cls-1" d="M40.18,40.15H72.94a9.35,9.35,0,0,0,2.32-18.41h0c0-.1,0-.2,0-.3a7,7,0,0,0-11.64-5.28A14,14,0,0,0,38,21.7a9.35,9.35,0,0,0,2.17,18.45ZM38.55,24A2.35,2.35,0,0,0,40.33,22a11.67,11.67,0,0,1,21.35-4.61,2.37,2.37,0,0,0,1.64,1l.32,0a2.29,2.29,0,0,0,1.54-.58,4.67,4.67,0,0,1,7.75,3.55v.17A2.35,2.35,0,0,0,74.68,24a7,7,0,0,1-1.74,13.81H40.18A7,7,0,0,1,38.55,24Z" transform="translate(0 0)"/><path class="cls-1" d="M301.49,9.07H278.82a4.53,4.53,0,0,0-4.54,4.53V45.34a4.54,4.54,0,0,0,4.54,4.54h22.67A4.53,4.53,0,0,0,306,45.34V13.6A4.53,4.53,0,0,0,301.49,9.07Zm2.27,36.27a2.27,2.27,0,0,1-2.27,2.27H278.82a2.26,2.26,0,0,1-2.27-2.27V16.9c2.75,2.14,5.86,3.11,10.38,3.4a3.38,3.38,0,0,0,6.45,0C297.9,20,301,19,303.76,16.9ZM289,19.27a1.14,1.14,0,1,1,1.14,1.13h0A1.14,1.14,0,0,1,289,19.27ZM303.76,14c-2.22,2.39-5.51,3.63-10.45,4A3.4,3.4,0,0,0,287,18c-4.94-.36-8.23-1.6-10.44-4V13.6a2.27,2.27,0,0,1,2.27-2.27h22.67a2.28,2.28,0,0,1,2.27,2.27Z" transform="translate(0 0)"/><path class="cls-1" d="M310.55,0H287.88a4.53,4.53,0,0,0-4.53,4.54V5.67a1.14,1.14,0,0,0,2.27,0V4.53a2.26,2.26,0,0,1,2.26-2.26h22.67a2.26,2.26,0,0,1,2.27,2.26V36.28a2.26,2.26,0,0,1-2.27,2.26h-1.13a1.14,1.14,0,0,0,0,2.27h1.13a4.53,4.53,0,0,0,4.54-4.53V4.53A4.53,4.53,0,0,0,310.55,0Z" transform="translate(0 0)"/><path class="cls-1" d="M284.49,40.81h-2.27a1.14,1.14,0,0,0,0,2.27h2.27a1.14,1.14,0,0,0,0-2.27Z" transform="translate(0 0)"/><path class="cls-1" d="M286.82,36.28h-4.6a1.13,1.13,0,1,0-.07,2.26h4.61a1.13,1.13,0,0,0,.06-2.26Z" transform="translate(0 0)"/><path class="cls-1" d="M834.46,11.43a7.93,7.93,0,0,0-7.85,7.84V30.61a7.94,7.94,0,0,0,15.87,0V19.27A7.93,7.93,0,0,0,834.46,11.43Zm5.75,19.18a5.67,5.67,0,1,1-11.33,0V19.27a5.67,5.67,0,1,1,11.33,0Z" transform="translate(0 0)"/><path class="cls-1" d="M864,6.8a1.14,1.14,0,0,0-1.14,1.13h0A1.14,1.14,0,1,0,864,6.8Z" transform="translate(0 0)"/><path class="cls-1" d="M855,15.87a3.4,3.4,0,1,0,3.4,3.4A3.4,3.4,0,0,0,855,15.87Z" transform="translate(0 0)"/><path class="cls-1" d="M834.54,27.21a3.4,3.4,0,1,0,3.4,3.4A3.4,3.4,0,0,0,834.54,27.21Z" transform="translate(0 0)"/><path class="cls-1" d="M862.89,19.27a7.94,7.94,0,0,0-15.87,0V30.61A7.93,7.93,0,0,0,855,38.54h0a7.94,7.94,0,0,0,7.94-7.93Zm-2.27,11.34a5.67,5.67,0,1,1-11.33,0V19.27a5.67,5.67,0,1,1,11.33,0Z" transform="translate(0 0)"/><path class="cls-1" d="M864,40.81a1.14,1.14,0,1,0,1.14,1.13A1.13,1.13,0,0,0,864,40.81Z" transform="translate(0 0)"/><path class="cls-1" d="M825.47,9.07h0a1.14,1.14,0,1,0-1.14-1.13A1.14,1.14,0,0,0,825.48,9.07Z" transform="translate(0 0)"/><path class="cls-1" d="M825.48,40.81a1.14,1.14,0,1,0,0,2.27h0a1.14,1.14,0,0,0,0-2.27Z" transform="translate(0 0)"/><path class="cls-1" d="M822.08,47.61h45.34a2.27,2.27,0,0,0,2.27-2.27V4.53a2.27,2.27,0,0,0-2.27-2.26H822.08a2.27,2.27,0,0,0-2.27,2.27v40.8A2.26,2.26,0,0,0,822.08,47.61Zm0-43.08h45.34V45.34H822.08Z" transform="translate(0 0)"/><path class="cls-1" d="M554.94,34h-3.4V6.81h36.28v3.4a1.13,1.13,0,1,0,2.26.06V6.81a2.26,2.26,0,0,0-2.26-2.27H551.54a2.27,2.27,0,0,0-2.27,2.27V34a2.27,2.27,0,0,0,2.27,2.26h3.4a1.13,1.13,0,0,0,0-2.26Z" transform="translate(0 0)"/><path class="cls-1" d="M582.08,22.67h4.6a1.13,1.13,0,0,0,1.17-1.1,1.14,1.14,0,0,0-1.1-1.17h-4.6A1.14,1.14,0,0,0,581,21.5,1.13,1.13,0,0,0,582.08,22.67Z" transform="translate(0 0)"/><path class="cls-1" d="M566.21,22.67h9.14a1.14,1.14,0,0,0,.06-2.27h-9.13a1.14,1.14,0,0,0-1.17,1.1A1.13,1.13,0,0,0,566.21,22.67Z" transform="translate(0 0)"/><path class="cls-1" d="M582.08,27.21h9.14a1.15,1.15,0,0,0,1.1-1.17,1.14,1.14,0,0,0-1.1-1.1h-9.07a1.14,1.14,0,1,0-.07,2.27Z" transform="translate(0 0)"/><path class="cls-1" d="M566.21,27.21h4.6a1.14,1.14,0,0,0,.07-2.27h-4.6a1.14,1.14,0,1,0-.07,2.27Z" transform="translate(0 0)"/><path class="cls-1" d="M586.68,29.47h-4.53a1.14,1.14,0,1,0,0,2.27h4.53a1.14,1.14,0,0,0,0-2.27Z" transform="translate(0 0)"/><path class="cls-1" d="M596.88,13.6H560.61a2.27,2.27,0,0,0-2.27,2.26V43.08a2.27,2.27,0,0,0,2.27,2.26h36.27a2.26,2.26,0,0,0,2.27-2.26V15.87A2.27,2.27,0,0,0,596.88,13.6Zm0,29.48h-9.06V40.81H589a1.14,1.14,0,0,0,.06-2.27h-4.6a1.13,1.13,0,0,0-1.17,1.1,1.14,1.14,0,0,0,1.1,1.17h1.21v2.26H572V40.81h1.13a1.14,1.14,0,0,0,.07-2.27h-4.6a1.14,1.14,0,0,0,0,2.27h1.13v2.26h-9.07V15.87h36.28Z" transform="translate(0 0)"/><path class="cls-1" d="M575.35,29.47h-9.07a1.14,1.14,0,1,0,0,2.27h9.07a1.14,1.14,0,0,0,0-2.27Z" transform="translate(0 0)"/><path class="cls-1" d="M7.3,90.87A.37.37,0,0,0,7,91a4.62,4.62,0,0,1-1.3,1.11,3.06,3.06,0,0,1-1.51.36,3.34,3.34,0,0,1-2.47-1.08A3.51,3.51,0,0,1,.65,88.87V87.72a3.24,3.24,0,0,1,.22-1.24,5,5,0,0,1,.82-1.35,2.34,2.34,0,0,1,.8-.6,3.12,3.12,0,0,1,1.43-.33A3.3,3.3,0,0,1,6,84.9a1.59,1.59,0,0,1,.71,1.16.51.51,0,0,0,.11.31.33.33,0,0,0,.46,0A.52.52,0,0,0,7.36,86V84.2a.52.52,0,0,0-.09-.34h0a.33.33,0,0,0-.47,0,.52.52,0,0,0-.09.34v.46h0a3.9,3.9,0,0,0-2.8-1.11,3.85,3.85,0,0,0-2,.54A3.88,3.88,0,0,0,.52,85.65a4.3,4.3,0,0,0-.52,2V89a3.75,3.75,0,0,0,.2,1.24,4.31,4.31,0,0,0,.73,1.24,6.24,6.24,0,0,0,.9,1,3.77,3.77,0,0,0,.93.49,4.29,4.29,0,0,0,1.45.28,3.92,3.92,0,0,0,1.62-.37,4.18,4.18,0,0,0,1.45-1.08,1.07,1.07,0,0,0,.33-.55A.3.3,0,0,0,7.53,91,.29.29,0,0,0,7.3,90.87Z" transform="translate(0 0)"/><path class="cls-1" d="M16.34,92.25H13.76V83.09H11.21a.53.53,0,0,0-.35.1.33.33,0,0,0-.1.23.32.32,0,0,0,.11.24.47.47,0,0,0,.34.1H13.1v8.49H10.52a.52.52,0,0,0-.34.09h0a.34.34,0,0,0,0,.47.52.52,0,0,0,.34.09h5.82a.52.52,0,0,0,.34-.09h0a.34.34,0,0,0,0-.47A.52.52,0,0,0,16.34,92.25Z" transform="translate(0 0)"/><polygon class="cls-1" points="26.71 89.55 26.71 89.54 26.71 89.54 26.71 89.55"/><path class="cls-1" d="M20.43,87l0,0a3.61,3.61,0,0,0,0,5.09,3.69,3.69,0,0,0,5.2,0,3.47,3.47,0,0,0,1.08-2.56A3.51,3.51,0,0,0,25.63,87,3.71,3.71,0,0,0,20.43,87Zm4.73,4.68a3,3,0,0,1-4.26,0l0-.05a2.93,2.93,0,0,1,0-4.15,3,3,0,0,1,4.26,0,2.77,2.77,0,0,1,.88,2.1A2.8,2.8,0,0,1,25.16,91.65Z" transform="translate(0 0)"/><path class="cls-1" d="M36.11,92.25h-.56V86.14H33.69a.46.46,0,0,0-.34.09.29.29,0,0,0-.1.23.31.31,0,0,0,.1.24.47.47,0,0,0,.34.1H34.9V91A4,4,0,0,1,32,92.51a1.37,1.37,0,0,1-1-.42,1.46,1.46,0,0,1-.41-1v-4.9H29a.47.47,0,0,0-.33.09.34.34,0,0,0,0,.48.47.47,0,0,0,.33.09h.89V91a2.22,2.22,0,0,0,.65,1.6,2,2,0,0,0,1.46.53A4.29,4.29,0,0,0,34.9,92v1h1.21a.47.47,0,0,0,.34-.1h0a.33.33,0,0,0,0-.46A.52.52,0,0,0,36.11,92.25Z" transform="translate(0 0)"/><path class="cls-1" d="M46.36,92.25h-.88V83.09H43.94a.52.52,0,0,0-.34.09.31.31,0,0,0-.1.24.28.28,0,0,0,.1.24.46.46,0,0,0,.34.09h.87v3.71a3.51,3.51,0,0,0-2.89-1.57,3.38,3.38,0,0,0-1.72.48,3.49,3.49,0,0,0-1.29,1.35,3.7,3.7,0,0,0,0,3.62,3.42,3.42,0,0,0,5.9.25v1.31h1.55a.52.52,0,0,0,.34-.09h0a.33.33,0,0,0,0-.47A.52.52,0,0,0,46.36,92.25Zm-1.54-2.71A2.92,2.92,0,0,1,44,91.65l-.1.1a2.79,2.79,0,0,1-3.93-.1,3.07,3.07,0,0,1,0-4.22l.09-.09a2.79,2.79,0,0,1,3.94.09,2.92,2.92,0,0,1,.85,2.11Z" transform="translate(0 0)"/><path class="cls-1" d="M65.26,83.76H62.84a.52.52,0,0,0-.34.09.34.34,0,0,0,0,.48.49.49,0,0,0,.33.09H64V92l-4.84-8.2H57.48a.52.52,0,0,0-.34.09h0a.35.35,0,0,0,0,.48.58.58,0,0,0,.34.09h.88v7.83h-.55a.52.52,0,0,0-.34.09h0a.32.32,0,0,0,0,.46.46.46,0,0,0,.34.09h2.42a.46.46,0,0,0,.34-.09h0a.32.32,0,0,0,0-.46.52.52,0,0,0-.34-.09H59V84.72l4.84,8.19h.84V84.42h.55a.58.58,0,0,0,.34-.09h0a.33.33,0,0,0,0-.47A.52.52,0,0,0,65.26,83.76Z" transform="translate(0 0)"/><path class="cls-1" d="M74.53,92.25h-.87V87.9a1.82,1.82,0,0,0-.7-1.39A2.84,2.84,0,0,0,71,85.89a8.25,8.25,0,0,0-1.85.33,3,3,0,0,0-.88.32.29.29,0,0,0-.08.21.34.34,0,0,0,.09.24.27.27,0,0,0,.21.09,1.32,1.32,0,0,0,.33-.08A7.48,7.48,0,0,1,71,86.56a2.37,2.37,0,0,1,1.5.4,1.19,1.19,0,0,1,.5.94V89c-.42-.08-.8-.14-1.15-.18a8.22,8.22,0,0,0-1-.06,4,4,0,0,0-2.56.71,2.08,2.08,0,0,0-.87,1.67,1.86,1.86,0,0,0,.66,1.46,2.65,2.65,0,0,0,1.85.6A4.6,4.6,0,0,0,73,92v1h1.55a.53.53,0,0,0,.35-.09h0a.33.33,0,0,0,0-.46A.49.49,0,0,0,74.53,92.25ZM73,91.08a5.73,5.73,0,0,1-1.5,1.08,3.63,3.63,0,0,1-1.58.34,2,2,0,0,1-1.36-.41,1.28,1.28,0,0,1-.47-1A1.34,1.34,0,0,1,68.68,90a3.58,3.58,0,0,1,2.24-.62,10,10,0,0,1,1.09.06,6.18,6.18,0,0,1,1,.2Z" transform="translate(0 0)"/><path class="cls-1" d="M84.05,91.76a.52.52,0,0,0-.26.1,5,5,0,0,1-1.19.45,5.88,5.88,0,0,1-1.44.2,2.09,2.09,0,0,1-1.35-.38,1.19,1.19,0,0,1-.45-1V86.8h3.56a.52.52,0,0,0,.34-.09.34.34,0,0,0,0-.48.52.52,0,0,0-.34-.09H79.36V84.2a.52.52,0,0,0-.09-.34.39.39,0,0,0-.25-.1.33.33,0,0,0-.23.1.52.52,0,0,0-.1.34v1.94H77.48a.47.47,0,0,0-.33.09.34.34,0,0,0,0,.48.43.43,0,0,0,.33.09h1.21v4.38a1.76,1.76,0,0,0,.68,1.45,2.86,2.86,0,0,0,1.83.54,6.12,6.12,0,0,0,1.85-.3,3.3,3.3,0,0,0,1.22-.56.28.28,0,0,0,.09-.22.29.29,0,0,0-.09-.23A.29.29,0,0,0,84.05,91.76Z" transform="translate(0 0)"/><path class="cls-1" d="M93.25,92.25H90.67V86.14H88.1a.5.5,0,0,0-.34.09.34.34,0,0,0,0,.48.49.49,0,0,0,.34.09H90v5.45H87.43a.52.52,0,0,0-.34.09h0a.34.34,0,0,0,0,.47.52.52,0,0,0,.34.09h5.82a.52.52,0,0,0,.34-.09h0a.33.33,0,0,0,0-.47A.52.52,0,0,0,93.25,92.25Z" transform="translate(0 0)"/><rect class="cls-1" x="89.68" y="82.76" width="0.97" height="1.7"/><path class="cls-1" d="M103.83,86.14h-2.47a.47.47,0,0,0-.33.09.31.31,0,0,0-.11.23.34.34,0,0,0,.11.25.47.47,0,0,0,.33.09h1.1l-2.36,5.45h-.29L97.4,86.8h1.09a.47.47,0,0,0,.33-.09.34.34,0,0,0,0-.48.47.47,0,0,0-.33-.09H96a.47.47,0,0,0-.33.09.3.3,0,0,0-.1.23.3.3,0,0,0,.1.25.47.47,0,0,0,.33.09h.68l2.7,6.11h1.11l2.66-6.11h.66a.5.5,0,0,0,.34-.09.31.31,0,0,0,.1-.24.28.28,0,0,0-.1-.24A.45.45,0,0,0,103.83,86.14Z" transform="translate(0 0)"/><path class="cls-1" d="M112.8,91.51a.45.45,0,0,0-.26.12,4,4,0,0,1-1.31.64,5.75,5.75,0,0,1-1.54.24,3.23,3.23,0,0,1-2.22-.78,3.2,3.2,0,0,1-1.07-2h6.7a3.62,3.62,0,0,0-1-2.72,3.55,3.55,0,0,0-2.65-1.06,3.66,3.66,0,0,0-2.62,1,3.27,3.27,0,0,0-1.06,2.46,3.55,3.55,0,0,0,1.13,2.67,3.86,3.86,0,0,0,2.82,1.11,5.79,5.79,0,0,0,2-.34A3.48,3.48,0,0,0,113,92.1a.37.37,0,0,0,.12-.26.28.28,0,0,0-.09-.23A.29.29,0,0,0,112.8,91.51Zm-5.36-4.27a3.26,3.26,0,0,1,4,0,2.86,2.86,0,0,1,1,1.77h-6A2.93,2.93,0,0,1,107.44,87.24Z" transform="translate(0 0)"/><polygon class="cls-1" points="113.11 89.68 113.1 89.68 113.1 89.68 113.11 89.68"/><path class="cls-1" d="M215.29,88.08a2.15,2.15,0,0,0,.52-3.61,2.83,2.83,0,0,0-2-.71h-4.13a.52.52,0,0,0-.34.09h0a.34.34,0,0,0,0,.47.52.52,0,0,0,.34.09h.88v7.83h-.88a.49.49,0,0,0-.33.09h0a.33.33,0,0,0,0,.46.48.48,0,0,0,.33.1h4.92a2.69,2.69,0,0,0,1.4-.39,2.62,2.62,0,0,0,.95-.92,2.42,2.42,0,0,0,.32-1.2,2.14,2.14,0,0,0-.48-1.35A3.18,3.18,0,0,0,215.29,88.08Zm-4.06-3.66h2.6a2.15,2.15,0,0,1,1.51.52,1.52,1.52,0,0,1,.58,1.13,1.59,1.59,0,0,1-.27.85,1.68,1.68,0,0,1-.74.63,3.38,3.38,0,0,1-1.36.28h-2.33Zm5.13,6.85a2.07,2.07,0,0,1-.71.7,2.15,2.15,0,0,1-1.1.28h-3.33V88.49h2.36a4.73,4.73,0,0,1,1.71.24,2.18,2.18,0,0,1,1,.71,1.58,1.58,0,0,1,.11,1.83Z" transform="translate(0 0)"/><path class="cls-1" d="M226.44,92.25h-.55V86.14H224a.46.46,0,0,0-.34.09.29.29,0,0,0-.1.23.31.31,0,0,0,.1.24.47.47,0,0,0,.34.1h1.21V91a4,4,0,0,1-2.94,1.47,1.37,1.37,0,0,1-1-.42,1.46,1.46,0,0,1-.41-1v-4.9h-1.54a.47.47,0,0,0-.33.09.34.34,0,0,0,0,.48.47.47,0,0,0,.33.09h.89V91a2.22,2.22,0,0,0,.65,1.6,2,2,0,0,0,1.46.53A4.29,4.29,0,0,0,225.23,92v1h1.21a.47.47,0,0,0,.34-.1h0a.33.33,0,0,0,0-.46A.52.52,0,0,0,226.44,92.25Z" transform="translate(0 0)"/><path class="cls-1" d="M234.27,89.22a9.34,9.34,0,0,0-1.9-.34,4.1,4.1,0,0,1-1.42-.34.89.89,0,0,1-.55-.78,1,1,0,0,1,.46-.75,3,3,0,0,1,1.72-.45,3.09,3.09,0,0,1,1.7.44,1,1,0,0,1,.48.78.43.43,0,0,0,.11.28.27.27,0,0,0,.22.08.3.3,0,0,0,.24-.09.52.52,0,0,0,.1-.34V86.58a.52.52,0,0,0-.1-.34.31.31,0,0,0-.24-.1.29.29,0,0,0-.23.1.48.48,0,0,0-.1.33h0a3.49,3.49,0,0,0-2.21-.66,3.72,3.72,0,0,0-2,.5,1.51,1.51,0,0,0-.83,1.34,1.48,1.48,0,0,0,.3.88,1.72,1.72,0,0,0,.83.6,7.49,7.49,0,0,0,1.76.33,4.81,4.81,0,0,1,1.86.5,1.09,1.09,0,0,1,.64,1,1.31,1.31,0,0,1-.63,1,3.14,3.14,0,0,1-1.91.48,3.84,3.84,0,0,1-1.46-.25,1.82,1.82,0,0,1-.87-.62.91.91,0,0,1-.18-.6.4.4,0,0,0-.1-.26.33.33,0,0,0-.24-.1.28.28,0,0,0-.24.1.52.52,0,0,0-.09.34v1.35a.52.52,0,0,0,.09.34.35.35,0,0,0,.24.1.3.3,0,0,0,.18-.06.28.28,0,0,0,.11-.13,1.32,1.32,0,0,0,0-.34,4,4,0,0,0,2.55.79,3.69,3.69,0,0,0,2.36-.66,1.88,1.88,0,0,0,.8-1.49,1.68,1.68,0,0,0-.37-1A2.43,2.43,0,0,0,234.27,89.22Z" transform="translate(0 0)"/><rect class="cls-1" x="241.56" y="82.76" width="0.97" height="1.7"/><path class="cls-1" d="M245.13,92.25h-2.58V86.14H240a.52.52,0,0,0-.34.09.34.34,0,0,0,0,.48.52.52,0,0,0,.34.09h1.92v5.45h-2.59a.49.49,0,0,0-.33.09h0a.33.33,0,0,0,0,.47.47.47,0,0,0,.33.09h5.82a.53.53,0,0,0,.35-.09h0a.33.33,0,0,0,0-.47A.54.54,0,0,0,245.13,92.25Z" transform="translate(0 0)"/><path class="cls-1" d="M255.26,92.25h-.55V88.11a2,2,0,0,0-.36-1.11,2.36,2.36,0,0,0-.79-.78,2.87,2.87,0,0,0-1.37-.32,2.71,2.71,0,0,0-1.25.27,4.68,4.68,0,0,0-1.25,1v-1h-1.21a.46.46,0,0,0-.34.09.34.34,0,0,0-.1.23.37.37,0,0,0,.1.25.52.52,0,0,0,.34.09H249v5.45h-.75a.47.47,0,0,0-.33.09h0a.32.32,0,0,0,0,.46.44.44,0,0,0,.33.1h2.15a.44.44,0,0,0,.33-.1h0a.33.33,0,0,0,0-.46.49.49,0,0,0-.33-.09h-.75V88.13a6.44,6.44,0,0,1,1.36-1.3,2.34,2.34,0,0,1,1.13-.26,1.84,1.84,0,0,1,1.36.48,1.55,1.55,0,0,1,.51,1.17v4h-.55a.52.52,0,0,0-.34.09l0,0a.32.32,0,0,0,0,.45.47.47,0,0,0,.34.1h1.76a.47.47,0,0,0,.34-.1h0a.33.33,0,0,0,0-.46A.52.52,0,0,0,255.26,92.25Z" transform="translate(0 0)"/><polygon class="cls-1" points="264.98 89.68 264.98 89.68 264.98 89.68 264.98 89.68"/><path class="cls-1" d="M264.68,91.51a.42.42,0,0,0-.25.12,4,4,0,0,1-1.32.64,5.75,5.75,0,0,1-1.54.24,3.23,3.23,0,0,1-2.22-.78,3.14,3.14,0,0,1-1.06-2H265A3.65,3.65,0,0,0,264,87a3.57,3.57,0,0,0-2.65-1.06,3.67,3.67,0,0,0-2.63,1,3.3,3.3,0,0,0-1.06,2.46,3.63,3.63,0,0,0,1.13,2.67,3.86,3.86,0,0,0,2.82,1.11,5.75,5.75,0,0,0,2-.34,3.4,3.4,0,0,0,1.33-.73.38.38,0,0,0,.13-.26.29.29,0,0,0-.1-.23A.29.29,0,0,0,264.68,91.51Zm-5.35-4.27a3.24,3.24,0,0,1,4,0,2.88,2.88,0,0,1,1,1.77h-6A2.94,2.94,0,0,1,259.33,87.24Z" transform="translate(0 0)"/><path class="cls-1" d="M272.72,89.22a9.47,9.47,0,0,0-1.9-.34,4.1,4.1,0,0,1-1.42-.34.89.89,0,0,1-.55-.78.94.94,0,0,1,.46-.75,3,3,0,0,1,1.71-.45,3.07,3.07,0,0,1,1.7.44,1.05,1.05,0,0,1,.49.78.43.43,0,0,0,.11.28.25.25,0,0,0,.22.08.3.3,0,0,0,.24-.09.46.46,0,0,0,.09-.34V86.58a.46.46,0,0,0-.09-.34.34.34,0,0,0-.48,0,.47.47,0,0,0-.09.33h0A3.49,3.49,0,0,0,271,85.9a3.72,3.72,0,0,0-2,.5,1.48,1.48,0,0,0-.53,2.22,1.72,1.72,0,0,0,.83.6,7.49,7.49,0,0,0,1.76.33,4.81,4.81,0,0,1,1.86.5,1.09,1.09,0,0,1,.64,1,1.31,1.31,0,0,1-.63,1,3.14,3.14,0,0,1-1.91.48,3.81,3.81,0,0,1-1.46-.25,1.9,1.9,0,0,1-.88-.62,1,1,0,0,1-.17-.6.4.4,0,0,0-.1-.26.33.33,0,0,0-.24-.1.28.28,0,0,0-.24.1.52.52,0,0,0-.09.34v1.35a.52.52,0,0,0,.09.34.35.35,0,0,0,.24.1.3.3,0,0,0,.18-.06.28.28,0,0,0,.11-.13,1,1,0,0,0,0-.34,4,4,0,0,0,2.55.79,3.7,3.7,0,0,0,2.37-.66,1.9,1.9,0,0,0,.8-1.49,1.68,1.68,0,0,0-.37-1A2.43,2.43,0,0,0,272.72,89.22Z" transform="translate(0 0)"/><path class="cls-1" d="M282.33,89.22a9.34,9.34,0,0,0-1.9-.34,4.1,4.1,0,0,1-1.42-.34.89.89,0,0,1-.55-.78.94.94,0,0,1,.46-.75,3,3,0,0,1,1.72-.45,3.09,3.09,0,0,1,1.7.44,1,1,0,0,1,.48.78.43.43,0,0,0,.11.28.27.27,0,0,0,.22.08.3.3,0,0,0,.24-.09.52.52,0,0,0,.1-.34V86.58a.52.52,0,0,0-.1-.34.34.34,0,0,0-.48,0,.47.47,0,0,0-.09.33h0a3.49,3.49,0,0,0-2.21-.66,3.7,3.7,0,0,0-2,.5,1.48,1.48,0,0,0-.53,2.22,1.72,1.72,0,0,0,.83.6,7.51,7.51,0,0,0,1.75.33,4.86,4.86,0,0,1,1.87.5,1.07,1.07,0,0,1,.63,1,1.27,1.27,0,0,1-.62,1,3.14,3.14,0,0,1-1.91.48,3.89,3.89,0,0,1-1.47-.25,1.92,1.92,0,0,1-.87-.62,1,1,0,0,1-.18-.6.32.32,0,0,0-.1-.26.31.31,0,0,0-.24-.1.26.26,0,0,0-.23.1.46.46,0,0,0-.09.34v1.35a.46.46,0,0,0,.09.34.33.33,0,0,0,.23.1.33.33,0,0,0,.19-.06.28.28,0,0,0,.11-.13,1,1,0,0,0,0-.34,4,4,0,0,0,2.55.79,3.74,3.74,0,0,0,2.36-.66,1.85,1.85,0,0,0,.8-1.49,1.68,1.68,0,0,0-.37-1A2.35,2.35,0,0,0,282.33,89.22Z" transform="translate(0 0)"/><path class="cls-1" d="M303.34,90a.32.32,0,0,0-.46,0,.46.46,0,0,0-.09.34v1.93h-5.06V88.49h2.36v.75a.43.43,0,0,0,.09.33.28.28,0,0,0,.24.1.31.31,0,0,0,.24-.1.47.47,0,0,0,.09-.33V87.09a.47.47,0,0,0-.09-.33.34.34,0,0,0-.48,0,.43.43,0,0,0-.09.33v.75h-2.36V84.42h4.71V86a.47.47,0,0,0,.09.33h0a.32.32,0,0,0,.47,0,.47.47,0,0,0,.09-.33V83.76h-6.91a.47.47,0,0,0-.33.09h0a.33.33,0,0,0,0,.47.47.47,0,0,0,.33.09h.89v7.84h-.89a.47.47,0,0,0-.33.09h0a.33.33,0,0,0,0,.46.48.48,0,0,0,.33.1h7.25v-2.6a.52.52,0,0,0-.09-.34Z" transform="translate(0 0)"/><path class="cls-1" d="M311.17,89.22a9.47,9.47,0,0,0-1.9-.34,4.1,4.1,0,0,1-1.42-.34.89.89,0,0,1-.55-.78.94.94,0,0,1,.46-.75,3,3,0,0,1,1.71-.45,3.07,3.07,0,0,1,1.7.44,1.08,1.08,0,0,1,.49.78.42.42,0,0,0,.1.28.27.27,0,0,0,.23.08.3.3,0,0,0,.24-.09.52.52,0,0,0,.09-.34V86.58a.52.52,0,0,0-.09-.34.34.34,0,0,0-.48,0,.47.47,0,0,0-.09.33h0a3.49,3.49,0,0,0-2.21-.66,3.7,3.7,0,0,0-2,.5,1.48,1.48,0,0,0-.53,2.22,1.72,1.72,0,0,0,.83.6,7.49,7.49,0,0,0,1.76.33,4.86,4.86,0,0,1,1.86.5,1.07,1.07,0,0,1,.63,1,1.27,1.27,0,0,1-.62,1,3.14,3.14,0,0,1-1.91.48,3.89,3.89,0,0,1-1.47-.25,1.92,1.92,0,0,1-.87-.62A1,1,0,0,1,307,91a.32.32,0,0,0-.1-.26.31.31,0,0,0-.24-.1.26.26,0,0,0-.23.1.46.46,0,0,0-.09.34v1.35a.46.46,0,0,0,.09.34.34.34,0,0,0,.23.1.33.33,0,0,0,.19-.06.28.28,0,0,0,.11-.13,1,1,0,0,0,0-.34,4,4,0,0,0,2.55.79,3.68,3.68,0,0,0,2.36-.66,1.89,1.89,0,0,0,.81-1.49,1.68,1.68,0,0,0-.37-1A2.48,2.48,0,0,0,311.17,89.22Z" transform="translate(0 0)"/><path class="cls-1" d="M320.78,89.22a9.47,9.47,0,0,0-1.9-.34,4.1,4.1,0,0,1-1.42-.34.89.89,0,0,1-.55-.78.94.94,0,0,1,.46-.75,3,3,0,0,1,1.71-.45,3.07,3.07,0,0,1,1.7.44,1.05,1.05,0,0,1,.49.78.43.43,0,0,0,.11.28.24.24,0,0,0,.22.08.3.3,0,0,0,.24-.09.46.46,0,0,0,.09-.34V86.58a.46.46,0,0,0-.09-.34.34.34,0,0,0-.48,0,.46.46,0,0,0-.09.32,3.49,3.49,0,0,0-2.21-.66,3.72,3.72,0,0,0-2,.5,1.48,1.48,0,0,0-.53,2.22,1.72,1.72,0,0,0,.83.6,7.49,7.49,0,0,0,1.76.33,4.86,4.86,0,0,1,1.86.5,1.07,1.07,0,0,1,.63,1,1.27,1.27,0,0,1-.62,1,3.14,3.14,0,0,1-1.91.48,3.81,3.81,0,0,1-1.46-.25,1.9,1.9,0,0,1-.88-.62,1,1,0,0,1-.18-.6.32.32,0,0,0-.1-.26.31.31,0,0,0-.24-.1.26.26,0,0,0-.23.1.46.46,0,0,0-.09.34v1.35a.46.46,0,0,0,.09.34.33.33,0,0,0,.23.1.33.33,0,0,0,.19-.06.28.28,0,0,0,.11-.13,1,1,0,0,0,0-.34,4,4,0,0,0,2.55.79,3.74,3.74,0,0,0,2.36-.66,1.88,1.88,0,0,0,.8-1.49,1.68,1.68,0,0,0-.37-1A2.35,2.35,0,0,0,320.78,89.22Z" transform="translate(0 0)"/><path class="cls-1" d="M332,91.51a.42.42,0,0,0-.26.12,4,4,0,0,1-1.31.64,5.75,5.75,0,0,1-1.54.24,3.23,3.23,0,0,1-2.22-.78,3.2,3.2,0,0,1-1.07-2h6.69a3.65,3.65,0,0,0-1-2.72,3.57,3.57,0,0,0-2.65-1.06,3.65,3.65,0,0,0-2.62,1,3.27,3.27,0,0,0-1.06,2.46A3.55,3.55,0,0,0,326,92.06a3.84,3.84,0,0,0,2.82,1.11,5.69,5.69,0,0,0,2-.34,3.44,3.44,0,0,0,1.34-.73.37.37,0,0,0,.12-.26.32.32,0,0,0-.09-.23A.32.32,0,0,0,332,91.51Zm-5.36-4.27a3.24,3.24,0,0,1,4,0,2.83,2.83,0,0,1,1,1.77h-6A2.88,2.88,0,0,1,326.61,87.24Z" transform="translate(0 0)"/><polygon class="cls-1" points="332.27 89.68 332.26 89.68 332.26 89.68 332.27 89.68"/><path class="cls-1" d="M341.77,92.25h-.56V88.11a2,2,0,0,0-.35-1.11,2.3,2.3,0,0,0-.8-.78,2.81,2.81,0,0,0-1.36-.32,2.86,2.86,0,0,0-1.26.27,4.8,4.8,0,0,0-1.24,1v-1H335a.46.46,0,0,0-.34.09.34.34,0,0,0-.1.23.37.37,0,0,0,.1.25.52.52,0,0,0,.34.09h.56v5.45h-.75a.47.47,0,0,0-.33.09h0a.33.33,0,0,0,0,.46.44.44,0,0,0,.33.1H337a.46.46,0,0,0,.33-.1h0a.32.32,0,0,0,0-.46.5.5,0,0,0-.33-.09h-.75V88.13a6,6,0,0,1,1.36-1.3,2.34,2.34,0,0,1,1.13-.26,1.84,1.84,0,0,1,1.36.48,1.55,1.55,0,0,1,.51,1.17v4H340a.56.56,0,0,0-.35.09h0a.33.33,0,0,0,0,.46.5.5,0,0,0,.35.1h1.76a.44.44,0,0,0,.33-.1h0a.32.32,0,0,0,0-.46A.47.47,0,0,0,341.77,92.25Z" transform="translate(0 0)"/><path class="cls-1" d="M351.28,91.76a.46.46,0,0,0-.25.1,5.28,5.28,0,0,1-1.2.45,5.88,5.88,0,0,1-1.44.2,2.09,2.09,0,0,1-1.35-.38,1.19,1.19,0,0,1-.45-1V86.8h3.56a.52.52,0,0,0,.34-.09.34.34,0,0,0,0-.48.52.52,0,0,0-.34-.09h-3.56V84.2a.52.52,0,0,0-.09-.34.39.39,0,0,0-.25-.1.33.33,0,0,0-.23.1.52.52,0,0,0-.1.34v1.94h-1.21a.47.47,0,0,0-.33.09.34.34,0,0,0,0,.48.43.43,0,0,0,.33.09h1.21v4.38a1.76,1.76,0,0,0,.68,1.45,2.86,2.86,0,0,0,1.83.54,6.12,6.12,0,0,0,1.85-.3,3.19,3.19,0,0,0,1.21-.56.3.3,0,0,0,.11-.22.34.34,0,0,0-.1-.23A.29.29,0,0,0,351.28,91.76Z" transform="translate(0 0)"/><path class="cls-1" d="M360.48,92.25H357.9V86.14h-2.58a.52.52,0,0,0-.34.09.28.28,0,0,0-.1.24.31.31,0,0,0,.1.24.52.52,0,0,0,.34.09h1.92v5.45h-2.58a.52.52,0,0,0-.34.09h0a.34.34,0,0,0,0,.47.52.52,0,0,0,.34.09h5.82a.52.52,0,0,0,.34-.09h0a.33.33,0,0,0,0-.47A.52.52,0,0,0,360.48,92.25Z" transform="translate(0 0)"/><rect class="cls-1" x="356.9" y="82.76" width="0.97" height="1.7"/><path class="cls-1" d="M370.6,92.25h-.88V87.9a1.79,1.79,0,0,0-.7-1.39,2.84,2.84,0,0,0-1.94-.62,8.25,8.25,0,0,0-1.85.33,3,3,0,0,0-.88.32.34.34,0,0,0,0,.45.29.29,0,0,0,.22.09,1.25,1.25,0,0,0,.32-.08,7.48,7.48,0,0,1,2.15-.44,2.35,2.35,0,0,1,1.5.4,1.19,1.19,0,0,1,.5.94V89c-.41-.08-.8-.14-1.15-.18a8.22,8.22,0,0,0-1-.06,4,4,0,0,0-2.55.71,2.09,2.09,0,0,0-.88,1.67,1.89,1.89,0,0,0,.66,1.46,2.65,2.65,0,0,0,1.85.6,4.63,4.63,0,0,0,3.06-1.2v1h1.55a.46.46,0,0,0,.34-.09l0,0a.32.32,0,0,0,0-.45A.46.46,0,0,0,370.6,92.25Zm-1.55-1.17a5.78,5.78,0,0,1-1.51,1.08,3.63,3.63,0,0,1-1.58.34,2,2,0,0,1-1.36-.41,1.24,1.24,0,0,1-.46-1,1.32,1.32,0,0,1,.61-1.09,3.54,3.54,0,0,1,2.23-.62,9.82,9.82,0,0,1,1.09.06,6.55,6.55,0,0,1,1,.2Z" transform="translate(0 0)"/><path class="cls-1" d="M379.68,92.25H377.1V83.09h-2.55a.52.52,0,0,0-.34.1.26.26,0,0,0-.1.23.28.28,0,0,0,.1.24.47.47,0,0,0,.34.1h1.9v8.49h-2.58a.52.52,0,0,0-.34.09h0a.33.33,0,0,0,0,.47.52.52,0,0,0,.34.09h5.81a.53.53,0,0,0,.35-.09h0a.34.34,0,0,0,0-.47A.53.53,0,0,0,379.68,92.25Z" transform="translate(0 0)"/><path class="cls-1" d="M480.29,88.08a2.25,2.25,0,0,0,.8-.6,2.14,2.14,0,0,0-.28-3,2.82,2.82,0,0,0-2-.71h-4.13a.47.47,0,0,0-.33.09h0a.33.33,0,0,0,0,.47.47.47,0,0,0,.33.09h.89v7.83h-.88a.52.52,0,0,0-.34.09h0a.33.33,0,0,0,0,.46.52.52,0,0,0,.34.1h4.91a2.67,2.67,0,0,0,1.4-.39,2.73,2.73,0,0,0,1-.92,2.41,2.41,0,0,0,.31-1.2,2.14,2.14,0,0,0-.48-1.35A3.18,3.18,0,0,0,480.29,88.08Zm-4.06-3.66h2.6a2.15,2.15,0,0,1,1.51.52,1.52,1.52,0,0,1,.58,1.13,1.59,1.59,0,0,1-.27.85,1.68,1.68,0,0,1-.74.63,3.38,3.38,0,0,1-1.36.28h-2.33Zm5.13,6.85a2,2,0,0,1-.71.7,2.15,2.15,0,0,1-1.1.28h-3.33V88.49h2.36a4.73,4.73,0,0,1,1.71.24,2.13,2.13,0,0,1,1,.71,1.58,1.58,0,0,1,.11,1.83Z" transform="translate(0 0)"/><path class="cls-1" d="M491.44,92.25h-.56V86.14H489a.46.46,0,0,0-.34.09.29.29,0,0,0-.1.23.31.31,0,0,0,.1.24.47.47,0,0,0,.34.1h1.21V91a4,4,0,0,1-2.94,1.47,1.37,1.37,0,0,1-1-.42,1.46,1.46,0,0,1-.41-1v-4.9h-1.54a.47.47,0,0,0-.33.09.34.34,0,0,0,0,.48.47.47,0,0,0,.33.09h.89V91a2.22,2.22,0,0,0,.65,1.6,2,2,0,0,0,1.46.53A4.29,4.29,0,0,0,490.23,92v1h1.21a.47.47,0,0,0,.34-.1h0a.33.33,0,0,0,0-.46A.52.52,0,0,0,491.44,92.25Z" transform="translate(0 0)"/><path class="cls-1" d="M499.27,89.22a9.34,9.34,0,0,0-1.9-.34,4.1,4.1,0,0,1-1.42-.34.89.89,0,0,1-.55-.78,1,1,0,0,1,.47-.75,2.91,2.91,0,0,1,1.71-.45,3.09,3.09,0,0,1,1.7.44,1,1,0,0,1,.48.78.43.43,0,0,0,.11.28.27.27,0,0,0,.22.08.3.3,0,0,0,.24-.09.52.52,0,0,0,.1-.34V86.58a.47.47,0,0,0-.1-.34.31.31,0,0,0-.24-.1.29.29,0,0,0-.23.1.48.48,0,0,0-.1.33h0a3.49,3.49,0,0,0-2.21-.66,3.72,3.72,0,0,0-2,.5,1.53,1.53,0,0,0-.83,1.34,1.55,1.55,0,0,0,.3.88,1.72,1.72,0,0,0,.83.6,7.49,7.49,0,0,0,1.76.33,4.81,4.81,0,0,1,1.86.5,1.09,1.09,0,0,1,.64,1,1.31,1.31,0,0,1-.63,1,3.11,3.11,0,0,1-1.9.48,3.86,3.86,0,0,1-1.47-.25,1.87,1.87,0,0,1-.87-.62.91.91,0,0,1-.18-.6.35.35,0,0,0-.1-.26.33.33,0,0,0-.24-.1.28.28,0,0,0-.24.1.52.52,0,0,0-.09.34v1.35a.52.52,0,0,0,.09.34.35.35,0,0,0,.24.1.3.3,0,0,0,.18-.06.37.37,0,0,0,.12-.13,2,2,0,0,0,0-.34,4,4,0,0,0,2.55.79,3.69,3.69,0,0,0,2.36-.66,1.85,1.85,0,0,0,.8-1.49,1.68,1.68,0,0,0-.37-1A2.43,2.43,0,0,0,499.27,89.22Z" transform="translate(0 0)"/><rect class="cls-1" x="506.56" y="82.76" width="0.97" height="1.7"/><path class="cls-1" d="M510.13,92.25h-2.58V86.14H505a.52.52,0,0,0-.34.09.34.34,0,0,0,0,.48.52.52,0,0,0,.34.09h1.92v5.45h-2.59a.49.49,0,0,0-.33.09h0a.33.33,0,0,0,0,.47.47.47,0,0,0,.33.09h5.82a.53.53,0,0,0,.35-.09h0a.33.33,0,0,0,0-.47A.54.54,0,0,0,510.13,92.25Z" transform="translate(0 0)"/><path class="cls-1" d="M520.26,92.25h-.55V88.11a2,2,0,0,0-.36-1.11,2.36,2.36,0,0,0-.79-.78,2.87,2.87,0,0,0-1.37-.32,2.84,2.84,0,0,0-1.25.27,4.68,4.68,0,0,0-1.25,1v-1h-1.21a.46.46,0,0,0-.34.09.34.34,0,0,0-.1.23.37.37,0,0,0,.1.25.52.52,0,0,0,.34.09H514v5.45h-.74a.47.47,0,0,0-.33.09h0a.31.31,0,0,0,0,.46.44.44,0,0,0,.33.1h2.14a.47.47,0,0,0,.34-.1h0a.33.33,0,0,0,0-.46.52.52,0,0,0-.34-.09h-.74V88.13a6.21,6.21,0,0,1,1.36-1.3,2.34,2.34,0,0,1,1.13-.26,1.84,1.84,0,0,1,1.36.48,1.55,1.55,0,0,1,.51,1.17v4h-.55a.52.52,0,0,0-.34.09l0,0a.32.32,0,0,0,0,.45.47.47,0,0,0,.34.1h1.76a.47.47,0,0,0,.34-.1h0a.33.33,0,0,0,0-.46A.52.52,0,0,0,520.26,92.25Z" transform="translate(0 0)"/><path class="cls-1" d="M529.68,91.51a.42.42,0,0,0-.25.12,4,4,0,0,1-1.32.64,5.75,5.75,0,0,1-1.54.24,3.19,3.19,0,0,1-2.21-.78,3.11,3.11,0,0,1-1.07-2H530A3.65,3.65,0,0,0,529,87a3.57,3.57,0,0,0-2.65-1.06,3.67,3.67,0,0,0-2.63,1,3.3,3.3,0,0,0-1.06,2.46,3.63,3.63,0,0,0,1.13,2.67,3.86,3.86,0,0,0,2.82,1.11,5.75,5.75,0,0,0,2-.34,3.4,3.4,0,0,0,1.33-.73.38.38,0,0,0,.13-.26.33.33,0,0,0-.1-.23A.29.29,0,0,0,529.68,91.51Zm-5.35-4.27a3.24,3.24,0,0,1,4,0,2.88,2.88,0,0,1,1,1.77h-6A2.88,2.88,0,0,1,524.33,87.24Z" transform="translate(0 0)"/><polygon class="cls-1" points="529.98 89.68 529.98 89.68 529.98 89.68 529.98 89.68"/><path class="cls-1" d="M537.72,89.22a9.47,9.47,0,0,0-1.9-.34,4.1,4.1,0,0,1-1.42-.34.89.89,0,0,1-.55-.78.94.94,0,0,1,.46-.75,3,3,0,0,1,1.71-.45,3,3,0,0,1,1.7.44,1.05,1.05,0,0,1,.49.78.43.43,0,0,0,.11.28.27.27,0,0,0,.22.08.3.3,0,0,0,.24-.09.52.52,0,0,0,.1-.34V86.58a.52.52,0,0,0-.1-.34.34.34,0,0,0-.48,0,.47.47,0,0,0-.09.33h0A3.49,3.49,0,0,0,536,85.9a3.72,3.72,0,0,0-2,.5,1.48,1.48,0,0,0-.53,2.22,1.72,1.72,0,0,0,.83.6,7.49,7.49,0,0,0,1.76.33,4.81,4.81,0,0,1,1.86.5,1.09,1.09,0,0,1,.64,1,1.31,1.31,0,0,1-.63,1,3.14,3.14,0,0,1-1.91.48,3.81,3.81,0,0,1-1.46-.25,1.9,1.9,0,0,1-.88-.62,1,1,0,0,1-.18-.6.32.32,0,0,0-.1-.26.29.29,0,0,0-.23-.1.28.28,0,0,0-.24.1.52.52,0,0,0-.09.34v1.35a.52.52,0,0,0,.09.34.35.35,0,0,0,.24.1.3.3,0,0,0,.18-.06.28.28,0,0,0,.11-.13,1,1,0,0,0,0-.34,4,4,0,0,0,2.55.79,3.7,3.7,0,0,0,2.37-.66,1.9,1.9,0,0,0,.8-1.49,1.68,1.68,0,0,0-.37-1A2.43,2.43,0,0,0,537.72,89.22Z" transform="translate(0 0)"/><path class="cls-1" d="M547.33,89.22a9.34,9.34,0,0,0-1.9-.34,4.1,4.1,0,0,1-1.42-.34.89.89,0,0,1-.55-.78.94.94,0,0,1,.46-.75,3,3,0,0,1,1.72-.45,3.09,3.09,0,0,1,1.7.44,1,1,0,0,1,.48.78.43.43,0,0,0,.11.28.27.27,0,0,0,.22.08.3.3,0,0,0,.24-.09.52.52,0,0,0,.1-.34V86.58a.52.52,0,0,0-.1-.34.31.31,0,0,0-.24-.1.33.33,0,0,0-.24.1.47.47,0,0,0-.09.33h0a3.54,3.54,0,0,0-2.22-.66,3.72,3.72,0,0,0-2,.5,1.53,1.53,0,0,0-.83,1.34,1.55,1.55,0,0,0,.3.88,1.72,1.72,0,0,0,.83.6,7.49,7.49,0,0,0,1.76.33,4.91,4.91,0,0,1,1.87.5,1.08,1.08,0,0,1,.63,1,1.31,1.31,0,0,1-.63,1,3.11,3.11,0,0,1-1.9.48,3.86,3.86,0,0,1-1.47-.25,1.87,1.87,0,0,1-.87-.62.91.91,0,0,1-.18-.6.4.4,0,0,0-.1-.26.33.33,0,0,0-.24-.1.28.28,0,0,0-.24.1.52.52,0,0,0-.09.34v1.35a.52.52,0,0,0,.09.34.35.35,0,0,0,.24.1.3.3,0,0,0,.18-.06.37.37,0,0,0,.12-.13,2,2,0,0,0,0-.34,4,4,0,0,0,2.55.79,3.74,3.74,0,0,0,2.36-.66,1.88,1.88,0,0,0,.8-1.49,1.68,1.68,0,0,0-.37-1A2.35,2.35,0,0,0,547.33,89.22Z" transform="translate(0 0)"/><path class="cls-1" d="M567.46,84.42a.52.52,0,0,0,.34-.09h0a.34.34,0,0,0,0-.47.52.52,0,0,0-.34-.09H562.3a.52.52,0,0,0-.34.09h0a.34.34,0,0,0,0,.47.58.58,0,0,0,.34.09h2.25v7.83H562.3a.52.52,0,0,0-.34.09h0a.34.34,0,0,0,0,.47.52.52,0,0,0,.34.09h5.16a.52.52,0,0,0,.34-.09v0a.33.33,0,0,0,0-.46.52.52,0,0,0-.34-.09h-2.25V84.42Z" transform="translate(0 0)"/><path class="cls-1" d="M577.93,92.25h-.55V88.11A2,2,0,0,0,577,87a2.27,2.27,0,0,0-.79-.78,2.82,2.82,0,0,0-1.37-.32,2.71,2.71,0,0,0-1.25.27,4.49,4.49,0,0,0-1.24,1v-1h-1.22a.43.43,0,0,0-.33.09.27.27,0,0,0-.1.23.3.3,0,0,0,.1.25.47.47,0,0,0,.33.09h.56v5.45H571a.52.52,0,0,0-.34.09h0a.32.32,0,0,0,0,.46.46.46,0,0,0,.34.1h2.14a.47.47,0,0,0,.34-.1h0a.33.33,0,0,0,0-.46.52.52,0,0,0-.34-.09h-.74V88.13a6,6,0,0,1,1.36-1.3,2.28,2.28,0,0,1,1.12-.26,1.84,1.84,0,0,1,1.36.48,1.51,1.51,0,0,1,.51,1.17v4h-.54a.53.53,0,0,0-.35.09v0a.31.31,0,0,0,0,.45.48.48,0,0,0,.35.1h1.75a.47.47,0,0,0,.34-.1h0a.32.32,0,0,0,0-.46A.52.52,0,0,0,577.93,92.25Z" transform="translate(0 0)"/><path class="cls-1" d="M587.45,91.76a.46.46,0,0,0-.26.1,5.1,5.1,0,0,1-1.2.45,5.82,5.82,0,0,1-1.44.2,2.06,2.06,0,0,1-1.34-.38,1.23,1.23,0,0,1-.46-1V86.8h3.57a.47.47,0,0,0,.33-.09.31.31,0,0,0,.1-.24.28.28,0,0,0-.1-.24.47.47,0,0,0-.33-.09h-3.57V84.2a.47.47,0,0,0-.1-.34.35.35,0,0,0-.24-.1.33.33,0,0,0-.23.1.52.52,0,0,0-.1.34v1.94h-1.21a.47.47,0,0,0-.33.09.34.34,0,0,0,0,.48.43.43,0,0,0,.33.09h1.21v4.38a1.79,1.79,0,0,0,.68,1.45,2.86,2.86,0,0,0,1.83.54,6.07,6.07,0,0,0,1.85-.3,3.23,3.23,0,0,0,1.22-.56.29.29,0,0,0,.1-.22.33.33,0,0,0-.09-.23A.32.32,0,0,0,587.45,91.76Z" transform="translate(0 0)"/><path class="cls-1" d="M597,91.51a.42.42,0,0,0-.26.12,4.09,4.09,0,0,1-1.31.64,5.76,5.76,0,0,1-1.55.24,3.24,3.24,0,0,1-2.21-.78,3.2,3.2,0,0,1-1.07-2h6.7a3.7,3.7,0,0,0-1-2.72,3.57,3.57,0,0,0-2.65-1.06,3.65,3.65,0,0,0-2.62,1,3.27,3.27,0,0,0-1.06,2.46A3.58,3.58,0,0,0,591,92.06a3.88,3.88,0,0,0,2.82,1.11,5.71,5.71,0,0,0,2-.34,3.4,3.4,0,0,0,1.33-.73.35.35,0,0,0,.13-.26.32.32,0,0,0-.09-.23A.32.32,0,0,0,597,91.51Zm-5.36-4.27a3.23,3.23,0,0,1,4,0,2.83,2.83,0,0,1,1,1.77h-6A2.88,2.88,0,0,1,591.61,87.24Z" transform="translate(0 0)"/><polygon class="cls-1" points="597.27 89.68 597.27 89.68 597.27 89.68 597.27 89.68"/><path class="cls-1" d="M606.24,92.25h-2.58V83.09H601.1a.52.52,0,0,0-.34.1.26.26,0,0,0-.1.23.28.28,0,0,0,.1.24.47.47,0,0,0,.34.1H603v8.49h-2.58a.52.52,0,0,0-.34.09h0a.34.34,0,0,0,0,.47.52.52,0,0,0,.34.09h5.82a.52.52,0,0,0,.34-.09h0a.33.33,0,0,0,0-.47A.52.52,0,0,0,606.24,92.25Z" transform="translate(0 0)"/><path class="cls-1" d="M615.85,92.25h-2.58V83.09h-2.55a.55.55,0,0,0-.35.1.33.33,0,0,0-.1.23.35.35,0,0,0,.1.24.47.47,0,0,0,.34.1h1.9v8.49H610a.52.52,0,0,0-.34.09v0a.33.33,0,0,0,0,.46.52.52,0,0,0,.34.09h5.82a.52.52,0,0,0,.34-.09l0,0a.33.33,0,0,0,0-.46A.52.52,0,0,0,615.85,92.25Z" transform="translate(0 0)"/><path class="cls-1" d="M625.48,92.25H622.9V86.14h-2.58a.52.52,0,0,0-.34.09.28.28,0,0,0-.1.24.35.35,0,0,0,.1.24.52.52,0,0,0,.34.09h1.92v5.45h-2.58a.52.52,0,0,0-.34.09h0a.34.34,0,0,0,0,.47.52.52,0,0,0,.34.09h5.82a.52.52,0,0,0,.34-.09h0a.33.33,0,0,0,0-.47A.52.52,0,0,0,625.48,92.25Z" transform="translate(0 0)"/><rect class="cls-1" x="621.9" y="82.76" width="0.97" height="1.7"/><path class="cls-1" d="M635.91,86.14h-1.54v1.2h0a3.24,3.24,0,0,0-2.72-1.44,3.12,3.12,0,0,0-2.33,1,3.47,3.47,0,0,0,0,4.84,3.2,3.2,0,0,0,2.33,1,3.26,3.26,0,0,0,2.72-1.45v2a1.89,1.89,0,0,1-.17.84,2.2,2.2,0,0,1-.77.86,1.86,1.86,0,0,1-1,.3H630.5a.52.52,0,0,0-.34.09.34.34,0,0,0,0,.48.52.52,0,0,0,.34.09h1.86a2.4,2.4,0,0,0,1-.16,3.23,3.23,0,0,0,.8-.52,2.52,2.52,0,0,0,.63-.71,2.38,2.38,0,0,0,.28-1.17V86.81h.88a.52.52,0,0,0,.34-.1.29.29,0,0,0,.1-.23.31.31,0,0,0-.1-.24A.47.47,0,0,0,635.91,86.14Zm-2.33,5.14-.06.06a2.64,2.64,0,0,1-3.73-.06,2.8,2.8,0,0,1,0-3.91l0-.05a2.69,2.69,0,0,1,4.54,2A2.7,2.7,0,0,1,633.58,91.28Z" transform="translate(0 0)"/><polygon class="cls-1" points="645.33 89.68 645.33 89.68 645.33 89.68 645.33 89.68"/><path class="cls-1" d="M645,91.51a.42.42,0,0,0-.26.12,4,4,0,0,1-1.31.64,5.75,5.75,0,0,1-1.54.24,3.23,3.23,0,0,1-2.22-.78,3.2,3.2,0,0,1-1.07-2h6.7a3.66,3.66,0,0,0-1-2.72,3.57,3.57,0,0,0-2.65-1.06,3.65,3.65,0,0,0-2.62,1A3.27,3.27,0,0,0,638,89.39a3.55,3.55,0,0,0,1.13,2.67,3.84,3.84,0,0,0,2.82,1.11,5.69,5.69,0,0,0,2-.34,3.44,3.44,0,0,0,1.34-.73.37.37,0,0,0,.12-.26.32.32,0,0,0-.09-.23A.32.32,0,0,0,645,91.51Zm-5.36-4.27a3.24,3.24,0,0,1,4,0,2.83,2.83,0,0,1,1,1.77h-6A2.88,2.88,0,0,1,639.67,87.24Z" transform="translate(0 0)"/><path class="cls-1" d="M654.83,92.25h-.55V88.11a2,2,0,0,0-.36-1.11,2.36,2.36,0,0,0-.79-.78,2.87,2.87,0,0,0-1.37-.32,2.71,2.71,0,0,0-1.25.27,4.68,4.68,0,0,0-1.25,1v-1h-1.21a.46.46,0,0,0-.34.09.34.34,0,0,0-.1.23.37.37,0,0,0,.1.25.52.52,0,0,0,.34.09h.55v5.45h-.74a.52.52,0,0,0-.34.09h0a.32.32,0,0,0,0,.46.47.47,0,0,0,.34.1H650a.47.47,0,0,0,.34-.1h0a.32.32,0,0,0,0-.46.52.52,0,0,0-.34-.09h-.74V88.13a6,6,0,0,1,1.36-1.3,2.34,2.34,0,0,1,1.13-.26,1.84,1.84,0,0,1,1.36.48,1.55,1.55,0,0,1,.51,1.17v4h-.55a.52.52,0,0,0-.34.09l0,0a.32.32,0,0,0,0,.45.47.47,0,0,0,.34.1h1.76a.47.47,0,0,0,.34-.1h0a.33.33,0,0,0,0-.46A.52.52,0,0,0,654.83,92.25Z" transform="translate(0 0)"/><path class="cls-1" d="M664.48,91.17a.43.43,0,0,0-.29.15,3.83,3.83,0,0,1-1.44.91,4.62,4.62,0,0,1-1.56.28,3,3,0,0,1-2.17-.83,2.83,2.83,0,0,1-.83-2.1,3.18,3.18,0,0,1,.76-2.1,2.69,2.69,0,0,1,2.22-.91,3,3,0,0,1,1.84.5,1.53,1.53,0,0,1,.73,1.05.45.45,0,0,0,.1.3h0a.33.33,0,0,0,.46,0,.52.52,0,0,0,.1-.34V86.58a.52.52,0,0,0-.09-.34.28.28,0,0,0-.24-.1.31.31,0,0,0-.24.1.52.52,0,0,0-.09.34v.22h0a3.78,3.78,0,0,0-2.53-.9H661a3.58,3.58,0,0,0-3.46,3.69,3.48,3.48,0,0,0,1,2.57,3.56,3.56,0,0,0,2.61,1,5,5,0,0,0,2.84-.84c.52-.34.79-.63.79-.85a.29.29,0,0,0-.09-.22A.27.27,0,0,0,664.48,91.17Z" transform="translate(0 0)"/><path class="cls-1" d="M673.86,91.51a.42.42,0,0,0-.25.12,4,4,0,0,1-1.32.64,5.69,5.69,0,0,1-1.54.24,3.19,3.19,0,0,1-2.21-.78,3.11,3.11,0,0,1-1.07-2h6.69a3.65,3.65,0,0,0-1-2.72,3.57,3.57,0,0,0-2.65-1.06,3.67,3.67,0,0,0-2.63,1,3.3,3.3,0,0,0-1.06,2.46,3.63,3.63,0,0,0,1.13,2.67,3.86,3.86,0,0,0,2.82,1.11,5.75,5.75,0,0,0,2-.34,3.4,3.4,0,0,0,1.33-.73.38.38,0,0,0,.13-.26.29.29,0,0,0-.1-.23A.29.29,0,0,0,673.86,91.51Zm-5.35-4.27a3.24,3.24,0,0,1,4,0,2.88,2.88,0,0,1,1,1.77h-6A2.88,2.88,0,0,1,668.51,87.24Z" transform="translate(0 0)"/><polygon class="cls-1" points="674.16 89.68 674.16 89.68 674.16 89.68 674.16 89.68"/><path class="cls-1" d="M776.89,92.25h-.54V84.42h.4a.53.53,0,0,0,.35-.09v0a.32.32,0,0,0,0-.46.53.53,0,0,0-.35-.09h-1.61l-2.44,5.66-2.49-5.66H768.6a.52.52,0,0,0-.34.09h0a.34.34,0,0,0,0,.47.58.58,0,0,0,.34.09H769v7.83h-.55a.52.52,0,0,0-.34.09h0a.33.33,0,0,0,0,.47.52.52,0,0,0,.34.09h2.42a.52.52,0,0,0,.34-.09v0a.33.33,0,0,0,0-.46.52.52,0,0,0-.34-.09h-1.21V84.42h.12l2.53,5.75h.75l2.48-5.75h.14v7.83h-1.21a.52.52,0,0,0-.34.09l0,0a.33.33,0,0,0,0,.46.52.52,0,0,0,.34.09h2.41a.53.53,0,0,0,.35-.09v0a.32.32,0,0,0,0-.46A.53.53,0,0,0,776.89,92.25Z" transform="translate(0 0)"/><path class="cls-1" d="M785.68,92.25h-.87V87.9a1.82,1.82,0,0,0-.7-1.39,2.84,2.84,0,0,0-1.94-.62,8.25,8.25,0,0,0-1.85.33,3,3,0,0,0-.88.32.29.29,0,0,0-.08.21.34.34,0,0,0,.09.24.27.27,0,0,0,.21.09A1.32,1.32,0,0,0,780,87a7.48,7.48,0,0,1,2.15-.44,2.35,2.35,0,0,1,1.5.4,1.19,1.19,0,0,1,.5.94V89c-.41-.08-.8-.14-1.15-.18a8.22,8.22,0,0,0-1-.06,4,4,0,0,0-2.56.71,2.08,2.08,0,0,0-.87,1.67,1.86,1.86,0,0,0,.66,1.46,2.65,2.65,0,0,0,1.85.6,4.63,4.63,0,0,0,3.06-1.2v1h1.54a.53.53,0,0,0,.35-.09h0a.33.33,0,0,0,0-.46A.49.49,0,0,0,785.68,92.25Zm-1.54-1.17a5.78,5.78,0,0,1-1.51,1.08,3.63,3.63,0,0,1-1.58.34,2,2,0,0,1-1.36-.41,1.28,1.28,0,0,1-.47-1,1.34,1.34,0,0,1,.61-1.09,3.58,3.58,0,0,1,2.24-.62,10,10,0,0,1,1.09.06,6.55,6.55,0,0,1,1,.2Z" transform="translate(0 0)"/><path class="cls-1" d="M795.33,91.16a.45.45,0,0,0-.28.16,4.1,4.1,0,0,1-1.44.91,4.62,4.62,0,0,1-1.56.28,3,3,0,0,1-2.17-.83,2.83,2.83,0,0,1-.83-2.1,3.18,3.18,0,0,1,.76-2.1,2.69,2.69,0,0,1,2.22-.91,3,3,0,0,1,1.84.5,1.54,1.54,0,0,1,.73,1.05.41.41,0,0,0,.11.3.28.28,0,0,0,.22.09.29.29,0,0,0,.24-.1.59.59,0,0,0,.1-.34V86.58a.52.52,0,0,0-.1-.34.28.28,0,0,0-.24-.1.31.31,0,0,0-.24.1.52.52,0,0,0-.09.34v.22h0a3.68,3.68,0,0,0-2.53-.9h-.21a3.58,3.58,0,0,0-3.47,3.68,3.45,3.45,0,0,0,1,2.57,3.57,3.57,0,0,0,2.61,1,5,5,0,0,0,2.84-.84c.52-.35.79-.63.79-.85a.31.31,0,0,0-.32-.32Z" transform="translate(0 0)"/><path class="cls-1" d="M805.09,92.25h-.74V88.18A2.08,2.08,0,0,0,804,87a2.25,2.25,0,0,0-.9-.83,2.89,2.89,0,0,0-1.3-.27,3,3,0,0,0-1.28.28,4.13,4.13,0,0,0-1.2,1v-4h-1.54a.46.46,0,0,0-.34.09.34.34,0,0,0-.1.23.37.37,0,0,0,.1.25.52.52,0,0,0,.34.09h.88v8.49h-.74a.58.58,0,0,0-.34.09h0a.33.33,0,0,0,0,.47.52.52,0,0,0,.34.09h2.14a.52.52,0,0,0,.34-.09v0a.32.32,0,0,0,0-.46.52.52,0,0,0-.34-.09h-.74V88.09a9,9,0,0,1,1.21-1.18,2.17,2.17,0,0,1,1.23-.35,2,2,0,0,1,1.43.48,1.56,1.56,0,0,1,.51,1.19v4H803a.52.52,0,0,0-.34.09h0a.34.34,0,0,0,0,.47.52.52,0,0,0,.34.09h2.14a.52.52,0,0,0,.34-.09h0a.34.34,0,0,0,0-.48A.52.52,0,0,0,805.09,92.25Z" transform="translate(0 0)"/><rect class="cls-1" x="810.44" y="82.76" width="0.97" height="1.7"/><path class="cls-1" d="M814,92.25h-2.58V86.14h-2.57a.53.53,0,0,0-.35.09.35.35,0,0,0-.1.24.32.32,0,0,0,.11.24.52.52,0,0,0,.34.09h1.92v5.45h-2.59a.5.5,0,0,0-.33.09l0,0a.33.33,0,0,0,0,.46.49.49,0,0,0,.33.09H814a.53.53,0,0,0,.35-.09v0a.33.33,0,0,0,0-.46A.54.54,0,0,0,814,92.25Z" transform="translate(0 0)"/><path class="cls-1" d="M824.14,92.25h-.55V88.11a2,2,0,0,0-.36-1.11,2.36,2.36,0,0,0-.79-.78,2.87,2.87,0,0,0-1.37-.32,2.81,2.81,0,0,0-1.25.27,4.68,4.68,0,0,0-1.25,1v-1h-1.21a.43.43,0,0,0-.33.09.27.27,0,0,0-.1.23.3.3,0,0,0,.1.25.47.47,0,0,0,.33.09h.56v5.45h-.75a.47.47,0,0,0-.33.09h0a.33.33,0,0,0,0,.46.44.44,0,0,0,.33.1h2.15a.44.44,0,0,0,.33-.1h0a.32.32,0,0,0,0-.46.49.49,0,0,0-.33-.09h-.75V88.13a6.21,6.21,0,0,1,1.36-1.3,2.34,2.34,0,0,1,1.13-.26,1.84,1.84,0,0,1,1.36.48,1.55,1.55,0,0,1,.51,1.17v4h-.55a.52.52,0,0,0-.34.09h0a.32.32,0,0,0,0,.46.47.47,0,0,0,.34.1h1.76a.47.47,0,0,0,.34-.1h0a.33.33,0,0,0,0-.46A.52.52,0,0,0,824.14,92.25Z" transform="translate(0 0)"/><path class="cls-1" d="M833.57,91.51a.42.42,0,0,0-.26.12,4,4,0,0,1-1.32.64,5.69,5.69,0,0,1-1.54.24,3.19,3.19,0,0,1-2.21-.78,3.11,3.11,0,0,1-1.07-2h6.69a3.65,3.65,0,0,0-1-2.72,3.57,3.57,0,0,0-2.65-1.06,3.67,3.67,0,0,0-2.63,1,3.3,3.3,0,0,0-1.06,2.46,3.63,3.63,0,0,0,1.13,2.67,3.86,3.86,0,0,0,2.82,1.11,5.75,5.75,0,0,0,2-.34,3.4,3.4,0,0,0,1.33-.73.38.38,0,0,0,.13-.26.29.29,0,0,0-.1-.23A.28.28,0,0,0,833.57,91.51Zm-5.36-4.27a3.24,3.24,0,0,1,4,0,2.88,2.88,0,0,1,1,1.77h-6A2.88,2.88,0,0,1,828.21,87.24Z" transform="translate(0 0)"/><polygon class="cls-1" points="833.86 89.68 833.86 89.68 833.86 89.68 833.86 89.68"/><path class="cls-1" d="M852.45,92.25h-2.59V83.09h-2.54a.55.55,0,0,0-.35.1.33.33,0,0,0-.1.23.35.35,0,0,0,.1.24.47.47,0,0,0,.34.1h1.9v8.49h-2.58a.52.52,0,0,0-.34.09v0a.32.32,0,0,0,0,.46.52.52,0,0,0,.34.09h5.82a.52.52,0,0,0,.34-.09v0a.32.32,0,0,0,0-.46A.52.52,0,0,0,852.45,92.25Z" transform="translate(0 0)"/><path class="cls-1" d="M862.4,91.51a.42.42,0,0,0-.26.12,4,4,0,0,1-1.31.64,5.75,5.75,0,0,1-1.54.24,3.23,3.23,0,0,1-2.22-.78,3.2,3.2,0,0,1-1.07-2h6.7a3.62,3.62,0,0,0-1-2.72A3.57,3.57,0,0,0,859,85.9a3.66,3.66,0,0,0-2.62,1,3.27,3.27,0,0,0-1.06,2.46,3.55,3.55,0,0,0,1.13,2.67,3.86,3.86,0,0,0,2.82,1.11,5.79,5.79,0,0,0,2-.34,3.48,3.48,0,0,0,1.33-.73.37.37,0,0,0,.12-.26.28.28,0,0,0-.09-.23A.32.32,0,0,0,862.4,91.51ZM857,87.24a3.23,3.23,0,0,1,4,0A2.83,2.83,0,0,1,862,89h-6A2.88,2.88,0,0,1,857,87.24Z" transform="translate(0 0)"/><polygon class="cls-1" points="862.7 89.68 862.7 89.68 862.7 89.68 862.7 89.68"/><path class="cls-1" d="M872.19,92.25h-.87V87.9a1.86,1.86,0,0,0-.7-1.39,2.84,2.84,0,0,0-1.94-.62,8.25,8.25,0,0,0-1.85.33,3,3,0,0,0-.88.32.26.26,0,0,0-.08.21A.3.3,0,0,0,866,87a.27.27,0,0,0,.21.09,1.16,1.16,0,0,0,.32-.08,7.55,7.55,0,0,1,2.15-.44,2.35,2.35,0,0,1,1.5.4,1.14,1.14,0,0,1,.5.94V89c-.41-.08-.79-.14-1.15-.18a7.93,7.93,0,0,0-1-.06,4,4,0,0,0-2.56.71,2.08,2.08,0,0,0-.87,1.67,1.86,1.86,0,0,0,.66,1.46,2.65,2.65,0,0,0,1.85.6,4.65,4.65,0,0,0,3.06-1.2v1h1.54a.49.49,0,0,0,.35-.09v0a.32.32,0,0,0,0-.45A.5.5,0,0,0,872.19,92.25Zm-1.55-1.17a5.73,5.73,0,0,1-1.5,1.08,3.64,3.64,0,0,1-1.59.34,2,2,0,0,1-1.35-.41,1.28,1.28,0,0,1-.47-1,1.34,1.34,0,0,1,.61-1.09,3.58,3.58,0,0,1,2.24-.62,10,10,0,0,1,1.09.06,6.82,6.82,0,0,1,1,.2Z" transform="translate(0 0)"/><path class="cls-1" d="M881.77,86.37a1.8,1.8,0,0,0-1.09-.4,2.6,2.6,0,0,0-1.18.34,10.62,10.62,0,0,0-1.92,1.49V86.14h-1.86a.46.46,0,0,0-.34.1.26.26,0,0,0-.1.23.28.28,0,0,0,.1.24.44.44,0,0,0,.33.1h1.21v5.47h-1.58a.52.52,0,0,0-.34.09.28.28,0,0,0-.1.22.28.28,0,0,0,.1.24.49.49,0,0,0,.33.09h5.16a.47.47,0,0,0,.34-.1h0a.32.32,0,0,0,0-.46.52.52,0,0,0-.34-.09h-2.91v-3.6a15.47,15.47,0,0,1,2.1-1.68,2.26,2.26,0,0,1,1-.35.91.91,0,0,1,.4.1,2,2,0,0,1,.48.38.79.79,0,0,0,.2.17.32.32,0,0,0,.14,0h0a.33.33,0,0,0,.32-.34C882.27,86.83,882.11,86.63,881.77,86.37Z" transform="translate(0 0)"/><path class="cls-1" d="M891.42,92.25h-.55V88.11a2,2,0,0,0-.36-1.11,2.19,2.19,0,0,0-.79-.78,3.06,3.06,0,0,0-2.62,0,4.49,4.49,0,0,0-1.24,1v-1h-1.21a.45.45,0,0,0-.34.09.3.3,0,0,0-.1.23.3.3,0,0,0,.1.25.5.5,0,0,0,.34.09h.55v5.45h-.74a.52.52,0,0,0-.34.09h0a.33.33,0,0,0,0,.46.47.47,0,0,0,.34.1h2.14a.47.47,0,0,0,.34-.1h0a.33.33,0,0,0,0-.46.52.52,0,0,0-.34-.09h-.74V88.13a6,6,0,0,1,1.36-1.3,2.31,2.31,0,0,1,1.12-.26,1.84,1.84,0,0,1,1.36.48,1.51,1.51,0,0,1,.51,1.17v4h-.54a.53.53,0,0,0-.35.09v0a.31.31,0,0,0,0,.45.48.48,0,0,0,.35.1h1.75a.46.46,0,0,0,.34-.1h0a.32.32,0,0,0,0-.46A.52.52,0,0,0,891.42,92.25Z" transform="translate(0 0)"/><rect class="cls-1" x="896.95" y="82.76" width="0.97" height="1.7"/><path class="cls-1" d="M900.52,92.25h-2.58V86.14h-2.57a.52.52,0,0,0-.34.09.34.34,0,0,0,0,.48.5.5,0,0,0,.34.09h1.91v5.45H894.7a.47.47,0,0,0-.33.09h0a.33.33,0,0,0,0,.47.47.47,0,0,0,.33.09h5.82a.54.54,0,0,0,.35-.09h0a.33.33,0,0,0,0-.47A.56.56,0,0,0,900.52,92.25Z" transform="translate(0 0)"/><path class="cls-1" d="M910.65,92.25h-.55V88.11a2,2,0,0,0-.36-1.11,2.36,2.36,0,0,0-.79-.78,2.87,2.87,0,0,0-1.37-.32,2.84,2.84,0,0,0-1.25.27,4.68,4.68,0,0,0-1.25,1v-1h-1.21a.46.46,0,0,0-.34.09.34.34,0,0,0-.1.23.37.37,0,0,0,.1.25.52.52,0,0,0,.34.09h.56v5.45h-.75a.47.47,0,0,0-.33.09h0a.31.31,0,0,0,0,.46.44.44,0,0,0,.33.1h2.15a.46.46,0,0,0,.33-.1h0a.33.33,0,0,0,0-.46.5.5,0,0,0-.33-.09h-.75V88.13a6.21,6.21,0,0,1,1.36-1.3,2.34,2.34,0,0,1,1.13-.26,1.84,1.84,0,0,1,1.36.48,1.55,1.55,0,0,1,.51,1.17v4h-.55a.52.52,0,0,0-.34.09l0,0a.32.32,0,0,0,0,.45.47.47,0,0,0,.34.1h1.76a.47.47,0,0,0,.34-.1h0a.33.33,0,0,0,0-.46A.52.52,0,0,0,910.65,92.25Z" transform="translate(0 0)"/><path class="cls-1" d="M920.9,86.24a.44.44,0,0,0-.33-.1H919v1.2h0a3.22,3.22,0,0,0-2.72-1.44,3.12,3.12,0,0,0-2.33,1,3.47,3.47,0,0,0,0,4.84,3.2,3.2,0,0,0,2.33,1A3.24,3.24,0,0,0,919,91.3v2a1.76,1.76,0,0,1-.17.84,2.2,2.2,0,0,1-.77.86,1.83,1.83,0,0,1-1,.3h-1.89a.47.47,0,0,0-.33.09.34.34,0,0,0,0,.48.47.47,0,0,0,.33.09H917a2.47,2.47,0,0,0,1-.16,3.23,3.23,0,0,0,.8-.52,2.62,2.62,0,0,0,.62-.71,2.38,2.38,0,0,0,.28-1.17V86.81h.89a.48.48,0,0,0,.33-.1.26.26,0,0,0,.1-.23A.28.28,0,0,0,920.9,86.24Zm-2.67,5-.06.06a2.64,2.64,0,0,1-3.73-.06,2.82,2.82,0,0,1,0-3.91l0-.05a2.72,2.72,0,0,1,3.74,4Z" transform="translate(0 0)"/></svg>