<svg id="becloud_logo" data-name="becloud logo" xmlns="http://www.w3.org/2000/svg" viewBox="0 0 371 134.5"><defs><style>.cls-1{fill:#f1f2f2;}</style></defs><path class="cls-1" d="M58.42,67.77a10.51,10.51,0,0,0-10.9,1.7l-1.27,1.09a26.67,26.67,0,0,1-.65-3.2c-.05-.34-.07-.69-.1-1v-.15a16.84,16.84,0,0,0-33.55-.34A11.47,11.47,0,0,0,3.3,69.36,11.63,11.63,0,0,0,0,77.84a11.87,11.87,0,0,0,11.9,11.35l40.89-.11h.34A11.7,11.7,0,0,0,64.71,77.25c0-.3,0-.59,0-.89A9.94,9.94,0,0,0,58.42,67.77ZM52.81,87l-40.9.11a9.8,9.8,0,0,1-9.84-9.35,2.44,2.44,0,0,1,0-.27,9.62,9.62,0,0,1,9.62-9.62h0a8.23,8.23,0,0,1,1.1.07l1.11.12,0-1.11a14.78,14.78,0,0,1,29.5-.64v.15c0,.39.06.79.12,1.18C45,77.53,50.27,82,54.72,82.93a8.78,8.78,0,0,0,7-1.45A9.54,9.54,0,0,1,52.81,87Zm9.84-9.5a7.07,7.07,0,0,1-7.51,3.39c-2.91-.6-6.24-3.08-8.19-8.22L48.87,71a8.45,8.45,0,0,1,8.76-1.36,8,8,0,0,1,5,6.84c0,.24,0,.49,0,.74Z" transform="translate(0 0)"/><path class="cls-1" d="M52.48,61.24a3.84,3.84,0,1,0-3.84-3.84A3.84,3.84,0,0,0,52.48,61.24Zm0-5.62A1.78,1.78,0,1,1,50.7,57.4,1.78,1.78,0,0,1,52.48,55.62Z" transform="translate(0 0)"/><path class="cls-1" d="M220.63,3a33.68,33.68,0,0,1,2.43,7.06c.46,1.66,1,3.31,1.44,5a26,26,0,0,0,2.91,6.08,1,1,0,0,0,.65.42c1.15,0,2.3,0,3.6,0h0c-.16-.3-.25-.51-.37-.7a22.75,22.75,0,0,1-3-6.31c-.5-2-.93-4.1-1.43-6.13a35.8,35.8,0,0,0-1.06-3.71c-.45-1.26-1-2.48-1.58-3.69-.21-.43-.37-1.06-1-1.06-1.36,0-2.71.09-4.13.15a3,3,0,0,0,.14.49C219.75,1.43,220.2,2.23,220.63,3Z" transform="translate(0 0)"/><polygon class="cls-1" points="202.44 15.41 191.28 0.74 187.47 0.74 187.47 21.61 191.39 21.61 191.39 7.09 202.44 21.59 202.44 21.6 206.37 21.6 206.37 0.74 202.44 0.74 202.44 15.41"/><polygon class="cls-1" points="148.03 17.59 138.32 17.59 138.32 13.11 145.78 13.11 145.78 9.08 138.32 9.08 138.32 4.6 148.03 4.6 148.03 0.57 134.02 0.57 134.02 21.61 148.03 21.61 148.03 17.59"/><polygon class="cls-1" points="93.47 17.63 83.83 17.63 83.83 13.17 91.24 13.17 91.24 9.18 83.83 9.18 83.83 4.72 93.47 4.72 93.47 0.72 79.57 0.72 79.57 21.61 93.47 21.61 93.47 17.63"/><polygon class="cls-1" points="123.05 0.53 104.75 0.53 104.75 4.67 111.56 4.67 111.56 21.61 116.32 21.61 116.32 4.67 123.09 4.67 123.05 0.53"/><path class="cls-1" d="M164.94,12.32l6,9.29h5.16L171.24,14a4.82,4.82,0,0,0,2.52-1.94h0a6.79,6.79,0,0,0,1.33-4V7.51a5.94,5.94,0,0,0-2-4.77,7.71,7.71,0,0,0-5.5-2.13H160.7l0,21h4.22Zm0-7.53h2.37a3.91,3.91,0,0,1,2.61.83,2.94,2.94,0,0,1-1.94,5h-3Z" transform="translate(0 0)"/><path class="cls-1" d="M185.08,117.11A5.31,5.31,0,0,0,181,119v-1.2h0a.66.66,0,0,0-.68-.65.68.68,0,0,0-.68.66v16a.7.7,0,0,0,.68.69h0a.67.67,0,0,0,.66-.69v-7.06a5.27,5.27,0,0,0,4.1,1.88h.24a5.49,5.49,0,0,0,5.21-5.75h0v-.23A5.49,5.49,0,0,0,185.08,117.11Zm4.11,5.91a4.18,4.18,0,0,1-4.11,4.25,4.11,4.11,0,1,1,4.1-4.4S189.19,123,189.19,123Z" transform="translate(0 0)"/><path class="cls-1" d="M199.48,117.11a5.76,5.76,0,1,0,5.76,5.76A5.76,5.76,0,0,0,199.48,117.11Zm0,10.15a4.41,4.41,0,0,1,0-8.81h0a4.41,4.41,0,0,1,0,8.81Z" transform="translate(0 0)"/><path class="cls-1" d="M221.74,117.18a.69.69,0,0,0-.88.4l-2.73,8.4-2.63-6.37a.64.64,0,0,0-.62-.41.67.67,0,0,0-.64.41l-2.6,6.37-2.73-8.4a.7.7,0,0,0-.87-.45.7.7,0,0,0-.43.85l3.31,10.18a.68.68,0,0,0,.62.47.68.68,0,0,0,.66-.43l2.69-6.53,2.69,6.53a.65.65,0,0,0,.61.43h0a.69.69,0,0,0,.62-.47L222.16,118A.69.69,0,0,0,221.74,117.18Z" transform="translate(0 0)"/><path class="cls-1" d="M230,117.11a5.07,5.07,0,0,0-3.88,1.7,6.08,6.08,0,0,0-1.45,4.06,2.17,2.17,0,0,0,0,.26,5.47,5.47,0,0,0,5.45,5.5h0a5.29,5.29,0,0,0,4.58-2.56.67.67,0,0,0-.22-.95.69.69,0,0,0-.95.22,3.85,3.85,0,0,1-3.41,1.92,4.1,4.1,0,0,1-4.06-3.71h8.52a.69.69,0,0,0,.68-.68C235.22,119.52,233,117.11,230,117.11ZM226,122.18a4,4,0,0,1,3.95-3.73,3.87,3.87,0,0,1,3.84,3.73Z" transform="translate(0 0)"/><path class="cls-1" d="M243.39,117.1a4.58,4.58,0,0,0-3.31,1.37v-.7a.67.67,0,0,0-1.34,0V128a.67.67,0,0,0,1.34,0v-6.06a3.37,3.37,0,0,1,3.31-3.44h0a.66.66,0,0,0,.66-.68h0A.68.68,0,0,0,243.39,117.1Z" transform="translate(0 0)"/><path class="cls-1" d="M251.43,117.11a5.07,5.07,0,0,0-3.88,1.7,6.08,6.08,0,0,0-1.45,4.06,2.17,2.17,0,0,0,0,.26,5.48,5.48,0,0,0,5.45,5.5h0a5.32,5.32,0,0,0,4.59-2.56.69.69,0,0,0-.23-.95.69.69,0,0,0-1,.22,3.85,3.85,0,0,1-3.41,1.92,4.11,4.11,0,0,1-4.06-3.71H256a.69.69,0,0,0,.68-.68C256.68,119.52,254.48,117.11,251.43,117.11Zm-4,5.07a4,4,0,0,1,4-3.73,3.86,3.86,0,0,1,3.84,3.73Z" transform="translate(0 0)"/><path class="cls-1" d="M270.22,113.58a.66.66,0,0,0-.67.67V119a5.31,5.31,0,0,0-4.1-1.86,5.77,5.77,0,0,0,0,11.52,5.27,5.27,0,0,0,4.1-1.88V128h0a.67.67,0,1,0,1.34,0v-13.7h0A.67.67,0,0,0,270.22,113.58Zm-4.77,13.69a4.11,4.11,0,1,1,4.1-4.4V123A4.18,4.18,0,0,1,265.45,127.27Z" transform="translate(0 0)"/><path class="cls-1" d="M294.68,117.1A5.32,5.32,0,0,0,290.6,119v-4.71a.69.69,0,0,0-.68-.69h0a.67.67,0,0,0-.66.69V128h0a.68.68,0,0,0,1.36,0v-1.2a5.23,5.23,0,0,0,4.08,1.88h.24a5.49,5.49,0,0,0,5.22-5.75h0c0-.09,0-.17,0-.25A5.51,5.51,0,0,0,294.68,117.1Zm4.1,5.94a4.17,4.17,0,0,1-4.11,4.22,4.1,4.1,0,1,1,4.1-4.39A.91.91,0,0,1,298.78,123Z" transform="translate(0 0)"/><path class="cls-1" d="M312.33,117.11h0a.67.67,0,0,0-.68.66v5.87a4.17,4.17,0,0,1,0,.5,3.37,3.37,0,1,1-6.72-.5v-5.87h0a.66.66,0,0,0-.68-.65.68.68,0,0,0-.68.66v5.87a1.48,1.48,0,0,0,0,.21,4.76,4.76,0,0,0,4.74,4.78,4.61,4.61,0,0,0,3.35-1.41v2.29a3.63,3.63,0,0,1-6.8,1.77.68.68,0,1,0-1.2.64A5,5,0,0,0,313,129.5V117.77h0A.68.68,0,0,0,312.33,117.11Z" transform="translate(0 0)"/><path class="cls-1" d="M341.65,113.65h-9.28a1.24,1.24,0,0,0,0,2.48h3.39v11.26a1.25,1.25,0,0,0,2.5,0V116.12h3.4a1.24,1.24,0,1,0,0-2.47Z" transform="translate(0 0)"/><path class="cls-1" d="M352.92,120.84a8.84,8.84,0,0,0-2.84-1.17c-2.18-.64-2.5-1-2.5-1.79,0-.65.45-1.75,2.11-1.75s2.12,1.1,2.12,1.75a1.25,1.25,0,0,0,2.5,0,4.22,4.22,0,0,0-1.18-2.89,5.07,5.07,0,0,0-6.87,0,4.3,4.3,0,0,0-1.15,2.89,3.49,3.49,0,0,0,1.6,3.07,9.05,9.05,0,0,0,2.69,1.11c2.09.6,2.71.94,2.71,2.07a2.45,2.45,0,0,1-4.82,0,1.24,1.24,0,0,0-2.48,0,4.51,4.51,0,0,0,1.24,3.07,5.37,5.37,0,0,0,7.3,0,4.5,4.5,0,0,0,1.23-3.07A3.76,3.76,0,0,0,352.92,120.84Z" transform="translate(0 0)"/><path class="cls-1" d="M370.59,124.32l0,0a1.21,1.21,0,0,0-1.72.13c-.15.16-.3.31-.47.46a5,5,0,1,1,.47-7.06v0a1.23,1.23,0,0,0,1.74.09,1.25,1.25,0,0,0,.1-1.75,7.5,7.5,0,1,0-5.63,12.44h0a7.46,7.46,0,0,0,5.63-2.56A1.25,1.25,0,0,0,370.59,124.32Z" transform="translate(0 0)"/><path class="cls-1" d="M148,52a1,1,0,0,0,1-1v0a1,1,0,0,0-1-1H123.61a1,1,0,0,0-1,1V89.4a1,1,0,0,0,1,1H148a1,1,0,0,0,1-1,1,1,0,0,0-.95-1H124.59V70.27h17.1a1,1,0,0,0,1-1,1,1,0,0,0-1-1H124.59V52Z" transform="translate(0 0)"/><path class="cls-1" d="M101.33,68.83h0a10.32,10.32,0,0,0,4.78-8.68A10,10,0,0,0,96.21,50H80.6a1,1,0,0,0-1,1v1H96.21a8.12,8.12,0,0,1,0,16.24H79.57V89.4a1,1,0,0,0,1,1H98a10.92,10.92,0,0,0,10.8-11A11,11,0,0,0,101.33,68.83ZM98,88.37H81.58V70.27H98a9.05,9.05,0,0,1,0,18.1Z" transform="translate(0 0)"/><path class="cls-1" d="M213.15,90.37h1V51a1.06,1.06,0,0,0-1-1,1,1,0,0,0-1,1V89.4A1,1,0,0,0,213.15,90.37Z" transform="translate(0 0)"/><path class="cls-1" d="M219.3,90.37H234a1,1,0,0,0,1-1,1,1,0,0,0-1-1H219.3Z" transform="translate(0 0)"/><path class="cls-1" d="M182.45,52a17.61,17.61,0,0,1,13.32,6.18.94.94,0,0,0,.68.36.92.92,0,0,0,.72-.27,1,1,0,0,0,.08-1.39A19.49,19.49,0,0,0,182.45,50a19.94,19.94,0,0,0-19.63,18.25h2A17.91,17.91,0,0,1,182.45,52Z" transform="translate(0 0)"/><path class="cls-1" d="M197.26,83.48a1,1,0,0,0-.09-1.39h0a1,1,0,0,0-1.35,0l0,0a17.61,17.61,0,0,1-13.33,6.2A17.86,17.86,0,0,1,165.13,74h-2a19.87,19.87,0,0,0,19.36,16.35A19.51,19.51,0,0,0,197.26,83.48Z" transform="translate(0 0)"/><path class="cls-1" d="M261.72,50.08a19.65,19.65,0,0,0-18.19,18.19h1.95a17.68,17.68,0,0,1,35.24,0h2A19.66,19.66,0,0,0,261.72,50.08Z" transform="translate(0 0)"/><path class="cls-1" d="M259.82,88.06a17.63,17.63,0,0,1-14-14h-2a19.61,19.61,0,0,0,38.68,0h-2A17.64,17.64,0,0,1,259.82,88.06Z" transform="translate(0 0)"/><path class="cls-1" d="M310.1,88a14,14,0,0,1-10.78-13.69V51a1,1,0,0,0-1-1,1,1,0,0,0-1,1V74.35A16,16,0,0,0,310.1,90.09Z" transform="translate(0 0)"/><path class="cls-1" d="M327.66,50a1,1,0,0,0-1,1V74.35a14,14,0,0,1-10.83,13.71v2a15.93,15.93,0,0,0,12.78-15.74V51A1,1,0,0,0,327.66,50Z" transform="translate(0 0)"/><path class="cls-1" d="M341.84,90.37h9.49a20.18,20.18,0,0,0,0-40.35h-9.49a1,1,0,0,0-1,1v1h10.46a18.18,18.18,0,0,1,0,36.34H340.87v1A1,1,0,0,0,341.84,90.37Z" transform="translate(0 0)"/></svg>