<svg id="Group_230" data-name="Group 230" xmlns="http://www.w3.org/2000/svg" width="160.103" height="21.226" viewBox="0 0 160.103 21.226">
  <defs>
    <style>
      .cls-1 {
        fill: #FFFFFF;
      }

      .cls-2 {
        fill: #FFFFFF;
      }
    </style>
  </defs>
  <path id="Path_277" data-name="Path 277" class="cls-1" d="M1231.887,289.493a5.547,5.547,0,0,0-2.812.747,5.889,5.889,0,0,0-.683.461,1.445,1.445,0,0,0-.367-.629,1.516,1.516,0,0,0-1.107-.431,1.54,1.54,0,0,0-1.078.415,1.492,1.492,0,0,0-.461,1.124v11.979a1.515,1.515,0,0,0,1.539,1.539,1.493,1.493,0,0,0,1.124-.461,1.541,1.541,0,0,0,.414-1.078v-7.478a3.1,3.1,0,0,1,.429-1.633,3,3,0,0,1,1.192-1.131,3.723,3.723,0,0,1,1.809-.421,3.816,3.816,0,0,1,.492.042,5.072,5.072,0,0,0,.688.057,1.527,1.527,0,0,0,.887-.254,1.416,1.416,0,0,0,.546-.813,1.433,1.433,0,0,0,.057-.424C1234.557,290.37,1234.094,289.493,1231.887,289.493Z" transform="translate(-1225.379 -283.885)"/>
  <path id="Path_278" data-name="Path 278" class="cls-1" d="M1296.911,290.607h0a6.936,6.936,0,0,0-3.622-.963,7.022,7.022,0,0,0-3.7.99,6.772,6.772,0,0,0-2.536,2.755,8.515,8.515,0,0,0-.888,3.92,8.009,8.009,0,0,0,.961,3.916,7.03,7.03,0,0,0,2.675,2.743,7.6,7.6,0,0,0,3.857.981,7.821,7.821,0,0,0,2.7-.517,7.049,7.049,0,0,0,2.315-1.339l.029-.028a1.441,1.441,0,0,0,.456-1.033,1.423,1.423,0,0,0-.551-1.126,1.459,1.459,0,0,0-.963-.34,1.622,1.622,0,0,0-1.017.372l-.053.047a3.364,3.364,0,0,1-1.243.694,5.172,5.172,0,0,1-1.672.289,4.416,4.416,0,0,1-2.2-.54,4.045,4.045,0,0,1-1.546-1.5,4.425,4.425,0,0,1-.541-1.381h9.4a1.524,1.524,0,0,0,1.065-.4,1.444,1.444,0,0,0,.449-1.088,8.076,8.076,0,0,0-.879-3.792A6.672,6.672,0,0,0,1296.911,290.607Zm-3.622,2.017a3.712,3.712,0,0,1,2.735,1.05,4.026,4.026,0,0,1,1.1,2h-7.669a4.287,4.287,0,0,1,1.154-1.995A3.658,3.658,0,0,1,1293.289,292.624Z" transform="translate(-1276.229 -284.011)"/>
  <path id="Path_279" data-name="Path 279" class="cls-1" d="M1388.239,293.2a3.818,3.818,0,0,1,2.105-.577,4.21,4.21,0,0,1,3.385,1.57,1.48,1.48,0,0,0,1.19.594,1.618,1.618,0,0,0,1.539-1.49,1.528,1.528,0,0,0-.316-.877l-.031-.04a7.146,7.146,0,0,0-2.548-2.046,7.492,7.492,0,0,0-3.22-.692,6.863,6.863,0,0,0-3.668,1.018,7,7,0,0,0-2.552,2.772,8.315,8.315,0,0,0-.9,3.874,7.9,7.9,0,0,0,.974,3.881,7.248,7.248,0,0,0,2.692,2.774,7.429,7.429,0,0,0,3.826,1.009,7.826,7.826,0,0,0,2.739-.481,6.911,6.911,0,0,0,2.265-1.365,1.369,1.369,0,0,0,.47-1.046,1.493,1.493,0,0,0-.5-1.123,1.4,1.4,0,0,0-.993-.391,1.5,1.5,0,0,0-1.07.443,4.11,4.11,0,0,1-2.915.984,4.3,4.3,0,0,1-2.292-.6,4.138,4.138,0,0,1-1.551-1.657,5.133,5.133,0,0,1-.571-2.429,5.687,5.687,0,0,1,.524-2.482A3.806,3.806,0,0,1,1388.239,293.2Z" transform="translate(-1357.417 -284.011)"/>
  <path id="Path_280" data-name="Path 280" class="cls-1" d="M1486.993,272.923h-.615a.638.638,0,0,1-.574-.367,2.546,2.546,0,0,1-.347-1.415V256.726a1.477,1.477,0,0,0-1.539-1.539,1.541,1.541,0,0,0-1.078.415,1.492,1.492,0,0,0-.461,1.124v14.415a5.362,5.362,0,0,0,1.072,3.425,3.587,3.587,0,0,0,2.927,1.434h.492a1.493,1.493,0,0,0,1.124-.461,1.54,1.54,0,0,0,.414-1.078,1.581,1.581,0,0,0-.371-1.069A1.371,1.371,0,0,0,1486.993,272.923Z" transform="translate(-1440.365 -255.187)"/>
  <path id="Path_281" data-name="Path 281" class="cls-1" d="M1546.479,290.828a1.517,1.517,0,0,0-1.107-.431,1.54,1.54,0,0,0-1.078.415,1.493,1.493,0,0,0-.461,1.124v7.527a2.621,2.621,0,0,1-.475,1.528,3.3,3.3,0,0,1-1.365,1.13,4.727,4.727,0,0,1-2.032.428,4.018,4.018,0,0,1-2.885-1.014,3.856,3.856,0,0,1-1.062-2.982v-6.617a1.539,1.539,0,1,0-3.078,0v6.617a7.585,7.585,0,0,0,.9,3.776,6.14,6.14,0,0,0,2.541,2.469,7.658,7.658,0,0,0,3.581.829,6.727,6.727,0,0,0,3.946-1.223,1.483,1.483,0,0,0,.37.606,1.513,1.513,0,0,0,1.1.444,1.493,1.493,0,0,0,1.124-.461,1.541,1.541,0,0,0,.415-1.078V291.936a1.518,1.518,0,0,0-.43-1.107Z" transform="translate(-1482.657 -284.641)"/>
  <path id="Path_282" data-name="Path 282" class="cls-1" d="M1643.316,280.893a1.544,1.544,0,0,0-1.119-.443h-.541a2.285,2.285,0,0,1-1.718-.659,2.381,2.381,0,0,1-.655-1.762v-6.111h2.446a1.465,1.465,0,1,0,0-2.93h-2.446v-3.209a1.517,1.517,0,0,0-1.563-1.564,1.514,1.514,0,0,0-1.1.444,1.544,1.544,0,0,0-.444,1.12v3.209h-1.118a1.465,1.465,0,1,0,0,2.93h1.118v6.111a5.741,5.741,0,0,0,.69,2.81,5.144,5.144,0,0,0,1.946,1.991,5.518,5.518,0,0,0,2.814.724h.566a1.544,1.544,0,0,0,1.12-.444,1.513,1.513,0,0,0,.444-1.1,1.545,1.545,0,0,0-.443-1.119Z" transform="translate(-1566.864 -262.739)"/>
  <path id="Path_283" data-name="Path 283" class="cls-1" d="M1720.261,290.5h0a8.09,8.09,0,0,0-7.8,0,7.328,7.328,0,0,0-2.771,2.771,8.092,8.092,0,0,0,0,7.8,7.324,7.324,0,0,0,2.771,2.771,7.79,7.79,0,0,0,3.915,1,7.462,7.462,0,0,0,3.536-.844,6.911,6.911,0,0,0,1.057-.688,1.5,1.5,0,0,0,.436.94,1.514,1.514,0,0,0,1.1.444,1.493,1.493,0,0,0,1.124-.461,1.54,1.54,0,0,0,.415-1.078v-5.977a7.8,7.8,0,0,0-1-3.915A7.334,7.334,0,0,0,1720.261,290.5Zm.1,9.1a4.294,4.294,0,0,1-1.634,1.666,4.877,4.877,0,0,1-4.706,0,4.379,4.379,0,0,1-1.649-1.671,5.069,5.069,0,0,1,0-4.816,4.682,4.682,0,0,1,6.35-1.686,4.387,4.387,0,0,1,1.639,1.681,5.16,5.16,0,0,1,0,4.827Z" transform="translate(-1629.673 -283.885)"/>
  <path id="Path_284" data-name="Path 284" class="cls-2" d="M1943.347,261.6h0a7.665,7.665,0,0,0-3.581-.828,6.729,6.729,0,0,0-3.873,1.172v-5.217a1.477,1.477,0,0,0-1.539-1.539,1.542,1.542,0,0,0-1.078.415,1.493,1.493,0,0,0-.461,1.124v17.736a1.516,1.516,0,0,0,1.539,1.539,1.493,1.493,0,0,0,1.125-.461,1.541,1.541,0,0,0,.414-1.078v-7.527a2.622,2.622,0,0,1,.475-1.528,3.3,3.3,0,0,1,1.365-1.13,4.729,4.729,0,0,1,2.032-.428,4.019,4.019,0,0,1,2.885,1.014,3.858,3.858,0,0,1,1.062,2.982v6.617a1.539,1.539,0,1,0,3.078,0v-6.617a7.589,7.589,0,0,0-.9-3.776A6.144,6.144,0,0,0,1943.347,261.6Z" transform="translate(-1817.165 -255.187)"/>
  <path id="Path_285" data-name="Path 285" class="cls-2" d="M2049.572,290.5h0a8.09,8.09,0,0,0-7.8,0,7.327,7.327,0,0,0-2.771,2.771,8.091,8.091,0,0,0,0,7.8,7.325,7.325,0,0,0,2.771,2.771,7.79,7.79,0,0,0,3.915,1,7.462,7.462,0,0,0,3.536-.844,6.911,6.911,0,0,0,1.057-.688,1.5,1.5,0,0,0,.437.94,1.513,1.513,0,0,0,1.1.444,1.493,1.493,0,0,0,1.124-.461,1.54,1.54,0,0,0,.415-1.078v-5.977a7.8,7.8,0,0,0-1-3.915A7.333,7.333,0,0,0,2049.572,290.5Zm.1,9.1a4.293,4.293,0,0,1-1.633,1.666,4.877,4.877,0,0,1-4.706,0,4.379,4.379,0,0,1-1.649-1.671,5.068,5.068,0,0,1,0-4.816,4.682,4.682,0,0,1,6.35-1.686,4.384,4.384,0,0,1,1.639,1.681,5.156,5.156,0,0,1,0,4.827Z" transform="translate(-1905.148 -283.885)"/>
  <path id="Path_286" data-name="Path 286" class="cls-2" d="M2152.288,280.895l0,0a1.546,1.546,0,0,0-1.119-.443h-.541a2.285,2.285,0,0,1-1.718-.659,2.381,2.381,0,0,1-.655-1.762v-6.111h2.446a1.465,1.465,0,1,0,0-2.93h-2.446v-3.209a1.517,1.517,0,0,0-1.564-1.564,1.514,1.514,0,0,0-1.095.444,1.544,1.544,0,0,0-.444,1.12v3.209h-1.117a1.465,1.465,0,1,0,0,2.93h1.117v6.111a5.744,5.744,0,0,0,.69,2.81,5.145,5.145,0,0,0,1.946,1.991,5.519,5.519,0,0,0,2.814.724h.565a1.545,1.545,0,0,0,1.12-.444,1.513,1.513,0,0,0,.444-1.1A1.546,1.546,0,0,0,2152.288,280.895Z" transform="translate(-1992.628 -262.739)"/>
  <path id="Path_287" data-name="Path 287" class="cls-2" d="M1838.038,298.435a1.466,1.466,0,0,0-2.05.291,4.6,4.6,0,0,1-3.693,1.891,4.5,4.5,0,0,1-2.559-.8,1.475,1.475,0,0,0-1.113-.23l-1.316.26.545-1.6a1.472,1.472,0,0,0,0-.942,5.26,5.26,0,0,1-.277-1.691,4.873,4.873,0,0,1,4.718-5,4.6,4.6,0,0,1,3.755,1.974,1.464,1.464,0,0,0,2.378-1.71,7.6,7.6,0,0,0-6.132-3.192,7.8,7.8,0,0,0-7.647,7.933,8.212,8.212,0,0,0,.281,2.133l-1.212,3.556a1.464,1.464,0,0,0,1.67,1.909l3.236-.64a7.456,7.456,0,0,0,9.707-2.086,1.464,1.464,0,0,0-.292-2.05Z" transform="translate(-1725.836 -282.368)"/>
  <path id="Path_288" data-name="Path 288" class="cls-2" d="M1838.608,338.99a1.464,1.464,0,0,0-2.621-.673,4.6,4.6,0,0,1-3.693,1.89,4.5,4.5,0,0,1-2.559-.8,1.475,1.475,0,0,0-1.113-.23l-1.316.26.545-1.6a1.473,1.473,0,0,0,0-.942,5.259,5.259,0,0,1-.277-1.691c0-.033,0-.066,0-.1l0-.154h-2.932l0,.134c0,.04,0,.08,0,.12a8.212,8.212,0,0,0,.281,2.133l-1.212,3.556a1.464,1.464,0,0,0,1.67,1.909l3.236-.64a7.456,7.456,0,0,0,9.707-2.086A1.454,1.454,0,0,0,1838.608,338.99Z" transform="translate(-1725.836 -321.91)"/>
</svg>
