<svg
      xmlns="http://www.w3.org/2000/svg"
      width="300"
      height="30.541"
      data-name="Group 2"
      viewBox="0 0 536 46.541"
    
    >
      <defs>
        <linearGradient
          id="a"
          x2="1.001"
          y1="0.5"
          y2="0.5"
          gradientUnits="objectBoundingBox"
        >
          <stop offset="0" stopColor="#FFFFFF"></stop>
          <stop offset="0.272" stopColor="#FFFFFF"></stop>
          <stop offset="0.769" stopColor="#FFFFFF"></stop>
          <stop offset="1" stopColor="#FFFFFF"></stop>
        </linearGradient>
      </defs>
      <path
        fill="#FFFFFF"
        d="M15.727 17.556a3.475 3.475 0 11-3.475 3.475 3.473 3.473 0 013.475-3.475zM36.94 46.541v-5.486H13.807a8.351 8.351 0 01-8.321-8.321V9.784H0v22.95a13.8 13.8 0 0013.807 13.807zm4.115-32.734V36.94h5.486V13.807A13.853 13.853 0 0032.734 0H9.784v5.486h22.95a8.351 8.351 0 018.321 8.321z"
        data-name="Path 11"
      ></path>
      <g fill="#fff" data-name="Group 573" transform="translate(66.383 5.12)">
        <path
          d="M397.865 36.008h-16.276a2.127 2.127 0 01-2.1-2.1V6.2H374v27.705a7.571 7.571 0 007.589 7.589h16.276z"
          data-name="Path 1"
          transform="translate(-98.411 -5.651)"
        ></path>
        <path
          d="M567.689 41.443h16.276v-5.486h-16.276a2.127 2.127 0 01-2.1-2.1V5.6H560.1v28.254a7.751 7.751 0 007.589 7.589z"
          data-name="Path 2"
          transform="translate(-114.348 -5.6)"
        ></path>
        <path
          d="M0 0H5.486V35.934H0z"
          data-name="Rectangle 2"
          transform="translate(48.096)"
        ></path>
        <path
          d="M85.858 42.092h5.486V11.186h9.692a2.694 2.694 0 002.743-2.743 2.694 2.694 0 00-2.742-2.743H75.343A2.694 2.694 0 0072.6 8.443a2.694 2.694 0 002.743 2.743h10.515z"
          data-name="Path 3"
          transform="translate(-72.6 -5.609)"
        ></path>
        <path
          d="M178.056 35.965h-16.367a2.191 2.191 0 01-2.1-2.1v-7.5h18.47v-5.487h-18.47v-7.589a2.069 2.069 0 012.1-2.1h16.367V5.7h-16.367a7.571 7.571 0 00-7.589 7.589v20.482a7.571 7.571 0 007.589 7.589h16.367z"
          data-name="Path 4"
          transform="translate(-79.579 -5.609)"
        ></path>
        <path
          d="M440.456 36.008h-16.367a2.127 2.127 0 01-2.1-2.1V26.59h18.47V21.1h-18.47v-7.311a2.127 2.127 0 012.1-2.1h16.367V6.2h-16.367a7.57 7.57 0 00-7.589 7.589v20.116a7.57 7.57 0 007.589 7.589h16.367z"
          data-name="Path 5"
          transform="translate(-102.05 -5.651)"
        ></path>
        <path
          d="M229.751 40.483a2.7 2.7 0 003.017.823 2.75 2.75 0 001.829-2.56V6.194h-5.486v25.053L208.446 7.108a2.7 2.7 0 00-3.017-.823 2.75 2.75 0 00-1.829 2.56V41.58h5.486V16.343z"
          data-name="Path 6"
          transform="translate(-83.818 -5.645)"
        ></path>
        <path
          d="M284.4 23.93v-.274A17.56 17.56 0 00266.844 6.1H254.5v35.294h12.344A17.424 17.424 0 00284.4 23.93zm-24.322-12.252h6.858A12.058 12.058 0 01279 23.747v.274a12.058 12.058 0 01-12.07 12.07h-6.858z"
          data-name="Path 7"
          transform="translate(-88.177 -5.643)"
        ></path>
        <path
          d="M305.018 41.535l1.463-3.84 1.646-3.749h16.733l1.189 2.469 1.28 2.652.457 1.1.64 1.372h5.943l-1.646-3.657-.091-.183-.914-2.012-12.985-28.441a2.784 2.784 0 00-2.469-1.646 2.594 2.594 0 00-2.464 1.646l-13.171 30.265-1.829 4.024zm11.338-26.425l6.126 13.35H310.6z"
          data-name="Path 8"
          transform="translate(-91.971 -5.6)"
        ></path>
        <path
          d="M515.518 41.535l1.463-3.84 1.646-3.749h16.733l1.189 2.469 1.28 2.652.457 1.1.64 1.372h5.943l-1.646-3.657-.091-.274-.914-2.012-12.985-28.35a2.784 2.784 0 00-2.469-1.646 2.594 2.594 0 00-2.464 1.646l-13.171 30.265-1.829 4.024zm11.338-26.425l6.126 13.35H521.1z"
          data-name="Path 9"
          transform="translate(-109.997 -5.6)"
        ></path>
        <path
          d="M476.121 41.834a18.059 18.059 0 0017.922-16.824 2.424 2.424 0 00-.731-2.01 2.836 2.836 0 00-2.012-.823h-15.179v5.486h11.887a12.4 12.4 0 01-11.887 8.778 12.527 12.527 0 1110.7-18.927l4.755-2.743a17.936 17.936 0 10-15.453 27.065z"
          data-name="Path 10"
          transform="translate(-105.621 -5.626)"
        ></path>
      </g>
    </svg>