<svg xmlns="http://www.w3.org/2000/svg" viewBox="0 0 26.25 228.56"><title>caritas</title><path d="M16.06,120.31a.57.57,0,0,0,.05.79h0a6.23,6.23,0,0,1,.45,8.79c-.15.16-.29.31-.45.45a.56.56,0,0,0,0,.79.54.54,0,0,0,.75,0,7.33,7.33,0,0,0,.54-10.37,6.88,6.88,0,0,0-.54-.54.55.55,0,0,0-.78,0Z" style="fill:#fff;stroke:#fff;stroke-width:0.5px"/><path d="M.25,125.72a12.88,12.88,0,1,0,12.87-12.87A12.87,12.87,0,0,0,.25,125.72Zm24.63,0A11.76,11.76,0,1,1,13.12,114a11.76,11.76,0,0,1,11.76,11.76Z" style="fill:#fff;stroke:#fff;stroke-width:0.5px"/><path d="M10.33,119a.56.56,0,0,0,.56.56,1.68,1.68,0,0,1,0,3.36.57.57,0,0,0-.57.56.56.56,0,0,0,.56.56h0a2.8,2.8,0,0,0,0-5.6.56.56,0,0,0-.56.56Z" style="fill:#fff;stroke:#fff;stroke-width:0.5px"/><path d="M10.89,127.4a.57.57,0,0,0-.57.56.56.56,0,0,0,.56.56h0a1.68,1.68,0,0,1,0,3.36.56.56,0,0,0-.59.53.57.57,0,0,0,.54.59h.05a2.8,2.8,0,0,0,0-5.6Z" style="fill:#fff;stroke:#fff;stroke-width:0.5px"/><path d="M6.91,123.73,8,121.49a.56.56,0,0,0-.21-.76.54.54,0,0,0-.76.2L7,121l-1.12,2.24a.56.56,0,0,0,1,.56l0-.06Z" style="fill:#fff;stroke:#fff;stroke-width:0.5px"/><path d="M8.09,130.2A.54.54,0,0,0,8,130l-1.12-2.24a.56.56,0,0,0-1,.5L7,130.45a.56.56,0,0,0,1.06-.25Z" style="fill:#fff;stroke:#fff;stroke-width:0.5px"/><path d="M.25,88.19A12.88,12.88,0,1,0,13.12,75.31,12.87,12.87,0,0,0,.25,88.19Zm24.63,0A11.76,11.76,0,1,1,13.12,76.43,11.75,11.75,0,0,1,24.88,88.19Z" style="fill:#fff;stroke:#fff;stroke-width:0.5px"/><path d="M10.88,91a1.68,1.68,0,1,0,1.68,1.68h0A1.68,1.68,0,0,0,10.88,91Zm.56,1.67a.56.56,0,1,1-1.12,0,.56.56,0,0,1,.56-.56h0A.56.56,0,0,1,11.44,92.66Z" style="fill:#fff;stroke:#fff;stroke-width:0.5px"/><path d="M9.2,83.71A1.68,1.68,0,1,0,10.88,82h0A1.69,1.69,0,0,0,9.2,83.71Zm2.24,0a.56.56,0,1,1-.56-.56A.56.56,0,0,1,11.44,83.71Z" style="fill:#fff;stroke:#fff;stroke-width:0.5px"/><path d="M13.68,88.19a3.94,3.94,0,0,0,3.92,3.92h2.24a1.69,1.69,0,0,0,1.68-1.68V86a1.68,1.68,0,0,0-1.68-1.68H17.6a3.93,3.93,0,0,0-3.92,3.92Zm6.16-2.8a.56.56,0,0,1,.56.56v4.47a.56.56,0,0,1-.56.56H17.6a2.8,2.8,0,0,1,0-5.59Z" style="fill:#fff;stroke:#fff;stroke-width:0.5px"/><path d="M16.06,45.24a.57.57,0,0,0,.05.79h0a6.23,6.23,0,0,1,.45,8.79c-.15.16-.29.3-.45.45a.56.56,0,0,0,.74.83,7.33,7.33,0,0,0,.54-10.37,6.88,6.88,0,0,0-.54-.54.54.54,0,0,0-.78,0Z" style="fill:#fff;stroke:#fff;stroke-width:0.5px"/><path d="M.25,50.65A12.88,12.88,0,1,0,13.12,37.78,12.88,12.88,0,0,0,.25,50.65Zm24.63,0A11.76,11.76,0,1,1,13.12,38.9,11.75,11.75,0,0,1,24.88,50.65Z" style="fill:#fff;stroke:#fff;stroke-width:0.5px"/><path d="M9.2,46.18A2.81,2.81,0,0,0,12,49h0a.57.57,0,0,0,.56-.56.56.56,0,0,0-.56-.56h0a1.68,1.68,0,1,1,0-3.36.56.56,0,0,0,0-1.12,2.8,2.8,0,0,0-2.81,2.8Z" style="fill:#fff;stroke:#fff;stroke-width:0.5px"/><path d="M12,53.45a.56.56,0,0,0,.56-.56.55.55,0,0,0-.55-.56h0a2.8,2.8,0,0,0,0,5.6.56.56,0,0,0,.56-.56.55.55,0,0,0-.55-.56h0a1.68,1.68,0,1,1,0-3.36Z" style="fill:#fff;stroke:#fff;stroke-width:0.5px"/><path d="M16.06,7.71a.57.57,0,0,0,.05.79h0a6.24,6.24,0,0,1,.45,8.8c-.15.15-.29.3-.45.44a.56.56,0,0,0,.74.84A7.34,7.34,0,0,0,17.39,8.2c-.17-.18-.35-.36-.54-.53a.56.56,0,0,0-.79,0Z" style="fill:#fff;stroke:#fff;stroke-width:0.5px"/><path d="M.25,13.12A12.88,12.88,0,1,0,13.12.25,12.88,12.88,0,0,0,.25,13.12Zm24.63,0A11.76,11.76,0,1,1,13.12,1.37,11.76,11.76,0,0,1,24.88,13.12Z" style="fill:#fff;stroke:#fff;stroke-width:0.5px"/><path d="M8.09,8.65a2.8,2.8,0,1,0,2.8-2.8,2.8,2.8,0,0,0-2.8,2.8Zm4.47,0A1.68,1.68,0,1,1,10.88,7h0A1.68,1.68,0,0,1,12.56,8.65Z" style="fill:#fff;stroke:#fff;stroke-width:0.5px"/><path d="M10.89,14.8a.54.54,0,0,0-.5.31L8.15,19.59a.54.54,0,0,0,.2.76.56.56,0,0,0,.77-.2l0-.06,1.74-3.48,1.73,3.48a.56.56,0,0,0,1-.5l-2.24-4.48a.54.54,0,0,0-.5-.31Z" style="fill:#fff;stroke:#fff;stroke-width:0.5px"/><line x1="13.45" y1="157.56" x2="13.45" y2="228.56" style="fill:none;stroke:#fff;stroke-width:1.5px"/></svg>