<svg xmlns="http://www.w3.org/2000/svg" viewBox="0 0 213.89 43.08"><title>cb daze logo</title><path d="M154.25,41.57c-1.57-.73-2-3.37-2.09-5.06V23a7.79,7.79,0,0,0-3-6.43c-2-1.62-4.77-2.42-8.23-2.42a17.25,17.25,0,0,0-5.19.8,10.6,10.6,0,0,0-4.13,2.27A4.53,4.53,0,0,0,130,20.62,5.18,5.18,0,0,0,131.16,24a4.32,4.32,0,0,0,3.48,1.48,4.25,4.25,0,0,0,2.67-.84,2.76,2.76,0,0,0,1.28-2.17,2.79,2.79,0,0,1-1.71-1.15,3.23,3.23,0,0,1-.65-1.86,3.4,3.4,0,0,1,1.27-2.86,5.4,5.4,0,0,1,3.39-1q3,0,4,1.71c.68,1.14,1,3,1,5.66v3.54a39.32,39.32,0,0,0-7.73.74,20,20,0,0,0-6.08,2.15,11,11,0,0,0-3.42,2.92,5.63,5.63,0,0,0-1.18,3.34,6.2,6.2,0,0,0,2.8,5.42c1.87,1.3,4.45,1.95,7.76,1.95a10.43,10.43,0,0,0,3.78-.71,13.15,13.15,0,0,0,4.07-2.95,6.76,6.76,0,0,1,.63-.68,5.07,5.07,0,0,0,2.12,2.45v0a8.06,8.06,0,0,0,4.2,1,3.61,3.61,0,0,0,1.88-.4C154.56,41.7,154.41,41.63,154.25,41.57Zm-8.34-5.2a7.12,7.12,0,0,1-1.59,2.42,12.41,12.41,0,0,1-2.22,1.8,4.52,4.52,0,0,1-2.33.62,3.84,3.84,0,0,1-3-1.45,5.39,5.39,0,0,1-1.23-3.63,6.78,6.78,0,0,1,2.65-5.81c1.77-1.32,4.35-2,7.73-2Z" transform="translate(0 0.01)" style="fill:#fff"/><path d="M212.71,31.86a4.34,4.34,0,0,0-3.49-1.47,4.15,4.15,0,0,0-2.67.84,2.75,2.75,0,0,0-1.27,2.16A2.86,2.86,0,0,1,207,34.54a3.3,3.3,0,0,1,.65,1.86,4.76,4.76,0,0,1-1.57,3.48,5,5,0,0,1-3.57,1.54c-2.4,0-4.26-1.27-5.6-3.8a19.33,19.33,0,0,1-2-9.18,21.55,21.55,0,0,1,.17-2.89l.24-1.59a18.55,18.55,0,0,1,1.8-6.05,4,4,0,0,1,3.63-2.57,4.25,4.25,0,0,1,3.54,2.3A15.2,15.2,0,0,1,206.05,24c0,.53.08,1.06.08,1.59h0l5.54-.81c1.18,0,2-.33,1.68-1.47a12.89,12.89,0,0,0-3.17-5.57,12.39,12.39,0,0,0-4.1-2.68A13.54,13.54,0,0,0,196,15a11.57,11.57,0,0,0-4,2.68,15,15,0,0,0-4,10.8,14.05,14.05,0,0,0,4.25,10.62A12,12,0,0,0,196.76,42,17.33,17.33,0,0,0,208,41.92a11.1,11.1,0,0,0,4.28-2.8,5.66,5.66,0,0,0,1.62-3.89A5.23,5.23,0,0,0,212.71,31.86Z" transform="translate(0 0.01)" style="fill:#fff"/><rect x="190.68" y="25.24" width="22.99" height="1.58" transform="translate(-1.62 30.35) rotate(-8.55)" style="fill:#fff"/><path d="M33.57,31a12.76,12.76,0,0,1-4.72,8.67,14.46,14.46,0,0,1-4.42,2.51,15.52,15.52,0,0,1-5.31.91,19.21,19.21,0,0,1-7.26-1.39,17.24,17.24,0,0,1-6-4Q0,31.68,0,21.54T5.84,5.31a16.67,16.67,0,0,1,5.75-3.92A17.69,17.69,0,0,1,18.47,0a18.22,18.22,0,0,1,8.41,1.71A11.77,11.77,0,0,1,31.6,5.78,8.55,8.55,0,0,1,33,10.15a6.38,6.38,0,0,1-1.21,3.69,4.12,4.12,0,0,1-3.63,1.74,4,4,0,0,1-2.62-.95,2.66,2.66,0,0,1-1.15-2.06,2.79,2.79,0,0,0,1.71-1.15,3.23,3.23,0,0,0,.65-1.86A11,11,0,0,0,25.2,3.84c-1.07-1.77-3.09-2.66-6.08-2.66a8.9,8.9,0,0,0-7.67,4.19Q7.91,10.56,7.91,21.53q0,11.16,3.6,16.11a9.7,9.7,0,0,0,3.6,3.22,10.54,10.54,0,0,0,4.78,1,10.11,10.11,0,0,0,3.9-.83,14.28,14.28,0,0,0,3.77-2.3,12,12,0,0,0,2.86-3.45A11.68,11.68,0,0,0,31.87,31Z" transform="translate(0 0.01)" style="fill:#fff"/><path d="M184.84,31.35a4.33,4.33,0,0,0-3.48-1.43,4.19,4.19,0,0,0-2.67.82,2.68,2.68,0,0,0-1.28,2.11A2.83,2.83,0,0,1,179.12,34a3.05,3.05,0,0,1,.65,1.81,4.62,4.62,0,0,1-1.56,3.4c-1,1-2.46,1.73-7.2,1.73h-4.72l17.54-26h-22.2l-1.86,6.21.34.23c2.53-2.94,4.94-5.3,11.2-5.3h4.17L158,42.05h12.92c5,0,7-.12,9.24-.86a10.24,10.24,0,0,0,4.28-2.74,5.43,5.43,0,0,0,1.62-3.8A5,5,0,0,0,184.84,31.35Z" transform="translate(0 0.01)" style="fill:#fff"/><path d="M124,13a18.34,18.34,0,0,0-5.13-6.67,21.22,21.22,0,0,0-7.44-4.07A30.47,30.47,0,0,0,102,.89H93v41.3h9a30.29,30.29,0,0,0,9.41-1.42,22.42,22.42,0,0,0,7.47-4q6.84-5.67,6.84-15.23A20.5,20.5,0,0,0,124,13Zm-7.38,17.23a15.33,15.33,0,0,1-3.42,6.2Q109,41,102,41h-2V2.07h2q7,0,11.21,4.54a15.26,15.26,0,0,1,3.42,6.2,32.75,32.75,0,0,1,0,17.46Z" transform="translate(0 0.01)" style="fill:#fff"/><path d="M67.54,23.51a11.1,11.1,0,0,0-7.86-3.27H57.49a11.74,11.74,0,0,0,7.44-3A8.94,8.94,0,0,0,64.76,3.7,11.58,11.58,0,0,0,57,.89H40.55v41.3H59.68A10.94,10.94,0,0,0,67.54,39a10.23,10.23,0,0,0,3.29-7.69A10.41,10.41,0,0,0,67.54,23.51ZM47.61,16.82V2.17H52.3a7.48,7.48,0,0,1,6,2.52,10.23,10.23,0,0,1,0,12.63,7.49,7.49,0,0,1-6,2.53H47.61ZM60,38.37c-2.23,1.79-4.74,2-7.62,2H47.61V21h7.58a7.08,7.08,0,0,1,5.92,2.84A11.32,11.32,0,0,1,63.31,31,8.92,8.92,0,0,1,60,38.37Z" transform="translate(0 0.01)" style="fill:#fff"/><circle cx="81.04" cy="21.99" r="3.55" style="fill:#fff"/></svg>