<svg xmlns="http://www.w3.org/2000/svg" viewBox="0 0 238.15 31.58"><title>reclutachat logo</title><path d="M9.68,8.34A8.28,8.28,0,0,0,5.5,9.45a9.11,9.11,0,0,0-1,.69,2.19,2.19,0,0,0-.55-.94,2.26,2.26,0,0,0-1.64-.64,2.3,2.3,0,0,0-1.6.62A2.21,2.21,0,0,0,0,10.85V28.67A2.26,2.26,0,0,0,2.22,31h.07A2.19,2.19,0,0,0,4,30.27a2.25,2.25,0,0,0,.62-1.6V17.55a4.58,4.58,0,0,1,.64-2.43A4.34,4.34,0,0,1,7,13.44a5.49,5.49,0,0,1,2.69-.63,5.83,5.83,0,0,1,.73.06,9,9,0,0,0,1,.09,2.29,2.29,0,0,0,1.32-.38,2.12,2.12,0,0,0,.81-1.21,1.91,1.91,0,0,0,.08-.63C13.65,9.65,13,8.34,9.68,8.34Z" transform="translate(0 0)" style="fill:#a3aeff"/><path d="M30.76,9.81a10.28,10.28,0,0,0-5.38-1.43,10.41,10.41,0,0,0-5.5,1.47A10.16,10.16,0,0,0,16.1,14a12.8,12.8,0,0,0-1.32,5.83,12.09,12.09,0,0,0,1.43,5.83,10.45,10.45,0,0,0,4,4.07,11.5,11.5,0,0,0,9.75.69,10.27,10.27,0,0,0,3.45-2l0,0a2.17,2.17,0,0,0,.68-1.53,2.11,2.11,0,0,0-.82-1.68,2.2,2.2,0,0,0-1.44-.5,2.4,2.4,0,0,0-1.51.55l-.08.07a5,5,0,0,1-1.85,1,7.48,7.48,0,0,1-2.48.43,6.55,6.55,0,0,1-3.27-.8,6.05,6.05,0,0,1-2.3-2.22,6.64,6.64,0,0,1-.8-2.06h14a2.22,2.22,0,0,0,1.58-.6,2.15,2.15,0,0,0,.67-1.62,12,12,0,0,0-1.31-5.64A9.85,9.85,0,0,0,30.76,9.81ZM19.68,17.34a6.37,6.37,0,0,1,1.71-3,5.45,5.45,0,0,1,4-1.57,5.56,5.56,0,0,1,4.07,1.56,6,6,0,0,1,1.64,3Z" transform="translate(0 0)" style="fill:#a3aeff"/><path d="M45.85,13.67A5.73,5.73,0,0,1,49,12.81a6.28,6.28,0,0,1,5,2.34,2.18,2.18,0,0,0,1.77.88,2.4,2.4,0,0,0,2.29-2.21,2.27,2.27,0,0,0-.47-1.3l-.05-.06a10.38,10.38,0,0,0-3.79-3,11,11,0,0,0-4.78-1A10.2,10.2,0,0,0,43.52,9.9,10.47,10.47,0,0,0,39.72,14a12.32,12.32,0,0,0-1.34,5.77,11.77,11.77,0,0,0,1.45,5.77,10.79,10.79,0,0,0,4,4.13,11.14,11.14,0,0,0,5.69,1.5,11.85,11.85,0,0,0,4.08-.72,10.29,10.29,0,0,0,3.37-2,2.06,2.06,0,0,0,.7-1.56,2.27,2.27,0,0,0-.74-1.67,2.09,2.09,0,0,0-1.48-.58,2.25,2.25,0,0,0-1.59.66,6.09,6.09,0,0,1-4.34,1.46,6.38,6.38,0,0,1-3.41-.89,6.12,6.12,0,0,1-2.3-2.46A7.6,7.6,0,0,1,43,19.78a8.42,8.42,0,0,1,.78-3.69A5.62,5.62,0,0,1,45.85,13.67Z" transform="translate(0 0)" style="fill:#a3aeff"/><path d="M69.36,26.38h-.92a.92.92,0,0,1-.85-.55,3.74,3.74,0,0,1-.52-2.09V2.29A2.19,2.19,0,0,0,65,0h-.18a2.32,2.32,0,0,0-1.6.61,2.23,2.23,0,0,0-.68,1.67V23.74a8,8,0,0,0,1.59,5.09A5.33,5.33,0,0,0,68.45,31h.73a2.23,2.23,0,0,0,1.67-.68,2.33,2.33,0,0,0,.62-1.6,2.36,2.36,0,0,0-.56-1.59A2,2,0,0,0,69.36,26.38Z" transform="translate(0 0)" style="fill:#a3aeff"/><path d="M94.93,9.2a2.25,2.25,0,0,0-1.65-.64,2.29,2.29,0,0,0-1.6.62A2.22,2.22,0,0,0,91,10.85v11.2a3.84,3.84,0,0,1-.71,2.27,4.81,4.81,0,0,1-2,1.68,6.87,6.87,0,0,1-3,.64A6,6,0,0,1,81,25.13a5.73,5.73,0,0,1-1.58-4.43V10.86a2.29,2.29,0,0,0-4.58,0V20.7a11.31,11.31,0,0,0,1.34,5.61A9.18,9.18,0,0,0,79.91,30a11.46,11.46,0,0,0,5.33,1.23,10,10,0,0,0,5.87-1.82,2.06,2.06,0,0,0,.55.9,2.26,2.26,0,0,0,1.63.66A2.22,2.22,0,0,0,95,30.28a2.33,2.33,0,0,0,.62-1.6V10.86a2.29,2.29,0,0,0-.64-1.65Z" transform="translate(0 0)" style="fill:#a3aeff"/><path d="M113.72,27a2.33,2.33,0,0,0-1.66-.66h-.8a3.39,3.39,0,0,1-2.56-1,3.53,3.53,0,0,1-1-2.62V13.65h3.63a2.18,2.18,0,0,0,.1-4.36h-3.73V4.52a2.26,2.26,0,0,0-2.19-2.33h-.14a2.26,2.26,0,0,0-1.63.66,2.37,2.37,0,0,0-.66,1.67V9.29h-1.67a2.18,2.18,0,0,0-.09,4.36h1.76v9.09a8.56,8.56,0,0,0,1,4.18,7.71,7.71,0,0,0,2.9,3A8.21,8.21,0,0,0,111.22,31h.84a2.33,2.33,0,0,0,1.66-.66,2.22,2.22,0,0,0,.66-1.63,2.32,2.32,0,0,0-.65-1.67Z" transform="translate(0 0)" style="fill:#a3aeff"/><path d="M138.87,14a11,11,0,0,0-4.12-4.13,12,12,0,0,0-11.61,0A10.89,10.89,0,0,0,119,14a12,12,0,0,0,0,11.6,10.8,10.8,0,0,0,4.12,4.12,11.51,11.51,0,0,0,5.82,1.5,11.06,11.06,0,0,0,5.26-1.26,9.6,9.6,0,0,0,1.57-1,2.31,2.31,0,0,0,.65,1.4,2.26,2.26,0,0,0,1.63.66,2.19,2.19,0,0,0,1.67-.69,2.25,2.25,0,0,0,.62-1.6V19.78A11.65,11.65,0,0,0,138.87,14Zm-4,9.41a6.43,6.43,0,0,1-2.43,2.48,7.26,7.26,0,0,1-7,0A6.44,6.44,0,0,1,123,23.36a7.52,7.52,0,0,1,0-7.16,7,7,0,0,1,9.44-2.51,6.49,6.49,0,0,1,2.43,2.5,7.67,7.67,0,0,1,0,7.18Z" transform="translate(0 0)" style="fill:#a3aeff"/><path d="M187.69,9.54h0a11.47,11.47,0,0,0-5.33-1.24,10,10,0,0,0-5.76,1.75V2.29A2.19,2.19,0,0,0,174.5,0h-.19a2.29,2.29,0,0,0-1.6.62A2.22,2.22,0,0,0,172,2.29V28.67A2.26,2.26,0,0,0,174.25,31h.07a2.19,2.19,0,0,0,1.67-.69,2.31,2.31,0,0,0,.62-1.6V17.47a3.93,3.93,0,0,1,.7-2.27,4.87,4.87,0,0,1,2-1.68,7.17,7.17,0,0,1,3-.64,6,6,0,0,1,4.29,1.51,5.78,5.78,0,0,1,1.58,4.44v9.84a2.29,2.29,0,1,0,4.57,0V18.83a11.22,11.22,0,0,0-1.34-5.62A9.09,9.09,0,0,0,187.69,9.54Z" transform="translate(0 0)" style="fill:#e2e6fe"/><path d="M214.82,9.83h0a12,12,0,0,0-11.61,0A11,11,0,0,0,199.09,14a12,12,0,0,0,0,11.6,11,11,0,0,0,4.12,4.13A11.66,11.66,0,0,0,209,31.18a11.09,11.09,0,0,0,5.26-1.26,10,10,0,0,0,1.57-1,2.18,2.18,0,0,0,.65,1.4,2.26,2.26,0,0,0,1.63.66,2.23,2.23,0,0,0,1.67-.68,2.33,2.33,0,0,0,.62-1.6V19.79a11.57,11.57,0,0,0-1.5-5.83A10.89,10.89,0,0,0,214.82,9.83ZM215,23.37a6.5,6.5,0,0,1-2.43,2.48,7.26,7.26,0,0,1-7,0,6.54,6.54,0,0,1-2.46-2.49,7.57,7.57,0,0,1,0-7.16,7,7,0,0,1,9.45-2.51,6.51,6.51,0,0,1,2.44,2.5,7.72,7.72,0,0,1,0,7.18Z" transform="translate(0 0)" style="fill:#e2e6fe"/><path d="M237.48,27h0a2.25,2.25,0,0,0-1.66-.66H235a3.44,3.44,0,0,1-2.56-1,3.57,3.57,0,0,1-1-2.63V13.65h3.64a2.18,2.18,0,1,0,.09-4.35.14.14,0,0,0-.09,0h-3.64V4.52a2.26,2.26,0,0,0-2.19-2.33h-.14a2.23,2.23,0,0,0-1.62.66,2.28,2.28,0,0,0-.66,1.67V9.29h-1.67a2.18,2.18,0,0,0-.09,4.36h1.76v9.09a8.56,8.56,0,0,0,1,4.18,7.71,7.71,0,0,0,2.9,3A8.21,8.21,0,0,0,235,31h.84a2.33,2.33,0,0,0,1.66-.66,2.23,2.23,0,0,0,.66-1.63A2.29,2.29,0,0,0,237.48,27Z" transform="translate(0 0)" style="fill:#e2e6fe"/><path d="M166.89,23.9a2.18,2.18,0,0,0-3,.43,6.83,6.83,0,0,1-5.49,2.81A6.66,6.66,0,0,1,154.54,26a2.19,2.19,0,0,0-1.65-.34l-2,.39.81-2.38a2.1,2.1,0,0,0,0-1.4,8,8,0,0,1-.41-2.52,7.24,7.24,0,0,1,7-7.44,6.85,6.85,0,0,1,5.58,2.93,2.18,2.18,0,0,0,3.54-2.54,11.31,11.31,0,0,0-9.12-4.75A11.62,11.62,0,0,0,147,19.7a12.68,12.68,0,0,0,.42,3.18l-1.8,5.29A2.18,2.18,0,0,0,147,30.93a2.28,2.28,0,0,0,1.13.08l4.81-1A11.08,11.08,0,0,0,167.33,27a2.18,2.18,0,0,0-.43-3.05h0Z" transform="translate(0 0)" style="fill:#e2e6fe"/><path d="M167.74,25.4a2.18,2.18,0,0,0-2.46-1.85,2.21,2.21,0,0,0-1.44.85,6.86,6.86,0,0,1-5.49,2.82,6.67,6.67,0,0,1-3.81-1.2,2.19,2.19,0,0,0-1.65-.34l-2,.39.81-2.38a2.1,2.1,0,0,0,0-1.4,8,8,0,0,1-.41-2.52V19.4H147v.37a12.61,12.61,0,0,0,.41,3.18l-1.8,5.29A2.19,2.19,0,0,0,147,31a2.28,2.28,0,0,0,1.13.08l4.81-1A11.08,11.08,0,0,0,167.33,27,2.13,2.13,0,0,0,167.74,25.4Z" transform="translate(0 0)" style="fill:#fff"/></svg>