<svg xmlns="http://www.w3.org/2000/svg" viewBox="0 0 177 10"><title>reclutachat element 2</title><path d="M176,10c-3.83,0-5.78-2.31-7.5-4.36S165.43,2,162.53,2s-4.33,1.69-6,3.65S152.89,10,149.06,10s-5.78-2.31-7.49-4.36S138.5,2,135.6,2s-4.32,1.69-6,3.64S126,10,122.13,10s-5.77-2.31-7.49-4.36S111.57,2,108.67,2s-4.31,1.69-6,3.64S99.05,10,95.22,10s-5.78-2.31-7.5-4.36S84.66,2,81.76,2s-4.32,1.69-6,3.64S72.13,10,68.3,10s-5.78-2.31-7.5-4.36S57.74,2,54.84,2s-4.32,1.69-6,3.64S45.21,10,41.38,10s-5.78-2.31-7.5-4.36S30.81,2,27.92,2,23.6,3.69,22,5.64,18.29,10,14.46,10,8.68,7.69,7,5.64,3.9,2,1,2A1,1,0,0,1,1,0C4.83,0,6.78,2.31,8.49,4.36S11.56,8,14.46,8s4.32-1.69,6-3.64S24.09,0,27.92,0s5.77,2.31,7.49,4.36S38.48,8,41.38,8s4.32-1.69,6-3.64S51,0,54.84,0s5.77,2.31,7.49,4.36S65.4,8,68.3,8s4.32-1.69,6-3.64S77.93,0,81.76,0s5.78,2.31,7.49,4.36S92.32,8,95.22,8s4.32-1.69,6-3.64S104.85,0,108.67,0s5.78,2.31,7.5,4.36,3.07,3.64,6,3.64,4.33-1.69,6-3.64S131.77,0,135.6,0s5.78,2.31,7.5,4.36,3.06,3.64,6,3.64,4.32-1.69,6-3.64S158.7,0,162.53,0s5.78,2.31,7.5,4.36S173.1,8,176,8a1,1,0,0,1,0,2Z" style="fill:#fff"/></svg>