<svg xmlns="http://www.w3.org/2000/svg" viewBox="0 0 585.24 578.04"><title>tlegal_element</title><path d="M88.38,217.93c17-13.73,23.63-36.59,28.06-58S122.73,116.6,130,96c16.58-47.1,62.94-82.18,112.77-85.34S343,36.49,365.37,81.13c14.47,28.86,17.67,62.35,32.19,91.2,20.69,41.06,61.32,67.52,99.31,93.44s77.16,55.94,91.85,99.52c13.92,41.29,1.18,90.27-31.1,119.54s-82.26,37.2-122,19.34c-28.48-12.81-51.24-37.2-81.13-46.23-39.16-11.83-82.57-8.1-121.91,3.12C158.82,482.09,72.37,487,23,388-25.18,291.34,65.16,236.73,88.38,217.93Z" transform="translate(-9.06 -10.45)" style="fill:#5ed3cc;opacity:0.6499999761581421;isolation:isolate"/><path d="M118.64,313.13l47.82,95.22c30.19,60.11,62.25,122.32,119.2,157.14s146.61,32.78,202.82-24.67c37-37.83,51.79-91.92,46.66-138.26s-27.74-85.92-55-120a436.41,436.41,0,0,0-130.79-110c-42.22-23.25-92.2-40.16-145-27S98.48,211.61,101.67,262.9C102.82,281.43,110.79,297.5,118.64,313.13Z" transform="translate(-9.06 -10.45)" style="fill:#5ed3cc;opacity:0.699999988079071;isolation:isolate"/><g style="opacity:0.5"><path d="M87,179.55c28.13,9.64,61.53-7.91,72.74-35.46s1.49-61.16-20.34-81.36c-8.62-8-19.15-14.2-30.72-16.23S84.53,47,75.61,54.65c-11.12,9.52-14.86,24.87-18,39.17-4.32,19.7-8.49,41.05-.13,59.4A50.69,50.69,0,0,0,87,179.55Z" transform="translate(-9.06 -10.45)" style="fill:#66c085"/><path d="M87,179.55c28.13,9.64,61.53-7.91,72.74-35.46s1.49-61.16-20.34-81.36c-8.62-8-19.15-14.2-30.72-16.23S84.53,47,75.61,54.65c-11.12,9.52-14.86,24.87-18,39.17-4.32,19.7-8.49,41.05-.13,59.4A50.69,50.69,0,0,0,87,179.55Z" transform="translate(-9.06 -10.45)" style="fill:#66c085"/><path d="M87,179.55c28.13,9.64,61.53-7.91,72.74-35.46s1.49-61.16-20.34-81.36c-8.62-8-19.15-14.2-30.72-16.23S84.53,47,75.61,54.65c-11.12,9.52-14.86,24.87-18,39.17-4.32,19.7-8.49,41.05-.13,59.4A50.69,50.69,0,0,0,87,179.55Z" transform="translate(-9.06 -10.45)" style="fill:#66c085;opacity:0.699999988079071;isolation:isolate"/></g><circle cx="464.49" cy="134.32" r="33.86" style="fill:#5ed3cc;opacity:0.699999988079071;isolation:isolate"/></svg>