<svg xmlns="http://www.w3.org/2000/svg" xmlns:xlink="http://www.w3.org/1999/xlink" viewBox="0 0 216 31.87"><defs><linearGradient id="a" x1="-824.29" y1="540.09" x2="-823.29" y2="540.09" gradientTransform="matrix(31.87, 0, 0, -31.87, 26266.97, 17226.92)" gradientUnits="userSpaceOnUse"><stop offset="0" stop-color="#6dcdeb"/><stop offset="0.27" stop-color="#70cacf"/><stop offset="0.77" stop-color="#72c69f"/><stop offset="1" stop-color="#72c48d"/></linearGradient></defs><title>tlegal logo</title><path d="M10.77,12A2.38,2.38,0,1,1,8.39,14.4,2.39,2.39,0,0,1,10.77,12ZM25.29,31.87V28.11H9.45a5.72,5.72,0,0,1-5.7-5.7V6.7H0V22.41a9.46,9.46,0,0,0,9.44,9.46H25.29ZM28.11,9.45V25.29h3.76V9.45A9.49,9.49,0,0,0,22.41,0H6.7V3.76H22.41A5.71,5.71,0,0,1,28.11,9.45Z" transform="translate(0)" style="fill:url(#a)"/><path d="M86.91,22.85v-19H83.15v19a5.18,5.18,0,0,0,5.17,5.2H99.49V24.29H88.35A1.46,1.46,0,0,1,86.91,22.85Z" transform="translate(0)" style="fill:#fff"/><path d="M204.86,24.29a1.46,1.46,0,0,1-1.44-1.44V3.51h-3.76V22.85a5.31,5.31,0,0,0,5.2,5.2H216V24.29Z" transform="translate(0)" style="fill:#fff"/><path d="M64.92,3.57H47.33a1.88,1.88,0,1,0,0,3.76h7.2V28.49h3.76V7.33h6.63a1.88,1.88,0,0,0,0-3.76Z" transform="translate(0)" style="fill:#fff"/><path d="M109.76,9.05v13.8a5.17,5.17,0,0,0,5.16,5.2h11.24V24.29H115a1.45,1.45,0,0,1-1.44-1.44v-5h12.64V14.08H113.51v-5A1.46,1.46,0,0,1,115,7.64h11.21V3.88H115A5.18,5.18,0,0,0,109.76,9.05Z" transform="translate(0)" style="fill:#fff"/><path d="M191,25.42,190.39,24,181.5,4.63a1.9,1.9,0,0,0-1.69-1.12,1.77,1.77,0,0,0-1.69,1.12l-9,20.73-1.26,2.75h4.26l1-2.63,1.13-2.57H185.7l.81,1.69.88,1.82.31.75.44.94h4.07l-1.13-2.5Zm-15.09-6.27L179.88,10l4.19,9.14Z" transform="translate(0)" style="fill:#fff"/><path d="M158.53,14.83h-10.4v3.76h8.14a8.48,8.48,0,0,1-8.14,6,8.58,8.58,0,1,1,7.33-13l3.25-1.87a12.26,12.26,0,1,0,1.7,7,1.66,1.66,0,0,0-.5-1.37A2,2,0,0,0,158.53,14.83Z" transform="translate(0)" style="fill:#fff"/></svg>