<svg xmlns="http://www.w3.org/2000/svg" viewBox="0 0 243 48.62"><title>utag plus logo</title><polygon points="56.38 9.84 29.33 9.84 29.33 16.17 38.86 16.17 38.86 39.39 46.86 39.39 46.86 16.17 56.39 16.17 56.38 9.84" style="fill:#fff"/><path d="M65.1,9.61,52.64,39.39h8.47l2-5.41H75.74l2,5.41h8.67L74,9.61Zm.35,18,4-10.74,4,10.74Z" transform="translate(0 0)" style="fill:#fff"/><path d="M102.05,27.18h5.55v5.47l-.71.4a6.69,6.69,0,0,1-1.88.71,11.2,11.2,0,0,1-2.52.22,10,10,0,0,1-3.64-.65,8.5,8.5,0,0,1-2.91-1.89A8.6,8.6,0,0,1,94,28.52a9.83,9.83,0,0,1-.68-3.67A9.93,9.93,0,0,1,94,21.19a8.41,8.41,0,0,1,4.57-4.79,10.33,10.33,0,0,1,7.82.16A14.34,14.34,0,0,1,109,18l4.29-5.17a18.84,18.84,0,0,0-4.5-2.49,19.51,19.51,0,0,0-7.05-1.2,18.08,18.08,0,0,0-6.59,1.18,15.88,15.88,0,0,0-5.21,3.25,14.7,14.7,0,0,0-3.42,4.9,15.41,15.41,0,0,0-1.23,6.14A15.12,15.12,0,0,0,86.55,31a14.53,14.53,0,0,0,3.54,4.85A16.3,16.3,0,0,0,95.41,39,19.67,19.67,0,0,0,102,40.09a21.89,21.89,0,0,0,7.56-1.25A20.73,20.73,0,0,0,114.91,36V23.11H102.05Z" transform="translate(0 0)" style="fill:#fff"/><path d="M17.93,27.41a5.08,5.08,0,0,1-4.63,5.12A5,5,0,0,1,8,27.91c0-.11,0-.22,0-.33V9.84H0v17A13.19,13.19,0,0,0,13.14,40.08h.07a13,13,0,0,0,12.72-13V9.84h-8Z" transform="translate(0 0)" style="fill:#fff"/><path d="M240.48,14.27H237.9V11.68a2.51,2.51,0,0,0-2.52-2.51h-1.33a2.51,2.51,0,0,0-2.51,2.51v2.59H229a2.52,2.52,0,0,0-2.52,2.52v1.33A2.52,2.52,0,0,0,229,20.63h2.58v2.59a2.51,2.51,0,0,0,2.52,2.51h1.33a2.51,2.51,0,0,0,2.51-2.51V20.63h2.59A2.53,2.53,0,0,0,243,18.12V16.79A2.53,2.53,0,0,0,240.48,14.27Z" transform="translate(0 0)" style="fill:#fff"/><path d="M226.61,22.6a3.35,3.35,0,0,0-.45-.27c-3.86-2.11-8-.7-11.26-1.61l-.31-.1-.93-.36a4.31,4.31,0,0,1-1.82-1.45c-.06-.09-.11-.19-.16-.28s-.14-.36-.22-.57v0h0c-.51-1.38-1.24-3.42-4.11-3.48-3.31-.06-4.25,2-4,3.32s1.3,2.69,6.16,3.59a10.77,10.77,0,0,1,2.06.6,7.09,7.09,0,0,1,2.73,1.85l0,0c1.89,2.12,2.5,5.88,6.92,7l.05,0,.58.12a10,10,0,0,0,1.63.22,5.06,5.06,0,0,0,4.26-1.36l.06-.08a1.84,1.84,0,0,0,.17-.22A5,5,0,0,0,226.61,22.6Z" transform="translate(0 0)" style="fill:#fff"/><path d="M144.25,9.38a12.21,12.21,0,0,0-7.46,2.25,2.28,2.28,0,0,0,0-.26v-.19a3.08,3.08,0,0,0-6.16,0V45.52a3.09,3.09,0,1,0,6.18,0V37.84a12.06,12.06,0,0,0,6.68,1.89c6.91,0,13.88-4.8,13.88-15.5C157.35,15.35,152.09,9.38,144.25,9.38Zm-.78,24.8h0c-1.57,0-6.68-.6-6.68-8.29V23.94c0-5.87,2.43-9,7-9,5.21,0,7.07,5.2,7.07,9.65C150.87,30.43,148,34.18,143.47,34.18Z" transform="translate(0 0)" style="fill:#fff"/><path d="M165.32,0a3.1,3.1,0,0,0-3.25,2.93s0,.11,0,.16V36.61a3.1,3.1,0,0,0,3.1,3.09h.16a3.21,3.21,0,0,0,2.93-3.26V3.27A3.22,3.22,0,0,0,165.32,0Z" transform="translate(0 0)" style="fill:#fff"/><path d="M205.24,26.08a10.77,10.77,0,0,1-2.06-.6,7.09,7.09,0,0,1-2.73-1.85l0,0a9.13,9.13,0,0,1-3-7.18V13.3a3.2,3.2,0,0,0-2.51-3.19,3.1,3.1,0,0,0-3.62,2.47,3.66,3.66,0,0,0-.05.57V24.48c0,6.22-2.27,9.65-6.38,9.65-3,0-4.75-1.56-5.07-4.4a32.57,32.57,0,0,1-.19-3.69V13.3a3.2,3.2,0,0,0-2.52-3.19,3.1,3.1,0,0,0-3.61,2.47,2.75,2.75,0,0,0,0,.57V26.73a34.72,34.72,0,0,0,.21,4.56c.74,5.2,4.78,8.44,10.54,8.44a11.4,11.4,0,0,0,7.07-2.15l.27-.2a3.07,3.07,0,0,0,5.93-1.14l0-6.05c0-.17,0-.34,0-.51a2.92,2.92,0,0,1,2.88-2.51,3.23,3.23,0,0,1,.92.16h0l0,0a2.91,2.91,0,0,1,1.79,1.89c0,.08.06.14.09.23v0h0c.51,1.38,1.24,3.42,4.11,3.48,3.31.06,4.25-2,4-3.32S210.1,27,205.24,26.08Z" transform="translate(0 0)" style="fill:#fff"/></svg>