<svg xmlns="http://www.w3.org/2000/svg" viewBox="0 0 216 48"><title>visitar_boton</title><rect x="119.88" y="23.59" width="71.08" height="1" style="fill:#b3c8d8"/><polygon points="186.15 30.06 185.41 29.38 190.26 24.13 184.87 19.28 185.53 18.53 191.68 24.06 186.15 30.06" style="fill:#b3c8d8"/><rect width="216" height="48" style="fill:none"/><path d="M216,48H0V0H216ZM1,47H215V1H1Z" style="fill:#b3c8d8"/><g style="isolation:isolate"><g style="isolation:isolate"><path d="M24.54,19.5h1.23l1.49,5c.32,1.09.55,2,.88,3h.06c.33-1.08.57-1.95.88-3l1.47-5h1.19l-2.91,9.19H27.47Z" style="fill:#b3c8d8"/><path d="M36.47,27.7h2.28V20.48H36.47v-1h5.74v1H39.93V27.7h2.28v1H36.47Z" style="fill:#b3c8d8"/><path d="M47.28,27.5l.7-.81a3.85,3.85,0,0,0,2.69,1.14c1.26,0,2-.6,2-1.45S52,25.12,51,24.71l-1.32-.57a2.65,2.65,0,0,1-2-2.37c0-1.4,1.26-2.44,3-2.44a4,4,0,0,1,2.83,1.14l-.61.75a3.28,3.28,0,0,0-2.26-.87c-1.06,0-1.78.52-1.78,1.35s.86,1.2,1.64,1.53l1.29.56c1.14.46,2,1.09,2,2.45s-1.23,2.62-3.25,2.62A4.69,4.69,0,0,1,47.28,27.5Z" style="fill:#b3c8d8"/><path d="M58.87,27.7h2.28V20.48H58.87v-1h5.74v1H62.33V27.7h2.28v1H58.87Z" style="fill:#b3c8d8"/><path d="M72.35,20.48h-3v-1h7.23v1h-3v8.21H72.35Z" style="fill:#b3c8d8"/><path d="M83.48,19.5H84.8l3.1,9.19H86.66l-.87-2.8H82.46l-.88,2.8H80.39ZM82.75,25H85.5l-.43-1.4c-.33-1-.63-2-.91-3.1H84.1c-.29,1.07-.59,2.08-.91,3.1Z" style="fill:#b3c8d8"/><path d="M92.54,19.5H95.4c1.86,0,3.2.67,3.2,2.58a2.51,2.51,0,0,1-2,2.6l2.34,4H97.55l-2.21-3.88H93.7v3.88H92.54Zm2.69,4.36c1.43,0,2.21-.59,2.21-1.78s-.78-1.64-2.21-1.64H93.7v3.42Z" style="fill:#b3c8d8"/></g></g></svg>