<svg xmlns="http://www.w3.org/2000/svg" viewBox="0 0 233 28.87"><title>we coin logo</title><polygon points="30.6 25.86 21.74 0.21 19.75 0.21 10.85 25.81 2.19 0.21 0 0.21 9.67 28.66 11.87 28.66 20.73 3.14 29.55 28.66 31.73 28.66 41.37 0.21 39.34 0.21 30.6 25.86" style="fill:#fff"/><polygon points="61.6 15.12 76.76 15.12 76.76 13.3 61.6 13.3 61.6 2.08 78.54 2.08 78.54 0.21 59.53 0.21 59.53 28.66 79.16 28.66 79.16 26.79 61.6 26.79 61.6 15.12" style="fill:#fff"/><path d="M104.35,3.53a13.29,13.29,0,0,1,6.5-1.63,12,12,0,0,1,8.74,3.38l1.3-1.34A11.73,11.73,0,0,0,116.46,1a15.8,15.8,0,0,0-5.69-1,15.28,15.28,0,0,0-7.54,1.87A13.84,13.84,0,0,0,98,7,14.36,14.36,0,0,0,96,14.42,14.34,14.34,0,0,0,98,21.82,13.84,13.84,0,0,0,103.23,27a15.16,15.16,0,0,0,7.54,1.86,15.45,15.45,0,0,0,5.67-1,11.85,11.85,0,0,0,4.45-3l-1.3-1.34a11.87,11.87,0,0,1-8.74,3.41,13.17,13.17,0,0,1-6.5-1.62,11.93,11.93,0,0,1-4.59-4.49,12.52,12.52,0,0,1-1.67-6.4A12.49,12.49,0,0,1,99.76,8,11.93,11.93,0,0,1,104.35,3.53Z" transform="translate(0 0.01)" style="fill:#fff"/><path d="M159,1.87a16.12,16.12,0,0,0-15.11,0,13.81,13.81,0,0,0-5.3,5.18,14.16,14.16,0,0,0-1.93,7.35,14.19,14.19,0,0,0,1.93,7.36,14,14,0,0,0,5.3,5.18A16.08,16.08,0,0,0,159,27a13.76,13.76,0,0,0,5.3-5.16,14.36,14.36,0,0,0,1.93-7.4A14.31,14.31,0,0,0,164.34,7,13.69,13.69,0,0,0,159,1.87Zm3.46,19A12,12,0,0,1,158,25.31h0a13.67,13.67,0,0,1-12.93,0,11.9,11.9,0,0,1-4.58-4.49,12.46,12.46,0,0,1-1.66-6.4A12.51,12.51,0,0,1,140.43,8,12,12,0,0,1,145,3.53a13.73,13.73,0,0,1,12.94,0A12,12,0,0,1,162.5,8a12.51,12.51,0,0,1,1.66,6.4A12.46,12.46,0,0,1,162.5,20.82Z" transform="translate(0 0.01)" style="fill:#fff"/><rect x="185.66" y="0.21" width="2.07" height="28.45" style="fill:#fff"/><polygon points="230.93 0.21 230.93 24.92 211.59 0.21 209.84 0.21 209.84 28.66 211.91 28.66 211.91 3.95 231.29 28.66 233 28.66 233 0.21 230.93 0.21" style="fill:#fff"/></svg>