<svg xmlns="http://www.w3.org/2000/svg" viewBox="0 0 152.18 31.58"><title>wunnel logo white</title><path d="M151.59,27.24a2.13,2.13,0,0,0-1.64-.73H149c-.23,0-.48-.06-.77-.5a3.73,3.73,0,0,1-.5-2.06V2.4A2.31,2.31,0,0,0,145.54,0h-.18a2.43,2.43,0,0,0-1.68.65A2.34,2.34,0,0,0,143,2.41V24a8.16,8.16,0,0,0,1.61,5.18A5.53,5.53,0,0,0,149,31.31h.74a2.3,2.3,0,0,0,1.75-.72,2.4,2.4,0,0,0,.65-1.68A2.49,2.49,0,0,0,151.59,27.24Z" transform="translate(0.01 0)" style="fill:#fff"/><path d="M134.45,9.87h0A10.52,10.52,0,0,0,129,8.42a10.64,10.64,0,0,0-5.58,1.49,10.24,10.24,0,0,0-3.83,4.16,12.85,12.85,0,0,0-1.34,5.9,12,12,0,0,0,1.45,5.9,10.65,10.65,0,0,0,4,4.14,11.48,11.48,0,0,0,5.81,1.48,11.77,11.77,0,0,0,4.07-.78,10.57,10.57,0,0,0,3.5-2l0,0a2.21,2.21,0,0,0,.13-3.13,3.08,3.08,0,0,0-.27-.25,2.28,2.28,0,0,0-1.51-.54,2.58,2.58,0,0,0-1.59.59l-.08.07a5,5,0,0,1-1.82,1,7.46,7.46,0,0,1-2.47.43A6.49,6.49,0,0,1,126.3,26a6,6,0,0,1-2.27-2.2,6.6,6.6,0,0,1-.77-1.91h13.92a2.33,2.33,0,0,0,1.66-.63,2.23,2.23,0,0,0,.7-1.7,12.19,12.19,0,0,0-1.32-5.71A10.2,10.2,0,0,0,134.45,9.87ZM129,13.08a5.47,5.47,0,0,1,4,1.54,5.9,5.9,0,0,1,1.59,2.81H123.4a6.17,6.17,0,0,1,1.66-2.8A5.37,5.37,0,0,1,129,13.08Z" transform="translate(0.01 0)" style="fill:#fff"/><path d="M109,9.6h0a11.55,11.55,0,0,0-5.4-1.25,10.13,10.13,0,0,0-5.84,1.76,2.25,2.25,0,0,0-.52-.83,2.38,2.38,0,0,0-1.73-.68,2.45,2.45,0,0,0-1.69.65A2.42,2.42,0,0,0,93.12,11v17.9a2.38,2.38,0,0,0,2.34,2.4h.07a2.32,2.32,0,0,0,1.75-.72,2.41,2.41,0,0,0,.65-1.69V17.66a3.77,3.77,0,0,1,.69-2.22,4.82,4.82,0,0,1,2-1.66,7.17,7.17,0,0,1,3-.63,5.93,5.93,0,0,1,4.24,1.49A5.69,5.69,0,0,1,109.41,19v9.89a2.41,2.41,0,0,0,4.81,0V19a11.57,11.57,0,0,0-1.37-5.7A9.21,9.21,0,0,0,109,9.6Z" transform="translate(0.01 0)" style="fill:#fff"/><path d="M82.8,9.6h0a11.49,11.49,0,0,0-5.4-1.25,10.12,10.12,0,0,0-5.83,1.76A2.15,2.15,0,0,0,71,9.28a2.36,2.36,0,0,0-1.72-.68,2.45,2.45,0,0,0-1.69.65A2.38,2.38,0,0,0,66.91,11v17.9a2.38,2.38,0,0,0,2.34,2.4h.06a2.32,2.32,0,0,0,1.76-.72,2.41,2.41,0,0,0,.65-1.69V17.66a3.77,3.77,0,0,1,.69-2.22,4.82,4.82,0,0,1,2-1.66,7.17,7.17,0,0,1,3-.63,5.93,5.93,0,0,1,4.24,1.49A5.69,5.69,0,0,1,83.2,19v9.89a2.41,2.41,0,1,0,4.81,0V19a11.57,11.57,0,0,0-1.37-5.7A9.18,9.18,0,0,0,82.8,9.6Z" transform="translate(0.01 0)" style="fill:#fff"/><path d="M61.46,9.28a2.52,2.52,0,0,0-3.41,0A2.34,2.34,0,0,0,57.33,11V22.26a3.84,3.84,0,0,1-.69,2.22,4.86,4.86,0,0,1-2,1.65,6.88,6.88,0,0,1-3,.63,5.91,5.91,0,0,1-4.24-1.48,5.68,5.68,0,0,1-1.55-4.38V11A2.41,2.41,0,1,0,41,11h0V20.9a11.33,11.33,0,0,0,1.37,5.7,9.26,9.26,0,0,0,3.84,3.73,11.49,11.49,0,0,0,5.4,1.25,10.14,10.14,0,0,0,5.84-1.77,2.35,2.35,0,0,0,2.24,1.51,2.34,2.34,0,0,0,1.76-.72,2.38,2.38,0,0,0,.65-1.68V11a2.38,2.38,0,0,0-.68-1.73Z" transform="translate(0.01 0)" style="fill:#fff"/><path d="M36,8.58a2.28,2.28,0,0,0-3,1.15h0L26.87,23.44,20.82,9.89a2.28,2.28,0,0,0-1.21-1.3,2.19,2.19,0,0,0-.33-.12h0l-.2,0h0l-.18,0h-.4l-.15,0h0l-.18,0h0A2.24,2.24,0,0,0,16.52,9.9l-6,13.55L4.35,9.75A2.28,2.28,0,0,0,.19,11.6L8.39,30l0,0a1.3,1.3,0,0,0,.14.26l0,0a1.56,1.56,0,0,0,.16.2l0,.05c.07.07.13.14.2.2l0,0a1.49,1.49,0,0,0,.2.15l.07,0a1.71,1.71,0,0,0,.23.13h0l.27.1.07,0,.22.05h.08l.29,0,.29,0h.07l.23-.05.07,0,.26-.1h0l.24-.13.06,0,.2-.15,0,0c.07-.07.14-.13.2-.2l.05-.06.15-.2,0,0c0-.09.1-.17.14-.26v0h0L17.4,19.1h0l1.26-2.83L24.78,30v0c.05.09.09.17.15.26l0,0,.15.2.05.05a1.89,1.89,0,0,0,.2.2l0,0,.2.15.06,0a1.27,1.27,0,0,0,.23.12l0,0h0a1.69,1.69,0,0,0,.27.1l.07,0,.22.05h.08l.28,0,.29,0h.08l.22-.05.07,0,.27-.1h0l.24-.13.06,0,.2-.15,0,0a1.34,1.34,0,0,0,.21-.2h0l.05-.05.15-.21,0,0a2.15,2.15,0,0,0,.14-.26v0L33.79,19.1h0l3.35-7.5A2.28,2.28,0,0,0,36,8.58Z" transform="translate(0.01 0)" style="fill:#fff"/></svg>